<svg width="40" height="40" viewBox="0 0 40 40" fill="none" xmlns="http://www.w3.org/2000/svg">
<rect width="40" height="40" rx="20" fill="#D1E9FF"/>
<path d="M21.6667 11.8912V15.3333C21.6667 15.8 21.6667 16.0334 21.7575 16.2116C21.8374 16.3684 21.9649 16.4959 22.1217 16.5758C22.2999 16.6666 22.5333 16.6666 23 16.6666H26.4421M26.6667 18.3235V24.3333C26.6667 25.7334 26.6667 26.4335 26.3942 26.9683C26.1545 27.4387 25.7721 27.8211 25.3017 28.0608C24.7669 28.3333 24.0668 28.3333 22.6667 28.3333H17.3333C15.9332 28.3333 15.2331 28.3333 14.6984 28.0608C14.228 27.8211 13.8455 27.4387 13.6058 26.9683C13.3333 26.4335 13.3333 25.7334 13.3333 24.3333V15.6666C13.3333 14.2665 13.3333 13.5664 13.6058 13.0316C13.8455 12.5612 14.228 12.1788 14.6984 11.9391C15.2331 11.6666 15.9332 11.6666 17.3333 11.6666H20.0098C20.6213 11.6666 20.927 11.6666 21.2148 11.7357C21.4698 11.7969 21.7137 11.898 21.9374 12.035C22.1897 12.1896 22.4059 12.4058 22.8382 12.8382L25.4951 15.4951C25.9275 15.9274 26.1437 16.1436 26.2983 16.3959C26.4353 16.6196 26.5364 16.8635 26.5976 17.1185C26.6667 17.4063 26.6667 17.712 26.6667 18.3235Z" stroke="#1570EF" stroke-width="1.66667" stroke-linecap="round" stroke-linejoin="round"/>
</svg>
