<svg xmlns="http://www.w3.org/2000/svg" width="261" height="263" fill="none"><g clipPath="url(#a)"><path fill="#FFFFE7" d="M127.79 47.66c.4-5.22.794-10.443 1.18-15.67l1.62-21.36c.04-.265.04-.535 0-.8-.31-1.5-2.43-1.44-3.51-1.3-1.44.227-2.893.364-4.35.41-2.82-2.55-1.14-8-1.14-8 .37.16 10.24-.19 10.24-.19s5.47-1.26 5.77 6.83c.3 8.09-.83 40.08-.83 40.08s-3.54 2.7-9 0h.02z"/><path fill="#000" d="M132.53 49.35a11 11 0 0 1-5-1.25l.22-.44h-.5l1.63-21.61 1.17-15.42c.03-.219.03-.441 0-.66-.23-1.12-2.15-1-3-.9-1.47.229-2.953.366-4.44.41h-.18l-.13-.12c-3-2.74-1.35-8.3-1.27-8.54l.16-.52.51.21c.45.07 6.4-.1 10-.23a4.933 4.933 0 0 1 3.78.91c1.55 1.19 2.39 3.34 2.51 6.41.29 8-.82 39.79-.83 40.11v.24l-.19.14a7.81 7.81 0 0 1-4.44 1.26zm-4.21-2c4.26 2 7.18.49 7.94 0 .1-3 1.09-32.18.82-39.79-.1-2.74-.81-4.64-2.11-5.64a4 4 0 0 0-3.05-.72c-6.65.24-9.06.25-10 .22-.29 1.21-1 5 1 7 .38 0 1.47-.07 4.08-.4 2.29-.3 3.79.32 4.07 1.69.044.312.044.628 0 .94-.4 5.14-.78 10.28-1.17 15.42l-1.58 21.28z"/><path fill="#1100A5" d="M121.571.92a10.52 10.52 0 0 0-.44 4.54c0 1.44 1.07 3.32 1.58 3.48a7.423 7.423 0 0 0-1.14-8.02z"/><path fill="#000" d="m122.981 9.55-.42-.14c-.84-.26-1.92-2.48-1.93-3.94a10.719 10.719 0 0 1 .47-4.72l.28-.75.56.58a7.997 7.997 0 0 1 1.22 8.57l-.18.4zm-1.21-7.54a10.804 10.804 0 0 0-.15 3.38c.064.954.378 1.875.91 2.67a6.725 6.725 0 0 0-.76-6.05z"/><path fill="#1100A5" d="m127.84 47.65.22.15c5.44 2.42 8.61-.2 8.61-.2a7.74 7.74 0 0 0-4.52-1.32 6.179 6.179 0 0 0-4.31 1.37z"/><path fill="#000" d="M132.531 49.33a11.449 11.449 0 0 1-4.67-1.08l-.8-.52.429-.43a6.563 6.563 0 0 1 4.581-1.52h.079a8.25 8.25 0 0 1 4.84 1.43l.48.38-.48.39a7.216 7.216 0 0 1-4.459 1.35zm-3.73-1.76a8.158 8.158 0 0 0 6.929 0 7.997 7.997 0 0 0-3.59-.83 6.345 6.345 0 0 0-3.339.83z"/><path fill="#000" d="M132.529 49.35a11.442 11.442 0 0 1-4.72-1.1l-.3-.19a.513.513 0 0 1-.22-.36.487.487 0 0 1 .15-.4 6.59 6.59 0 0 1 4.62-1.54h.09a8.29 8.29 0 0 1 4.89 1.45.5.5 0 0 1 .19.38.48.48 0 0 1-.19.39 7.298 7.298 0 0 1-4.51 1.37zm-3.79-1.78c3.52 1.42 6 .6 7 0a8.138 8.138 0 0 0-3.64-.85 6.31 6.31 0 0 0-3.36.85z"/><path fill="#023AEC" d="m122.711 8.94 5.58-.48s2.28.37 2.28 1.37-.28 3.39-.28 3.39l-2.5 34.43a4.46 4.46 0 0 1 2.53-1.15c1.29 0 1.61-36.34 1.61-36.34s.35-2.53-3.32-2.75a15.14 15.14 0 0 0-5.48.43l-.42 1.1z"/><path fill="#000" d="m127.24 48.88 2.59-35.69c0-.05.28-2.4.28-3.36 0-.31-.95-.72-1.8-.87L122 9.5l.78-2 .22-.08a15.55 15.55 0 0 1 5.68-.46 4.263 4.263 0 0 1 3.17 1.31c.455.562.674 1.28.61 2 0 0-.08 9.13-.31 18.11-.49 18.65-1.09 18.65-1.79 18.66a4 4 0 0 0-2.19 1l-.93.84zm1.11-40.92h.06c.45.07 2.7.5 2.7 1.86 0 1-.28 3.35-.29 3.45l-2.41 33.33a4.252 4.252 0 0 1 1.69-.6c.79-2.32 1.26-23 1.37-35.85a1.881 1.881 0 0 0-.41-1.32 3.332 3.332 0 0 0-2.44-.93 16.458 16.458 0 0 0-5.07.34l-.05.12 4.85-.4z"/><path fill="#FF532B" d="M126.31.86a10.387 10.387 0 0 1-2.72 8.06c1.17-.1 2.63-.4 4.05-.44a5 5 0 0 1 1.36.05c2.49-2.2 1.86-7.4 1.81-7.83-1.41-.02-2.98.05-4.5.16z"/><path fill="#000" d="m122.24 9.54 1-1c3.12-3.06 2.58-7.59 2.57-7.64l-.07-.52h.53c1.79-.12 3.27-.18 4.54-.16h.44v.44c.12 1 .59 6-2 8.27l-.22.19-.27-.1a4.24 4.24 0 0 0-1 0h-.22c-.844.042-1.685.129-2.52.26-.53.07-1 .14-1.5.18l-1.28.08zm4.61-8.22a10.998 10.998 0 0 1-2 6.95h.18c.85-.11 1.73-.23 2.62-.26h.21a6.76 6.76 0 0 1 1 0c1.75-1.78 1.62-5.47 1.51-6.8-1.03 0-2.2 0-3.52.11z"/><path fill="#FF532B" d="m130.351 12.21-.121 1.95c4.33 3.17 7.381 0 7.381 0V7.2c-.14.21-1.71 4.39-7 2.66-.13 1.47-.26 2.35-.26 2.35z"/><path fill="#000" d="M134.051 16.03a6.88 6.88 0 0 1-4.12-1.5l-.22-.16.15-2.27s.13-.85.21-2.3v-.65l.62.21c3.69 1.21 5.48-.59 6.32-2.3.029-.06.062-.116.1-.17l.77-1.12.13 1.35c.05.46.05.93.06 1.43v5.77l-.14.15a5.89 5.89 0 0 1-3.88 1.56zm-3.3-2.15c3.34 2.3 5.76.56 6.36 0V8.75a5.59 5.59 0 0 1-6.08 1.68c-.08 1-.16 1.62-.18 1.75l-.1 1.7z"/><path fill="#FF532B" d="m129.45 25.66-.11 1.9a6.248 6.248 0 0 0 7.9 0c0-1.82.25-3.53.22-4.94 0-.74.11-1.56.05-2.2-.14.21-2.55 3.88-7.83 2.15a124.1 124.1 0 0 1-.23 3.09z"/><path fill="#000" d="M133.29 29.46a7.071 7.071 0 0 1-4.25-1.5l-.22-.16.13-2.19s.14-1.57.23-3.06v-.65l.62.21c4.6 1.5 6.84-1.36 7.25-1.95l.77-1.13.14 1.35c.035.43.035.86 0 1.29v.95c0 .73 0 1.53-.1 2.37-.1.84-.12 1.69-.12 2.58v.22l-.17.15a7.08 7.08 0 0 1-4.28 1.52zm-3.44-2.15a5.761 5.761 0 0 0 6.89 0c0-.83.07-1.63.12-2.4.05-.77.12-1.6.1-2.28v-.86a7.002 7.002 0 0 1-6.84 1.46c-.08 1.23-.18 2.35-.19 2.45l-.08 1.63z"/><path fill="#FF532B" d="m128.239 40.44-.12 2.08a7.052 7.052 0 0 0 8.73.09c0-2 .18-3.94.14-5.48 0-.81.12-1.7.06-2.4-.16.22-2.71 3.92-8.48 2-.06 1.67-.33 3.71-.33 3.71z"/><path fill="#000" d="M132.571 44.57a7.868 7.868 0 0 1-4.71-1.65l-.22-.16.14-2.38s.24-2 .33-3.65v-.64l.62.2c5.25 1.72 7.65-1.48 7.9-1.84l.78-1.12.13 1.35c.04.466.04.934 0 1.4v1c0 .82 0 1.74-.06 2.72-.06.98-.08 1.82-.08 2.77v.23l-.17.15a8.001 8.001 0 0 1-4.66 1.62zm-3.9-2.3a6.508 6.508 0 0 0 7.73.09c0-.88 0-1.74.07-2.56 0-1 .08-1.87.06-2.66v-1.12c-1.22 1.07-3.66 2.45-7.5 1.4-.11 1.41-.27 2.9-.29 3.06l-.07 1.79z"/><path fill="#1100A5" d="m129.79 7.58-5.05-.07-1.15 1.41 5.41-.39c.349-.234.624-.564.79-.95z"/><path fill="#000" d="m122.461 9.5 2.05-2.5 5.92.09-.16.62a2.48 2.48 0 0 1-1 1.23l-.12.08-6.69.48zm2.52-1.49-.27.33 3.79-.28-3.52-.05z"/><path fill="#1100A5" d="m131.93 10.21-1.359-.33-.341 4.3a9.23 9.23 0 0 0 1.66 1"/><path fill="#000" d="M131.721 15.55a9.283 9.283 0 0 1-1.78-1l-.23-.16.41-5.16 1.92.47-.23 1-.78-.19-.28 3.42c.41.289.849.534 1.31.73l-.34.89z"/><path fill="#1100A5" d="m129.681 22.58 2 .43-.13 5.71a7.484 7.484 0 0 1-2.26-1.16l.39-4.98z"/><path fill="#000" d="m132.08 29.39-.63-.2a7.526 7.526 0 0 1-2.45-1.27l-.18-.16.41-5.85.59.19 2 .42.41.09-.15 6.78zm-2.23-2c.394.27.816.495 1.26.67l.11-4.59-1.08-.23-.29 4.15z"/><path fill="#1100A5" d="M131.3 37.29a15.549 15.549 0 0 1-2.68-.58l-.46 5.81a8.314 8.314 0 0 0 2.72 1.34l.42-6.57z"/><path fill="#000" d="m131.351 44.48-.58-.13a8.537 8.537 0 0 1-2.92-1.44l-.21-.16.53-6.78.65.29c.832.254 1.685.431 2.55.53l.46.06-.48 7.63zm-2.67-2.21a8.29 8.29 0 0 0 1.74.93l.35-5.48c-.45-.07-1.14-.19-1.7-.34l-.39 4.89z"/><path fill="#000" d="M127.791 48.15a.528.528 0 0 1-.27-.08.53.53 0 0 1-.23-.46l1.63-21.6 1.17-15.42a2.354 2.354 0 0 0 0-.66c-.23-1.12-2.15-1-3-.9-1.47.229-2.953.366-4.44.41a.608.608 0 0 1-.31-.13c-3-2.74-1.35-8.3-1.27-8.54a.487.487 0 0 1 .26-.3.532.532 0 0 1 .41 0c.45.07 6.4-.1 10-.23a4.927 4.927 0 0 1 3.78.91c1.55 1.19 2.39 3.34 2.51 6.41.26 7.38-.67 34.67-.85 40.07a.5.5 0 0 1-.28.42.49.49 0 0 1-.51 0 7.559 7.559 0 0 0-8.24 0l-.17.09a.528.528 0 0 1-.19.01zm4.35-2.38a9.442 9.442 0 0 1 4.11 1c.24-6.89 1.08-32.15.83-39.18-.1-2.74-.81-4.64-2.11-5.64a4 4 0 0 0-3.05-.72c-6.65.24-9.06.25-10 .22-.29 1.21-1 5 1 7 .38 0 1.47-.07 4.08-.4 2.29-.3 3.79.32 4.07 1.69.044.312.044.628 0 .94-.4 5.14-.78 10.28-1.17 15.42l-1.56 20.64a7.85 7.85 0 0 1 3.8-.97z"/><path fill="#A6EB71" d="M138.8 261.6c47.254 0 85.56-39.148 85.56-87.44 0-48.292-38.306-87.44-85.56-87.44-47.253 0-85.56 39.148-85.56 87.44 0 48.292 38.307 87.44 85.56 87.44z"/><path fill="#000" d="M138.81 262.1c-47.45 0-86.06-39.46-86.06-87.95s38.61-87.94 86.06-87.94 86 39.45 86 87.94c0 48.49-38.57 87.95-86 87.95zm0-174.89c-46.9 0-85.06 39-85.06 86.94s38.16 86.95 85.06 86.95c46.9 0 85-39 85-86.95s-38.1-86.94-85-86.94z"/><path fill="#1100A5" d="M172.24 186.98c-41.33-20.34-66.94.39-66.94.39-1.36 4.52-5.22 7.65-9.68 9.58-11.33 4.89-23.56-2.45-29.56-12.89a37.24 37.24 0 0 1-4.66-21.11c0-.24 3.94-.43 4.2-.45 12.74-.92 28.21.14 36.69 10.89a17.45 17.45 0 0 1 3.5 9.22c0-.21 1.91-1 2.08-1.09a51.904 51.904 0 0 1 6-2.45 68.674 68.674 0 0 1 9.68-2.46 74.986 74.986 0 0 1 12.95-1.17 83.963 83.963 0 0 1 15.9 1.44 91.482 91.482 0 0 1 8.95 2.11c2 .57 3.91 1.24 5.84 1.92.36.13 4.7 1.47 4.7 1.54a17.367 17.367 0 0 1 3.5-9.22c8.48-10.75 23.94-11.82 36.68-10.9.26 0 4.18.22 4.21.45a37.293 37.293 0 0 1-4.67 21.11c-6 10.45-18.22 17.78-29.56 12.89-4.38-1.89-8.18-5-9.6-9.34l-.21-.46z"/><path fill="#000" d="M88.02 199.03c-9.21 0-17.76-6.58-22.44-14.72a37.809 37.809 0 0 1-4.73-21.42c.06-.48.08-.63 4.45-.88h.22c18-1.31 30.19 2.32 37.11 11.08a17.997 17.997 0 0 1 3.52 8.65c.32-.16.73-.35 1.27-.58l.18-.08a52.125 52.125 0 0 1 6.1-2.47 67.783 67.783 0 0 1 9.75-2.48 75.661 75.661 0 0 1 13-1.18 85.195 85.195 0 0 1 16 1.45 91.85 91.85 0 0 1 9 2.12c2.07.59 4.18 1.33 5.88 1.93l1.14.36c1.46.46 2.37.75 2.95 1a17.933 17.933 0 0 1 3.55-8.84c6.91-8.76 19.05-12.39 37.11-11.09h.21c4.37.25 4.39.39 4.45.87a37.593 37.593 0 0 1-4.73 21.42c-6 10.41-18.26 18.25-30.18 13.1-3.59-1.54-8.21-4.47-9.89-9.65l-.13-.24c-39.1-19.16-64.23-1.14-66.15.32-1.65 5.22-6.29 8.17-9.91 9.74a19.53 19.53 0 0 1-7.73 1.59zm-26.21-35.72a36.918 36.918 0 0 0 4.64 20.5c5.75 10 17.54 17.59 28.92 12.68 3.47-1.5 7.91-4.32 9.4-9.27v-.14l.12-.1c.26-.21 26.33-20.69 67.47-.45l.15.07.32.61c1.59 4.89 6 7.65 9.36 9.11 11.38 4.92 23.17-2.66 28.93-12.67a36.779 36.779 0 0 0 4.63-20.5 34.562 34.562 0 0 0-3.55-.3h-.23c-17.7-1.28-29.56 2.23-36.25 10.71a16.911 16.911 0 0 0-3.39 8.88.165.165 0 0 1 0 .07h-.5l-.24.43c-.24-.11-2.32-.77-3.44-1.12l-1.17-.38c-2.14-.75-3.93-1.37-5.82-1.91-3-.85-6-1.56-8.9-2.1a83.82 83.82 0 0 0-15.8-1.43 74.866 74.866 0 0 0-12.88 1.16 67.715 67.715 0 0 0-9.6 2.45 50.209 50.209 0 0 0-6 2.42l-.21.09a9.642 9.642 0 0 0-1.69.84.43.43 0 0 0 .11-.32l-1 .07a16.89 16.89 0 0 0-3.4-9c-6.69-8.48-18.56-12-36.25-10.7h-.23c-2.23.13-3.14.2-3.5.3z"/><path fill="#7FFFAA" d="M90.74 246.61c-.07 2.4-.12 4.49-.16 6.3H79.82c.2-12.67.2-14.9.2-15.08l.34.33c.56.55 1.21 1.14 1.89 1.73l.06.06c3.66 3.26 8.43 6.66 8.43 6.66z"/><path fill="#000" d="M90.58 253.42H79.82a.508.508 0 0 1-.36-.15.54.54 0 0 1-.14-.36c.19-12.05.2-14.67.2-15.07a.489.489 0 0 1 .31-.46.49.49 0 0 1 .54.1l.33.32c.53.53 1.16 1.1 1.87 1.72a.34.34 0 0 1 .06.06c3.6 3.15 8.34 6.59 8.39 6.62a.517.517 0 0 1 .21.41c-.07 2.41-.12 4.5-.16 6.31a.51.51 0 0 1-.49.5zm-10.26-1h9.77c0-1.63.08-3.48.14-5.56-1-.71-5.06-3.73-8.25-6.53l-.07-.07c-.51-.44-1-.86-1.4-1.25-.02 1.64-.06 5.34-.19 13.41z"/><path fill="#7FFFAA" d="M185.68 252.92h11.76v-8.88a2.085 2.085 0 0 1 0-.25c0-1.06-.05-1.92-.09-2.63v-.29c0-1.54-.11-2.27-.15-2.61v-.31c-3.27 3.33-10.57 8.74-11.45 9.39h-.07v5.58z"/><path fill="#fff" d="M156.59 188.71c10 0 8.58 20.65-16.8 22.07h-1.15s-16.07-.33-19.29-7.67c-2.61-5.94 1-9.76 6.54-9.76a14.08 14.08 0 0 1 4.12.65 25.7 25.7 0 0 0 7.61 1.27c4.29 0 8.27-1.39 12.62-4.38a12.212 12.212 0 0 1 6.35-2.18"/><path fill="#000" d="M138.64 211.28c-.68 0-16.44-.43-19.75-8-1.56-3.55-.82-5.93.07-7.29 1.32-2 3.84-3.17 6.94-3.17 1.446.009 2.882.234 4.26.67a24.99 24.99 0 0 0 7.46 1.25c4.16 0 8.07-1.36 12.33-4.29a12.74 12.74 0 0 1 6.63-2.27c3.64 0 6.16 2.63 6.27 6.54.17 6.12-5.82 15.56-23 16.53l-1.21.03zm-12.74-17.43c-2.75 0-5 1-6.1 2.71-1.1 1.71-1.09 3.86 0 6.35 3.06 7 18.7 7.36 18.85 7.37h1.14c16.36-.92 22.23-10 22.07-15.5-.09-3.39-2.16-5.57-5.27-5.57-2.182.123-4.287.85-6.08 2.1-4.41 3-8.51 4.46-12.88 4.46a26.206 26.206 0 0 1-7.75-1.29 13.507 13.507 0 0 0-3.98-.63z"/><path fill="#26FF7D" d="M156.59 188.71c10 0 8.58 20.65-16.8 22.07h-1.151s-16.069-.33-19.289-7.67c-2.61-5.94.999-9.76 6.539-9.76 1.399.011 2.787.23 4.121.65a25.688 25.688 0 0 0 7.609 1.27c4.29 0 8.271-1.39 12.621-4.38a12.206 12.206 0 0 1 6.35-2.18m0-3.49a15.641 15.641 0 0 0-8.201 2.72l-.119.08c-3.79 2.61-7.071 3.77-10.641 3.77a22.072 22.072 0 0 1-6.579-1.12 17.718 17.718 0 0 0-5.15-.81c-4.11 0-7.55 1.65-9.43 4.53-1.88 2.88-1.94 6.4-.3 10.12 4 9.11 20.54 9.71 22.41 9.75H140c19.34-1.08 26.05-12.3 25.85-19.58-.16-5.56-4-9.45-9.25-9.45l-.01-.01z"/><path fill="#000" d="M139.791 214.76h-1.15c-2 0-18.81-.66-22.94-10-1.7-3.88-1.58-7.64.34-10.6 1.92-2.96 5.57-4.75 9.86-4.75a17.76 17.76 0 0 1 5.29.84 21.993 21.993 0 0 0 6.43 1.09c3.46 0 6.66-1.13 10.36-3.68l.13-.09a16.212 16.212 0 0 1 8.47-2.8c5.58 0 9.59 4.09 9.75 9.94.21 7.47-6.63 19-26.33 20.09l-.21-.04zm-13.89-24.4c-3.95 0-7.24 1.57-9 4.3-1.76 2.73-1.83 6.09-.26 9.65 3.87 8.82 20.12 9.41 22 9.45h1.38c19-1.06 25.58-12 25.38-19.06-.15-5.28-3.75-9-8.75-9a15.111 15.111 0 0 0-7.94 2.65l-.11.06c-3.87 2.67-7.24 3.86-10.92 3.86a22.745 22.745 0 0 1-6.73-1.14 16.994 16.994 0 0 0-5.05-.77zm12.74 20.92c-.68 0-16.44-.43-19.75-8-1.56-3.55-.82-5.93.07-7.29 1.32-2 3.84-3.17 6.94-3.17 1.445.009 2.881.234 4.26.67a24.99 24.99 0 0 0 7.46 1.25c4.16 0 8.07-1.36 12.33-4.29a12.734 12.734 0 0 1 6.63-2.27c3.64 0 6.16 2.63 6.27 6.54.17 6.12-5.82 15.56-23 16.53l-1.21.03zm-12.74-17.43c-2.75 0-5 1-6.1 2.71-1.1 1.71-1.09 3.86 0 6.35 3.06 7 18.7 7.36 18.85 7.37h1.14c16.36-.92 22.23-10 22.07-15.5-.09-3.39-2.16-5.57-5.27-5.57-2.182.123-4.287.85-6.08 2.1-4.41 3-8.51 4.46-12.88 4.46a26.195 26.195 0 0 1-7.75-1.29 13.513 13.513 0 0 0-3.98-.63z"/><path fill="#000" d="M151.48 208.55h-1c.108-5.85-.139-11.7-.74-17.52l1-.11a143.17 143.17 0 0 1 .74 17.63z"/><path fill="#000" d="M139.791 214.82h-1.15c-2 0-18.81-.66-22.94-10.05-1.7-3.88-1.58-7.65.34-10.6 1.92-2.95 5.57-4.75 9.86-4.75 1.795.011 3.578.291 5.29.83a21.732 21.732 0 0 0 6.43 1.1c3.46 0 6.66-1.13 10.36-3.68l.13-.09a16 16 0 0 1 8.47-2.8c5.58 0 9.59 4.09 9.75 9.94.21 7.47-6.63 19-26.33 20.09l-.21.01zm-13.89-24.4c-3.95 0-7.24 1.57-9 4.3-1.76 2.73-1.83 6.09-.26 9.65 3.87 8.82 20.12 9.41 22 9.45h1.38c19-1.06 25.58-12 25.38-19.07-.15-5.27-3.75-9-8.75-9a15.088 15.088 0 0 0-7.94 2.64l-.11.07c-3.87 2.67-7.24 3.86-10.92 3.86a22.745 22.745 0 0 1-6.73-1.14 17.02 17.02 0 0 0-5.05-.76zm12.74 20.92c-.68 0-16.44-.43-19.75-8-1.56-3.55-.82-5.93.07-7.29 1.32-2 3.84-3.18 6.94-3.18 1.446.012 2.882.241 4.26.68 2.41.788 4.924 1.21 7.46 1.25 4.16 0 8.07-1.36 12.33-4.29a12.76 12.76 0 0 1 6.63-2.28c3.64 0 6.16 2.64 6.27 6.55.17 6.12-5.82 15.56-23 16.53l-1.21.03zm-12.74-17.44c-2.75 0-5 1-6.1 2.72-1.1 1.72-1.09 3.86 0 6.35 3.06 7 18.7 7.36 18.85 7.37h1.14c16.36-.92 22.22-10 22.07-15.5-.09-3.39-2.16-5.58-5.27-5.58-2.184.123-4.29.854-6.08 2.11-4.41 3-8.51 4.46-12.88 4.46a26.195 26.195 0 0 1-7.75-1.29 13.518 13.518 0 0 0-3.98-.64z"/><path fill="#000" d="M125.241 208.43a55.171 55.171 0 0 1 1-15.11l1 .23a54.176 54.176 0 0 0-1 14.81l-1 .07zm8.679 2.12a55.049 55.049 0 0 1 .24-15c0-.24.06-.4.06-.46h1a5.45 5.45 0 0 1-.07.61 54.774 54.774 0 0 0-.24 14.71l-.99.14zm8.26.04c-.05-3.46-.44-15.69-.45-15.81h1c0 .12.4 12.36.45 15.82l-1-.01zm16.68-6.75-1-.09c.61-6.67-2.56-14.72-2.59-14.8l.929-.37c.13.34 3.291 8.35 2.661 15.26z"/><path fill="#FFFFDB" d="M83.24 107.52s30.77-4.13 30.33 9c0 0 21.33-15.55 47.33 2.45 0 0 12.67-12.22 36.67-8.67 0 0-55-46-104.3-10.31l-10.03 7.53z"/><path fill="#000" d="m160.949 119.59-.33-.23c-25.4-17.58-46.55-2.61-46.76-2.45l-.83.6v-1a6.153 6.153 0 0 0-2.12-5c-6.82-6.16-27.44-3.48-27.65-3.45l-1.89.25 11.56-8.7c25.63-18.54 52.8-14.74 71.09-8.28a121.988 121.988 0 0 1 33.83 18.61l1.36 1.14-1.75-.26c-23.46-3.48-36.13 8.41-36.25 8.53l-.26.24zm-25.87-9.78c7.47 0 16.34 2.06 25.78 8.5 2-1.75 14.14-11.22 35-8.77a123.387 123.387 0 0 0-32.16-17.33c-18.05-6.36-44.87-10.12-70.13 8.16L85 106.81c5.33-.53 20.62-1.51 26.62 3.91a7.114 7.114 0 0 1 2.43 4.86 41.186 41.186 0 0 1 21.03-5.77z"/><path fill="#fff" d="M73.11 136.11a5.073 5.073 0 0 1-2.57-.68 5.214 5.214 0 0 1-2.636-5.172c.082-.682.298-1.34.636-1.938 5.07-9 14.27-17.87 14.66-18.25a5.219 5.219 0 0 1 7.38.13 5.22 5.22 0 0 1-.12 7.38c-.09.09-8.52 8.28-12.84 15.89a5.207 5.207 0 0 1-4.51 2.64z"/><path fill="#000" d="M73.11 136.61a5.677 5.677 0 0 1-2.82-.74 5.729 5.729 0 0 1-2.161-7.8c5.1-9 14.36-18 14.75-18.36a5.74 5.74 0 0 1 8.09.14 5.729 5.729 0 0 1-.14 8.09c-.08.08-8.45 8.2-12.74 15.77a5.74 5.74 0 0 1-4.98 2.9zm13.75-27.5a4.71 4.71 0 0 0-3.28 1.32c-.39.37-9.55 9.27-14.58 18.13a4.74 4.74 0 0 0 1.78 6.44 4.777 4.777 0 0 0 4.72-.029 4.722 4.722 0 0 0 1.74-1.761c4.36-7.7 12.83-15.91 12.92-16a4.728 4.728 0 0 0 .12-6.67 4.74 4.74 0 0 0-3.42-1.43z"/><path fill="#fff" d="M67.76 147.06a5.31 5.31 0 1 0 0-10.62 5.31 5.31 0 0 0 0 10.62z"/><path fill="#000" d="M67.761 147.55a5.812 5.812 0 0 1-5.8-5.81 5.8 5.8 0 0 1 5.8-5.8 5.811 5.811 0 0 1 5.81 5.8 5.808 5.808 0 0 1-5.81 5.81zm0-10.61a4.803 4.803 0 0 0-4.435 2.963 4.805 4.805 0 0 0 1.04 5.235 4.815 4.815 0 0 0 3.395 1.412 4.82 4.82 0 0 0 4.81-4.81 4.81 4.81 0 0 0-4.81-4.8z"/><path fill="#fff" d="M166.581 183.7a12.802 12.802 0 0 1-4.431 8s3.881 3.33 4.431 6.47c0 0 1.48-5.45 3-6-.04.04-3.18-4.5-3-8.47z"/><path fill="#000" d="M166.58 198.7a.492.492 0 0 1-.309-.127.496.496 0 0 1-.161-.293c-.52-2.93-4.23-6.14-4.27-6.17a.525.525 0 0 1-.17-.37.494.494 0 0 1 .17-.38 12.439 12.439 0 0 0 4.26-7.69.488.488 0 0 1 .53-.47.49.49 0 0 1 .47.52c-.17 3.75 2.84 8.15 2.87 8.19a.505.505 0 0 1 .07.43.498.498 0 0 1-.31.32c-.85.32-2.06 3.51-2.64 5.67a.497.497 0 0 1-.51.37zm-3.69-7a16.996 16.996 0 0 1 3.68 4.8c.5-1.51 1.32-3.61 2.28-4.47a20.13 20.13 0 0 1-2.45-5.55 14.161 14.161 0 0 1-3.51 5.25v-.03z"/><path fill="#fff" d="M74.24 163.21s10.29 27.69 7.62 33.92c0 0 4.78 2 8.22 0 0 0 2.12-16-9.38-33.55l-6.46-.37z"/><path fill="#000" d="M86.45 198.47a13.712 13.712 0 0 1-4.74-.93.498.498 0 0 1-.27-.28.5.5 0 0 1 0-.38c2.56-6-7.53-33.27-7.63-33.55a.49.49 0 0 1 .06-.47.593.593 0 0 1 .44-.2l6.45.37a.478.478 0 0 1 .39.23c11.47 17.48 9.49 33.72 9.47 33.88a.52.52 0 0 1-.24.37 7.803 7.803 0 0 1-3.93.96zm-3.91-1.69c1.19.4 4.54 1.32 7.12 0 .19-2.07 1.14-16.84-9.2-32.74l-5.45-.32c1.59 4.36 9.43 26.49 7.53 33.06z"/><path fill="#fff" d="M182.461 167.89s7.94 23 5.28 29.26c0 0 4.93 1.11 8.37-.89 0 0 3.66-13.34-7.84-30.87l-5.81 2.5z"/><path fill="#000" d="M190.901 197.96a16.698 16.698 0 0 1-3.27-.32.496.496 0 0 1-.34-.26.5.5 0 0 1 0-.43c2.56-6-5.22-28.67-5.29-28.89a.5.5 0 0 1 .27-.63l5.81-2.5a.509.509 0 0 1 .62.19c11.49 17.51 7.94 31.14 7.91 31.27a.499.499 0 0 1-.23.3 11 11 0 0 1-5.48 1.27zm-2.5-1.2c1.33.21 4.72.55 7.28-.83.37-1.7 2.62-14.11-7.6-29.91l-5 2.15c1.08 3.22 7.26 22.04 5.32 28.59z"/><path fill="#0139F2" d="M171.811 254.85c30.87-13.2 52.55-44.36 52.55-80.7a88.01 88.01 0 0 0-33.76-69.61s37.07 48.64 24 88.9c-13.07 40.26-42.79 61.41-42.79 61.41z"/><path fill="#000" d="M138.64 262.1c-47.45 0-86.05-39.46-86.05-87.95s38.65-87.94 86.05-87.94 86.06 39.45 86.06 87.94c0 48.49-38.61 87.95-86.06 87.95zm0-174.89c-46.9 0-85.05 39-85.05 86.94s38.15 86.95 85.05 86.95 85.06-39 85.06-86.95-38.16-86.94-85.06-86.94z"/><path fill="#7FFFAA" d="M50.73 186.8a81.475 81.475 0 0 0-24.14 3.59l-.42.13a52.133 52.133 0 0 0-9.35 4.07c-5.62 3.15-10.87 7.54-13.84 13.37-3.11 6.08-3.72 13.91.83 19.46.373.448.77.875 1.19 1.28a15.07 15.07 0 0 0 2.52 1.92c9 5.5 21.77 3.31 30.62-1.35 9.34-4.93 16.7-12.93 23.26-21 6.34-7.84 5.42-10.67 6-12.92.44-1.71 2-3.24 2-5.06a2.442 2.442 0 0 0-.35-1.24 2.458 2.458 0 0 0-1.67-1.11 2.107 2.107 0 0 0-2 .85.222.222 0 0 0-.05.08 9.743 9.743 0 0 0-.73 1.25c-.21.4-.42.81-.62 1.22-.29.57-.56 1.15-.86 1.7l-2.83-1.55c.07-2.66 1.3-4.89 1.85-7.42.45-2.05-1.1-4.05-3.37-3.31a4.238 4.238 0 0 0-2.23 2.51 22.149 22.149 0 0 0-1.53 7.17 18.122 18.122 0 0 1 .55-5.43c.24-1.22 1.23-4.41-1.28-3.39-3.16 1.28-4.08 7.53-4.66 10.26 0 .13-.06.26-.08.39-.81 3.86-.95 8.33-3.45 11.56a36.376 36.376 0 0 1-5.46 5.28c-4 3.43-8.18 7-13.37 8.39-3.07.82-8.42 1.4-9.59-2.55-.9-3.05 1.68-6.71 3.75-8.72 5-4.87 11.82-7.53 18.56-9a57.59 57.59 0 0 1 8.91-1.29"/><path fill="#000" d="M20.16 234.34a24.653 24.653 0 0 1-12.9-3.29 15.595 15.595 0 0 1-2.61-2 15.428 15.428 0 0 1-1.23-1.33c-5-6.15-3.769-14.37-.889-20 2.71-5.31 7.44-9.87 14.05-13.58a52.947 52.947 0 0 1 9.44-4.1l.42-.14a81.733 81.733 0 0 1 23.92-3.61c.74-2.29 1.85-4.44 3.69-5.19a1.728 1.728 0 0 1 1.85.06 1.504 1.504 0 0 1 .49 1.13 3.998 3.998 0 0 1 2.17-2.06 2.995 2.995 0 0 1 3 .57 3.464 3.464 0 0 1 1 3.32c-.225.95-.5 1.888-.82 2.81a16.434 16.434 0 0 0-1 4.22l2.11 1.16.33-.65.29-.6.63-1.22.11-.22c.193-.38.41-.747.65-1.1l.07-.09a2.627 2.627 0 0 1 2.52-1 2.994 2.994 0 0 1 2 1.34c.275.456.423.977.43 1.51a6.78 6.78 0 0 1-1.13 3.25 8.233 8.233 0 0 0-.88 1.93c-.106.437-.18.882-.22 1.33-.27 2.13-.67 5.34-5.88 11.78-6.15 7.6-13.74 16.07-23.42 21.17a40.304 40.304 0 0 1-18.19 4.6zm29.901-47a80.165 80.165 0 0 0-23.32 3.56l-.41.13a51.588 51.588 0 0 0-9.26 4c-6.44 3.61-11 8-13.65 13.17-2.73 5.35-4 13.13.78 18.91.36.435.743.849 1.15 1.24.74.703 1.555 1.324 2.43 1.85 8.81 5.38 21.48 3.19 30.12-1.36 9.53-5 17-13.39 23.11-20.92 5-6.22 5.4-9.14 5.66-11.27.055-.491.139-.978.25-1.46.243-.761.58-1.49 1-2.17a5.942 5.942 0 0 0 1-2.76 2 2 0 0 0-.28-1 2.008 2.008 0 0 0-1.32-.88 1.614 1.614 0 0 0-1.57.66c-.234.316-.441.65-.62 1l-.12.22-.62 1.2-.29.59c-.18.38-.37.76-.57 1.13l-.24.44-.44-.24-2.83-1.55-.27-.15v-.31a16.786 16.786 0 0 1 1.07-4.81 26.4 26.4 0 0 0 .79-2.7 2.467 2.467 0 0 0-.67-2.37 2.007 2.007 0 0 0-2.06-.36 3.824 3.824 0 0 0-1.92 2.24 21.672 21.672 0 0 0-1.49 7h-1a17.698 17.698 0 0 1 .5-5.35l.05-.23c0-.13.06-.29.1-.46.13-.6.49-2.18.13-2.48-.08-.08-.35-.08-.83.11-2.6 1.06-3.63 6.22-4.18 9-.06.33-.12.64-.18.91l-.08.39c-.19.88-.33 1.79-.48 2.7-.52 3.18-1.06 6.47-3.06 9.07a33.454 33.454 0 0 1-4.95 4.86l-.58.49c-4.05 3.49-8.25 7.09-13.57 8.5-2 .54-8.77 1.92-10.2-2.89-1.19-4 3-8.39 3.88-9.22 4.45-4.32 10.78-7.39 18.8-9.12a58.444 58.444 0 0 1 8.59-1.27c0-.19.07-.39.1-.58.15-.93.3-1.85.49-2.74l.08-.4c.06-.26.12-.57.18-.89.2-.96.45-2.2.8-3.46v.03zm-1.82 9.15a58.485 58.485 0 0 0-8.21 1.24c-7.83 1.69-14 4.67-18.32 8.85-2.16 2.1-4.41 5.52-3.61 8.22 1.17 4 7.17 2.69 9 2.21 5.1-1.35 9.21-4.88 13.18-8.29l.58-.49a33.494 33.494 0 0 0 4.81-4.71 15.84 15.84 0 0 0 2.57-7.06v.03z"/><path fill="#FFA219" d="M134.81 45.13S96.48 42.47 94.98 88.8c0 0-3.84 4 0 7.33s87.5 21.5 105.66 6.67V91.3s-1-11.28-31.33-14.47c0 0-1.5-30.7-34.5-31.7z"/><path fill="#000" d="M172.929 109.07a242.995 242.995 0 0 1-30.56-2.3c-23.35-3.06-45.58-8.4-47.72-10.26a5 5 0 0 1-1.87-3.55 6.69 6.69 0 0 1 1.7-4.36c.53-15.23 5.07-26.8 13.49-34.41 11.48-10.36 26.36-9.59 26.86-9.56 30.93.94 34.59 28 34.95 31.74 30 3.26 31.32 14.41 31.36 14.88v11.79l-.18.15c-5.37 4.38-16.01 5.88-28.03 5.88zm-39.16-63.46c-3.53 0-15.56.67-25.14 9.33-8.24 7.45-12.67 18.85-13.15 33.87v.2l-.13.13a5.91 5.91 0 0 0-1.56 3.78 4.001 4.001 0 0 0 1.53 2.83c3.22 2.81 86.24 21.42 104.83 6.81V91.3c0-.06-1.44-10.88-30.88-14h-.43v-.43c0-.3-1.87-30.24-34-31.22 0 0-.44-.04-1.07-.04z"/><path fill="#000" d="m168.179 82-.9-.44a15.168 15.168 0 0 0 1.53-4.78l1 .09a15.986 15.986 0 0 1-1.63 5.13zm-38.629 20.13-.111-1a92.332 92.332 0 0 0 11.341-2l.24 1a92.481 92.481 0 0 1-11.47 2zm22.51-5.77-.421-.91a38.251 38.251 0 0 0 9.611-6.12l.669.74a39.218 39.218 0 0 1-9.859 6.29zm-33.361 6.51v-1c1.76 0 3.5-.13 5.19-.24l.07 1c-1.72.11-3.48.19-5.26.24z"/><path fill="#0139F2" d="M200.64 91.3s.4 11.08-57.72 15c0 0 42.67 7.07 57.72-3.54V91.3z"/><path fill="#000" d="M171.579 109.21a195.229 195.229 0 0 1-28.74-2.35l-4.23-.7 4.28-.29c56.14-3.82 57.24-14.34 57.25-14.54h1v11.78l-.21.15c-6.59 4.59-18.22 5.95-29.35 5.95zm-24-2.68c11.35 1.44 40.58 4.18 52.52-4v-9.11c-2.73 3.42-13.19 9.97-52.48 13.08l-.04.03z"/><path fill="#000" d="M172.929 109.07a242.995 242.995 0 0 1-30.56-2.3c-23.35-3.06-45.58-8.4-47.72-10.26a5 5 0 0 1-1.87-3.55 6.69 6.69 0 0 1 1.7-4.36c.53-15.23 5.07-26.8 13.49-34.41 11.48-10.36 26.36-9.59 26.86-9.56 30.93.94 34.59 28 34.95 31.74 30 3.26 31.32 14.41 31.36 14.88v11.79l-.18.15c-5.37 4.38-16.01 5.88-28.03 5.88zm-39.16-63.46c-3.53 0-15.56.67-25.14 9.33-8.24 7.45-12.67 18.85-13.15 33.87v.2l-.13.13a5.91 5.91 0 0 0-1.56 3.78 4.001 4.001 0 0 0 1.53 2.83c3.22 2.81 86.24 21.42 104.83 6.81V91.3c0-.06-1.44-10.88-30.88-14h-.43v-.43c0-.3-1.87-30.24-34-31.22 0 0-.44-.04-1.07-.04z"/><path fill="#7FFFAA" d="M222.911 189.29c.48.33 6.86 3 7.55 3.35a62.562 62.562 0 0 1 20.78 14.57c3.55 3.87 7.16 8.39 8.16 13.73a12.885 12.885 0 0 1-.775 7.518 12.882 12.882 0 0 1-4.855 5.792c-3.52 2.31-7.9 2.61-12 2.18a40.92 40.92 0 0 1-29.12-17.57c-.52-.76-1-1.52-1.54-2.29-2.16-3.29-5-6.71-6.58-10.28-1-2.15-1.45-4.49-2.37-6.66-.5-1.17-.77-3 .17-4 2-2.13 4.3 2.12 4.92 3.28l2.17-1.61a21.642 21.642 0 0 0-.84-8.17c-.45-1.7-.58-5.91 2.49-4.48 2.14 1 2.26 4.72 2.35 6.65 0 0 .83-3.67-.39-5.83-.58-1-.95-3.11.09-4 1.36-1.19 2.86.73 3.2 1.91.353 1.601.387 3.256.1 4.87-.67 5.11 3.44 9.16 3.33 18.16a79.503 79.503 0 0 0 6.62 8.27 39.631 39.631 0 0 0 7.49 6.86c2.12 1.39 6.31 3.17 9.23 2 3.44-1.33.89-6.81-1.1-9.4-4.59-6-11.29-9.6-17.6-13.45-.33-.2-3.66-2-3.63-2.09.03-.09 1.79-7.46 2.15-9.31z"/><path fill="#000" d="M244.791 237.08a29.18 29.18 0 0 1-3-.16 41.464 41.464 0 0 1-29.55-17.79c-.53-.75-1-1.52-1.55-2.29-.64-1-1.34-2-2-3a47.077 47.077 0 0 1-4.58-7.38 32.119 32.119 0 0 1-1.28-3.56c-.33-1-.66-2.11-1.09-3.11-.43-1-.94-3.29.26-4.55a2.075 2.075 0 0 1 1.83-.73c1.48.2 2.74 2 3.62 3.61l1.54-1.14c.17-2.62-.118-5.249-.85-7.77-.25-.93-.67-3.85.68-5a2.203 2.203 0 0 1 2.5-.07 3.01 3.01 0 0 1 1 .7c-.42-1.27-.451-2.95.549-3.81a1.822 1.822 0 0 1 1.76-.42 3.987 3.987 0 0 1 2.25 2.58 12.7 12.7 0 0 1 .111 5.06c-.29 2.27.42 4.38 1.25 6.84a31.086 31.086 0 0 1 2.09 11.11 80.585 80.585 0 0 0 6.49 8.09 39.603 39.603 0 0 0 7.39 6.78c1.79 1.17 5.92 3.09 8.78 2 .305-.103.581-.28.801-.515a1.95 1.95 0 0 0 .459-.835c.52-1.86-.94-5.14-2.58-7.28-4-5.23-9.77-8.69-15.33-12l-2.13-1.29-.8-.44c-3.16-1.73-3.16-1.74-3.05-2.2.3-1.26 1.77-7.6 2.1-9.27l.15-.74.62.42c.38.25 4.73 2.12 6.37 2.82l1.1.48a63.29 63.29 0 0 1 21 14.68c3.51 3.83 7.25 8.48 8.28 14a13.302 13.302 0 0 1-5.84 13.82 16.717 16.717 0 0 1-9.35 2.36zm-41.22-41.56a1.157 1.157 0 0 0-.84.44c-.7.73-.57 2.3-.07 3.47a32.944 32.944 0 0 1 1.12 3.2 31.836 31.836 0 0 0 1.24 3.44 46.963 46.963 0 0 0 4.48 7.23c.71 1 1.42 2 2.07 3 .5.76 1 1.52 1.53 2.27a40.48 40.48 0 0 0 28.76 17.36c4.83.51 8.76-.19 11.67-2.1a12.308 12.308 0 0 0 5.41-12.79c-1-5.26-4.62-9.77-8-13.49a62.427 62.427 0 0 0-20.7-14.46l-1.1-.47c-2.83-1.22-4.89-2.11-5.89-2.59-.46 2.13-1.55 6.85-1.91 8.39.52.32 1.81 1 2.49 1.4l.84.47 2.13 1.28c5.64 3.39 11.47 6.9 15.6 12.28 1.28 1.67 3.5 5.51 2.75 8.16a2.905 2.905 0 0 1-1.86 2c-3.24 1.25-7.75-.81-9.69-2.08a40.433 40.433 0 0 1-7.59-6.94 81.861 81.861 0 0 1-6.65-8.32l-.09-.13v-.16a30.166 30.166 0 0 0-2-10.94c-.86-2.57-1.61-4.79-1.29-7.29a12.022 12.022 0 0 0-.09-4.66 3.014 3.014 0 0 0-1.56-1.89.83.83 0 0 0-.83.21c-.77.67-.5 2.45 0 3.38 1.31 2.31.48 6 .45 6.19l-.831 3.63-.169-3.83c-.08-1.83-.23-5.25-2.05-6.1-.64-.3-1.13-.33-1.43-.07-.72.61-.7 2.72-.36 4a22.128 22.128 0 0 1 .84 8.38v.2l-2.8 2.08-.271-.51c-1.226-2.28-2.276-3.48-3.149-3.6l-.16-.04z"/><path fill="#0139F2" d="m221.071 197.46 1.84-8.17a138.08 138.08 0 0 1 16.42 8.06 16.806 16.806 0 0 0-6.89 8.31 117.782 117.782 0 0 0-11.64-7l.27-1.2z"/><path fill="#000" d="M244.791 237.08a29.18 29.18 0 0 1-3-.16 41.464 41.464 0 0 1-29.55-17.79c-.53-.75-1-1.52-1.55-2.29-.64-1-1.34-2-2-3a47.077 47.077 0 0 1-4.58-7.38 32.119 32.119 0 0 1-1.28-3.56c-.33-1-.66-2.11-1.09-3.11-.43-1-.94-3.29.26-4.55a2.075 2.075 0 0 1 1.83-.73c1.48.2 2.74 2 3.62 3.61l1.54-1.14c.17-2.62-.118-5.249-.85-7.77-.25-.93-.67-3.85.68-5a2.203 2.203 0 0 1 2.5-.07 3.01 3.01 0 0 1 1 .7c-.42-1.27-.451-2.95.549-3.81a1.822 1.822 0 0 1 1.76-.42 3.987 3.987 0 0 1 2.25 2.58 12.7 12.7 0 0 1 .111 5.06c-.29 2.27.42 4.38 1.25 6.84a31.086 31.086 0 0 1 2.09 11.11 80.585 80.585 0 0 0 6.49 8.09 39.603 39.603 0 0 0 7.39 6.78c1.79 1.17 5.92 3.09 8.78 2 .305-.103.581-.28.801-.515a1.95 1.95 0 0 0 .459-.835c.52-1.86-.94-5.14-2.58-7.28-4-5.23-9.77-8.69-15.33-12l-2.13-1.29-.8-.44c-3.17-1.73-3.16-1.74-3.05-2.2.3-1.26 1.77-7.6 2.1-9.27a.538.538 0 0 1 .3-.37.514.514 0 0 1 .47 0c.38.25 4.73 2.12 6.37 2.82l1.1.48a63.29 63.29 0 0 1 21 14.68c3.51 3.83 7.25 8.48 8.28 14a13.302 13.302 0 0 1-5.84 13.82 16.712 16.712 0 0 1-9.35 2.41zm-41.22-41.56a1.157 1.157 0 0 0-.84.44c-.7.73-.57 2.3-.07 3.47a32.944 32.944 0 0 1 1.12 3.2 31.836 31.836 0 0 0 1.24 3.44 46.963 46.963 0 0 0 4.48 7.23c.71 1 1.42 2 2.07 3 .5.76 1 1.52 1.53 2.27a40.48 40.48 0 0 0 28.76 17.36c4.83.51 8.76-.19 11.67-2.1a12.308 12.308 0 0 0 5.41-12.79c-1-5.26-4.62-9.77-8-13.49a62.427 62.427 0 0 0-20.7-14.46l-1.1-.47c-2.83-1.22-4.89-2.11-5.89-2.59-.46 2.13-1.55 6.85-1.91 8.39.52.32 1.81 1 2.49 1.4l.84.47 2.13 1.28c5.64 3.39 11.47 6.9 15.6 12.28 1.28 1.67 3.5 5.51 2.75 8.16a2.905 2.905 0 0 1-1.86 2c-3.24 1.25-7.75-.81-9.69-2.08a40.433 40.433 0 0 1-7.59-6.94 81.861 81.861 0 0 1-6.65-8.32.52.52 0 0 1-.09-.29 30.166 30.166 0 0 0-2-10.94c-.86-2.57-1.61-4.79-1.29-7.29a12.022 12.022 0 0 0-.09-4.66 3.014 3.014 0 0 0-1.56-1.89.83.83 0 0 0-.83.21c-.77.67-.5 2.45 0 3.38 1.31 2.31.48 6 .45 6.19a.502.502 0 0 1-.99-.09v-.08c-.08-1.83-.23-5.25-2.05-6.1-.64-.3-1.13-.33-1.43-.07-.72.61-.701 2.72-.361 4 .814 2.714 1.1 5.559.841 8.38a.512.512 0 0 1-.19.32l-2.17 1.61a.494.494 0 0 1-.41.09.492.492 0 0 1-.33-.25c-1.227-2.28-2.277-3.48-3.15-3.6l-.14-.07z"/><path fill="#0139F2" d="M185.681 252.92h2.49c2.36-1.39 6-3.14 9.23-3h.1l-.17-3.86v-.22l-.34-7.44-.8.66-.14.12h-.06l-.37.3-.15.13-1.1.88-.13.11-.08.07c-1.87 1.51-4.31 3.47-6.3 5-.46.33-.9.68-1.37 1-.15.09-.28.19-.41.28a4.847 4.847 0 0 1-.48.31.23.23 0 0 1-.08.05h-.07v1.25c-.005.09-.005.18 0 .27v3.57l.23.52z"/><path fill="#000" d="m197.949 253.42-12.5-.06-.36-.1-.13-4.34a2.805 2.805 0 0 1 0-.29v-1.16l.24-.23c.09-.06 1.13-.84 2.69-2l.17-.12.33-.25.09-.06c.059-.052.123-.099.19-.14 2.71-2.12 4.91-3.94 6.5-5.37l.17-.15c.47-.43.92-.87 1.31-1.27l.15-.14h.64l.08.5c.137.867.204 1.743.2 2.62a2.255 2.255 0 0 0 0 .26c0 .73.06 1.59.09 2.66v9.17l.14.47zm-11.9-1h10.88v-8.41a1.738 1.738 0 0 1 0-.25c0-1-.06-1.91-.09-2.61v-.31c0-.71-.06-1.21-.09-1.57l-.63.6-.14.11c-1.62 1.47-3.84 3.3-6.61 5.46l-.16.11-.08.07-.33.25-.21.15c-1.09.84-2.07 1.57-2.49 1.89v.93l-.05 3.58z"/></g><defs><clipPath id="a"><path fill="#fff" d="M0 0h260.16v262.1H0z"/></clipPath></defs></svg>