<svg width="264" height="265" viewBox="0 0 264 265" fill="none" xmlns="http://www.w3.org/2000/svg">
<g clip-path="url(#clip0_124_4078)">
<path d="M73.32 178.22C72.004 179.409 70.7554 180.671 69.5801 182C64.7912 187.536 60.6104 193.571 57.1098 200C56.7898 200.57 56.4598 201.13 56.1098 201.69C55.4998 202.78 54.87 203.87 54.25 204.97C52.95 207.27 51.6599 209.57 50.4399 211.91C48.4399 215.76 46.5098 219.72 44.8398 223.72C43.46 227.294 42.6567 231.064 42.4599 234.89C42.3499 236.21 41.8298 239.69 43.3698 240.48C45.5598 241.6 46.9299 244.76 49.7199 246.95C50.482 247.529 50.9835 248.387 51.1147 249.335C51.2459 250.284 50.996 251.245 50.4199 252.01C48.9599 253.49 45.09 252.25 43.74 250.66C43.5155 250.379 43.2606 250.124 42.98 249.9C42.8971 249.841 42.8006 249.804 42.6994 249.792C42.5983 249.781 42.4958 249.795 42.4018 249.834C42.3078 249.873 42.2254 249.936 42.1621 250.015C42.0988 250.095 42.0567 250.19 42.04 250.29C41.8 251.779 41.4422 253.247 40.9699 254.68C40.3199 256.6 40.35 258.68 39.75 260.68C39.36 261.94 38.6899 263.95 37.1999 264.28C34.3099 264.89 34.4499 262.28 34.4499 262.28C34.4499 260.39 34.4499 258.15 33.4499 256.48C32.8699 255.48 31.6199 254.39 30.4499 254.96C29.9769 255.221 29.5832 255.604 29.31 256.07C28.11 258.01 27.5799 265.28 23.6399 262.65C21.1499 261 24.5699 253.55 23.1899 252.14C21.8099 250.73 17.49 261.01 15.07 257.42C12.65 253.83 18.39 250.22 19.75 244.8C20.218 242.762 20.8227 240.757 21.56 238.8C23.14 234.74 24.7699 231.18 25.8999 227.16C26.3899 225.44 26.8999 223.73 27.4499 222.03C29.9298 214.386 33.096 206.983 36.9099 199.91C38.0166 197.857 39.1799 195.833 40.3999 193.84C42.0699 191.1 43.8399 188.41 45.7099 185.84C46.4399 184.84 47.1899 183.78 47.9499 182.77C51.1816 178.444 54.6782 174.323 58.4199 170.43C60.9199 167.86 63.53 165.43 66.27 163.07C67.27 162.25 68.4098 161.53 69.3398 160.64C69.407 160.579 69.481 160.525 69.56 160.48L69.6198 160.98C69.6198 161.09 69.6199 161.21 69.6699 161.33C69.7299 161.83 69.7998 162.33 69.8698 162.82C69.865 162.9 69.865 162.98 69.8698 163.06C69.9198 163.45 69.98 163.84 70.04 164.24C70.04 164.44 70.0999 164.64 70.1399 164.84C70.8612 169.197 71.8633 173.502 73.1399 177.73C73.2199 177.91 73.27 178.07 73.32 178.22Z" fill="#FFE961"/>
<path d="M73.32 178.22C73.27 178.07 73.2199 177.91 73.1799 177.75C71.7934 178.988 70.4812 180.307 69.2499 181.7C64.4229 187.251 60.2178 193.314 56.7099 199.78L56.08 200.88L55.7499 201.47L54.82 203.1C54.5 203.65 54.1898 204.2 53.8798 204.75C52.5598 207.09 51.28 209.39 50.06 211.7C47.83 215.98 45.9899 219.85 44.4499 223.55C43.0433 227.163 42.2263 230.978 42.03 234.85V235.29C41.87 236.95 41.5699 240.02 43.2299 240.88C44.417 241.636 45.4378 242.626 46.2299 243.79C47.1957 245.083 48.3063 246.26 49.54 247.3C50.2072 247.796 50.6509 248.537 50.7746 249.359C50.8982 250.181 50.6917 251.019 50.1999 251.69C49.9502 251.894 49.6625 252.046 49.3534 252.137C49.0443 252.228 48.72 252.256 48.3998 252.22C46.8149 252.138 45.3145 251.48 44.1799 250.37C43.9373 250.068 43.6623 249.793 43.3598 249.55C43.2215 249.438 43.0561 249.366 42.8803 249.339C42.7045 249.313 42.5248 249.334 42.3598 249.4C42.1875 249.467 42.035 249.576 41.9162 249.718C41.7973 249.86 41.716 250.029 41.6799 250.21C41.4416 251.675 41.0905 253.119 40.6298 254.53C40.3134 255.564 40.0926 256.625 39.9699 257.7C39.8503 258.656 39.6597 259.602 39.3998 260.53C39.0998 261.53 38.4899 263.53 37.2199 263.82C36.9379 263.912 36.6392 263.939 36.3451 263.901C36.0511 263.863 35.7693 263.76 35.5199 263.6C35.3473 263.418 35.213 263.202 35.1254 262.967C35.0378 262.732 34.9986 262.481 35.0099 262.23C35.0099 260.23 35.0098 257.92 33.8998 256.23C33.1698 255.05 31.8999 254.1 30.7099 254.4C30.5669 254.431 30.4289 254.481 30.3 254.55C29.7446 254.834 29.2853 255.276 28.9799 255.82C28.5709 256.607 28.2555 257.44 28.04 258.3C27.5 260.07 26.8198 262.3 25.6498 262.69C25.3486 262.758 25.0357 262.756 24.7355 262.683C24.4354 262.61 24.1562 262.469 23.9198 262.27C22.7598 261.49 23.2398 258.71 23.6298 256.48C24.0198 254.25 24.31 252.59 23.55 251.82C23.4634 251.729 23.3571 251.658 23.2394 251.613C23.1217 251.568 22.9954 251.55 22.8698 251.56C22.0998 251.56 21.34 252.56 20.05 254.24C18.76 255.92 17.35 257.75 16.29 257.73C16.18 257.73 15.8499 257.73 15.4699 257.16C14.2199 255.31 15.5198 253.36 17.1698 250.9C18.5217 249.087 19.5564 247.059 20.2299 244.9C20.6957 242.897 21.2903 240.926 22.0099 239C22.4299 237.93 22.8499 236.89 23.2699 235.87C24.4631 233.081 25.4979 230.226 26.3698 227.32C26.8898 225.49 27.3698 223.81 27.9198 222.2C30.3911 214.598 33.5439 207.235 37.3398 200.2C38.4398 198.2 39.61 196.13 40.82 194.14C42.51 191.37 44.2898 188.68 46.1098 186.14C46.7498 185.23 47.4598 184.25 48.3498 183.08C51.5452 178.763 55.0053 174.649 58.7099 170.76C61.4199 167.99 63.9699 165.59 66.5199 163.43C66.9099 163.11 67.3199 162.81 67.7399 162.5C68.3917 162.045 69.0098 161.544 69.5898 161L69.5299 160.5L69.4699 160.04C69.2944 160.107 69.1345 160.209 68.9999 160.34C68.4317 160.854 67.834 161.335 67.2099 161.78C66.7799 162.1 66.3499 162.41 65.9499 162.78C63.3699 164.95 60.8 167.37 58.07 170.17C54.3047 174.05 50.7814 178.158 47.5199 182.47C46.6299 183.66 45.9199 184.64 45.2699 185.55C43.4399 188.11 41.6499 190.83 39.9499 193.62C38.7299 195.62 37.5499 197.67 36.4499 199.71C32.6206 206.804 29.4442 214.231 26.9599 221.9C26.4299 223.52 25.9598 225.2 25.3998 227.04C24.5437 229.921 23.5187 232.749 22.33 235.51C21.92 236.51 21.49 237.57 21.07 238.64C20.3347 240.599 19.7267 242.603 19.2499 244.64C18.6021 246.7 17.6079 248.634 16.31 250.36C14.62 252.88 13.0298 255.27 14.6298 257.62C14.7793 257.901 14.9968 258.139 15.2624 258.314C15.5279 258.489 15.833 258.594 16.1498 258.62C17.6498 258.67 19.1498 256.69 20.6498 254.78C21.3598 253.85 22.44 252.43 22.8 252.45C23.24 252.89 22.9198 254.71 22.6398 256.32C22.1798 258.94 21.64 261.91 23.32 263.01C23.6654 263.296 24.0757 263.494 24.5151 263.584C24.9544 263.675 25.4093 263.656 25.8398 263.53C27.4298 262.96 28.15 260.63 28.78 258.53C28.9855 257.751 29.2667 256.994 29.6198 256.27C29.8415 255.873 30.171 255.548 30.57 255.33C31.57 254.86 32.57 256 33.03 256.67C34.03 258.2 34.03 260.35 34.03 262.22C34.0097 262.603 34.0714 262.986 34.2111 263.343C34.3508 263.7 34.565 264.023 34.8398 264.29C35.1898 264.552 35.5972 264.728 36.0282 264.803C36.4593 264.878 36.902 264.849 37.32 264.72H37.3698C39.1298 264.3 39.8499 261.96 40.1899 260.84C40.4728 259.858 40.6736 258.855 40.79 257.84C40.9086 256.823 41.1194 255.819 41.4198 254.84C41.8904 253.386 42.2515 251.898 42.4999 250.39C42.507 250.36 42.5219 250.332 42.5429 250.309C42.5639 250.286 42.5903 250.27 42.6198 250.26C42.634 250.249 42.6517 250.242 42.6698 250.242C42.688 250.242 42.7057 250.249 42.7199 250.26C42.9731 250.476 43.2073 250.714 43.4198 250.97C44.7149 252.277 46.4525 253.051 48.29 253.14C48.7448 253.186 49.2039 253.134 49.6369 252.987C50.0698 252.84 50.4666 252.603 50.8 252.29C51.1266 251.868 51.3656 251.386 51.5028 250.87C51.6401 250.355 51.6729 249.817 51.5993 249.289C51.5257 248.76 51.3471 248.252 51.0741 247.794C50.8012 247.335 50.4394 246.936 50.0099 246.62C48.8323 245.624 47.772 244.497 46.8498 243.26C45.9965 241.996 44.8897 240.923 43.5998 240.11C42.4798 239.53 42.7498 236.74 42.8798 235.4V234.94C43.0731 231.172 43.8665 227.458 45.2299 223.94C46.7699 220.27 48.59 216.42 50.81 212.17C52.02 209.86 53.2998 207.57 54.6198 205.24L55.55 203.6L56.4799 201.96L56.82 201.37L57.4499 200.27C60.9182 193.861 65.0797 187.851 69.8598 182.35C70.9806 181.087 72.1691 179.885 73.4198 178.75L73.32 178.22Z" fill="black"/>
<path d="M240.04 151.81C240.04 152.25 240.04 152.68 240.04 153.12C239.98 155.02 239.84 156.93 239.64 158.86C239.467 160.56 239.237 162.27 238.95 163.99C238.78 165.1 238.58 166.21 238.34 167.33C238.22 167.91 238.1 168.49 237.98 169.05C237.86 169.61 237.75 170.05 237.63 170.57C237.46 171.27 237.29 171.95 237.12 172.62C236.95 173.29 236.77 173.96 236.58 174.62C236.25 175.77 235.9 176.9 235.51 178.06V178.2C234.65 180.867 233.65 183.533 232.51 186.2C232.45 186.35 232.39 186.5 232.32 186.65C231.3 189.19 230.183 191.687 228.97 194.14C228.77 194.56 228.56 194.99 228.34 195.41L227.51 197.03C227.23 197.56 226.95 198.1 226.66 198.63L225.79 200.23C224.91 201.817 223.997 203.387 223.05 204.94C222.74 205.46 222.42 205.94 222.1 206.49L221.34 207.71L221.13 208.02C220.64 208.79 220.13 209.55 219.64 210.31C219.39 210.69 219.14 211.07 218.88 211.45C217.81 213.07 216.69 214.67 215.55 216.26C214.965 217.317 214.172 218.246 213.22 218.99C211.17 220.26 209.09 221.42 206.98 222.49L206.78 222.59H106.26C94.7901 215.33 80.76 201.91 73.47 178.74L73.3201 178.26C73.2701 178.11 73.22 177.95 73.18 177.79C71.9034 173.562 70.9013 169.257 70.18 164.9C70.18 164.7 70.1101 164.5 70.0801 164.3C70.0201 163.9 69.96 163.51 69.91 163.12C69.9052 163.04 69.9052 162.96 69.91 162.88C69.84 162.39 69.77 161.88 69.71 161.39C69.71 161.27 69.71 161.15 69.66 161.04L69.5999 160.54L69.5401 160.08C69.4901 159.63 69.44 159.21 69.39 158.81C69.34 158.41 69.2901 157.97 69.2501 157.55C69.2501 157.29 69.19 157.05 69.17 156.84C69.15 156.63 69.0901 156.14 69.0601 155.78C69.0601 155.78 69.0601 155.71 69.0601 155.68C68.7301 151.75 68.5501 147.62 68.5801 143.29C68.7601 124.35 74.4701 105.29 86.0201 90.18C86.5601 89.47 87.11 88.76 87.67 88.07C88.23 87.38 88.67 86.87 89.15 86.28C89.46 85.9 89.79 85.52 90.15 85.15C90.2718 84.9963 90.4021 84.8494 90.5401 84.71C90.9401 84.25 91.3501 83.79 91.7801 83.34C91.8922 83.2061 92.0123 83.0792 92.14 82.96C92.59 82.47 93.0601 81.96 93.5301 81.5L95.0601 79.9701L95.3001 79.75C95.8001 79.2633 96.3101 78.7833 96.8301 78.31C97.3501 77.8367 97.9201 77.3267 98.5401 76.78C99.1201 76.28 99.7001 75.78 100.29 75.29L102.08 73.8501C103.28 72.9101 104.507 71.9967 105.76 71.1101L107.37 70C107.69 69.79 108.01 69.57 108.37 69.37C112.24 66.93 116.31 64.94 120.37 62.84L120.59 62.7301C121.33 62.3834 122.06 62.0133 122.78 61.62C123.32 61.33 123.85 61.03 124.38 60.72C125.32 60.16 126.23 59.5901 127.13 58.9801C128.03 58.3701 128.98 57.7001 129.89 56.9801C130.8 56.2601 131.89 55.44 132.89 54.62L133.89 53.8L134.35 53.41L134.47 53.3L135.05 52.79L135.6 52.3C135.89 52.05 136.18 51.78 136.47 51.51C136.76 51.24 137.2 50.83 137.56 50.51C138.09 49.99 138.62 49.45 139.13 48.9C139.44 48.56 139.74 48.21 140.03 47.9L140.58 47.22C140.87 46.84 141.16 46.45 141.42 46.05C141.68 45.65 141.99 45.1901 142.25 44.7401C143.97 41.7401 146.41 38.6 149.59 37.15C150.077 36.9132 150.586 36.7257 151.11 36.59C152.673 36.149 154.327 36.149 155.89 36.59C156.234 36.6879 156.568 36.8151 156.89 36.97L157.3 37.15C158.114 37.5749 158.867 38.1063 159.54 38.7301C161.247 40.4056 162.769 42.2595 164.08 44.26L164.28 44.55C165.317 46.0731 166.477 47.508 167.75 48.84C167.89 48.97 168.03 49.1101 168.17 49.2301L168.32 49.37C172.052 52.3754 176.017 55.0774 180.18 57.45L180.8 57.83C182.36 58.83 183.91 59.76 185.43 60.77C192.606 65.4802 199.355 70.8107 205.6 76.7L205.66 76.76C208.22 79.19 210.66 81.7 213.01 84.3C215.623 87.1933 218.067 90.1933 220.34 93.3C221.767 95.22 223.123 97.17 224.41 99.15C226.363 102.141 228.159 105.232 229.79 108.41C236.793 121.788 240.318 136.713 240.04 151.81Z" fill="#FFEC4E"/>
<path d="M206.83 223.08H106.12L105.99 223C95.1 216.11 80.54 202.86 72.99 178.88L72.83 178.4C72.78 178.25 72.7299 178.07 72.6899 177.9C71.4099 173.66 70.4078 169.341 69.6899 164.97C69.6899 164.78 69.6198 164.57 69.5898 164.36V164.2C69.5898 163.86 69.4899 163.52 69.4499 163.2C69.4403 163.12 69.4403 163.04 69.4499 162.96C69.3799 162.48 69.31 161.96 69.25 161.47L69.08 160.2C69.03 159.71 68.9799 159.29 68.9299 158.89C68.8799 158.49 68.82 158.02 68.78 157.62V157.39L68.7199 156.91C68.7199 156.56 68.6398 156.21 68.6098 155.84C68.6098 155.78 68.6098 155.74 68.6098 155.7C68.2698 151.6 68.0999 147.41 68.1299 143.31C68.3199 123.44 74.5499 104.48 85.6699 89.9C86.2199 89.18 86.77 88.47 87.33 87.77C87.89 87.07 88.33 86.5701 88.82 85.9701C89.13 85.6001 89.47 85.2101 89.82 84.8301C89.9481 84.6725 90.0849 84.5221 90.2299 84.38C90.6099 83.94 91.0199 83.47 91.4599 83.02C91.5782 82.8758 91.705 82.739 91.8398 82.6101C92.2698 82.1501 92.7399 81.61 93.2099 81.17L94.75 79.63L94.99 79.42C95.5 78.92 95.99 78.4201 96.54 77.9601C97.09 77.5001 97.67 76.96 98.26 76.42C98.85 75.88 99.43 75.42 100.01 74.93L101.81 73.4801C102.94 72.6001 104.15 71.7001 105.51 70.7201L107.13 69.6101L107.38 69.45C107.62 69.28 107.87 69.1201 108.12 68.9601C111.34 66.9601 114.76 65.1801 118.06 63.4901L120.15 62.42L120.35 62.32C121.13 61.95 121.86 61.58 122.55 61.2C123.09 60.91 123.61 60.62 124.14 60.31C125.14 59.71 126.04 59.1401 126.86 58.5901C127.86 57.9101 128.86 57.19 129.6 56.64C130.6 55.9 131.6 55.11 132.6 54.3L132.88 54.06C133.11 53.87 133.34 53.6801 133.56 53.4801L134.04 53.08L134.47 53.3601L134.15 52.9801L134.44 52.7301L135.27 51.9901C135.55 51.7501 135.82 51.4901 136.09 51.2401C136.36 50.9901 136.84 50.5501 137.18 50.2401C137.74 49.7001 138.26 49.16 138.77 48.62C139.07 48.29 139.36 47.95 139.65 47.62L140.2 46.94C140.47 46.59 140.75 46.21 141 45.82C141.25 45.43 141.55 44.99 141.82 44.53C144.05 40.63 146.59 38.0101 149.38 36.7401C149.89 36.4854 150.427 36.2874 150.98 36.15C152.615 35.6889 154.345 35.6889 155.98 36.15C156.359 36.2523 156.727 36.3896 157.08 36.56C157.2 36.56 157.35 36.6701 157.48 36.7401C158.341 37.1849 159.138 37.7431 159.85 38.4C161.521 40.0332 163.013 41.8401 164.3 43.79L164.65 44.29C165.671 45.792 166.815 47.2068 168.07 48.52L168.2 48.64L168.47 48.89L168.6 49.02C172.312 51.9991 176.258 54.6744 180.4 57.02L181.04 57.42C182.7 58.42 184.22 59.4201 185.68 60.3601C192.88 65.0937 199.652 70.4474 205.92 76.3601C208.62 78.9301 211.11 81.4801 213.35 83.9901C215.953 86.8641 218.41 89.8679 220.71 92.9901C222.17 94.9901 223.55 96.93 224.8 98.87L224.88 99C226.821 101.976 228.607 105.05 230.23 108.21C237.329 121.68 240.907 136.726 240.63 151.95C240.63 152.38 240.63 152.81 240.63 153.25C240.57 155.1 240.44 156.99 240.23 159.04C240.06 160.74 239.83 162.48 239.54 164.2C239.36 165.37 239.16 166.47 238.92 167.56L238.56 169.29L238.43 169.85C238.36 170.17 238.29 170.5 238.21 170.85C238.04 171.55 237.87 172.23 237.7 172.85C237.53 173.47 237.34 174.2 237.15 174.85C236.81 176.03 236.46 177.17 236.08 178.31V178.43C235.22 181.08 234.22 183.77 233.08 186.43C233.02 186.58 232.96 186.74 232.89 186.9C231.89 189.4 230.75 191.9 229.53 194.4C229.33 194.82 229.12 195.26 228.89 195.68L227.89 197.68L227.23 198.92L226.48 200.3L226.36 200.52C225.43 202.2 224.53 203.75 223.61 205.25C223.3 205.77 222.98 206.25 222.66 206.81C222.43 207.17 222.21 207.54 221.97 207.91L221.68 208.35C221.19 209.12 220.68 209.88 220.19 210.64C219.94 211.03 219.69 211.41 219.42 211.79C218.48 213.23 217.42 214.79 216.09 216.61C215.95 216.8 215.82 217 215.69 217.2C215.175 218.105 214.464 218.884 213.61 219.48C211.61 220.71 209.51 221.9 207.34 223L206.83 223.08ZM106.41 222.08H206.6L206.72 222.02L206.92 221.94C208.99 220.88 211 219.74 212.92 218.57C213.643 218.034 214.246 217.353 214.69 216.57C214.82 216.36 214.96 216.16 215.1 215.96C216.42 214.12 217.48 212.6 218.42 211.16C218.69 210.78 218.94 210.4 219.18 210.03C219.68 209.27 220.18 208.51 220.67 207.74L220.88 207.42C221.14 207.02 221.39 206.62 221.64 206.21C221.89 205.8 222.27 205.21 222.58 204.66C223.5 203.17 224.39 201.66 225.31 199.97L225.43 199.75C225.683 199.303 225.933 198.843 226.18 198.37C226.4 197.97 226.62 197.56 226.83 197.15L227.83 195.15C228.05 194.73 228.25 194.31 228.45 193.9C229.66 191.44 230.79 188.9 231.79 186.43L231.98 185.98C233.09 183.33 234.09 180.66 234.98 178.05V177.93C235.37 176.78 235.72 175.66 236.05 174.49C236.243 173.823 236.423 173.157 236.59 172.49C236.76 171.82 236.93 171.14 237.1 170.44C237.17 170.13 237.24 169.81 237.32 169.49L237.44 168.93C237.56 168.38 237.68 167.8 237.8 167.22C238.03 166.14 238.23 165.06 238.41 163.91C238.7 162.2 238.93 160.48 239.09 158.8C239.3 156.8 239.43 154.91 239.49 153.09C239.49 152.64 239.49 152.22 239.49 151.8C239.763 136.743 236.223 121.862 229.2 108.54C227.571 105.377 225.782 102.3 223.84 99.32L223.76 99.19C222.53 97.29 221.19 95.3601 219.76 93.4601C217.55 90.4601 215.1 87.46 212.46 84.55C210.23 82.05 207.77 79.55 205.14 77.03L205.06 76.9601C198.845 71.0949 192.125 65.7877 184.98 61.1001C183.53 60.1001 181.98 59.18 180.36 58.17L179.74 57.79C175.56 55.3965 171.574 52.6781 167.82 49.66C167.755 49.6089 167.695 49.5521 167.64 49.4901C167.56 49.4301 167.46 49.3301 167.36 49.2401L167.23 49.12C165.93 47.767 164.749 46.3049 163.7 44.75L163.34 44.2401C162.092 42.3491 160.648 40.5958 159.03 39.01C158.385 38.4185 157.666 37.9142 156.89 37.51L156.52 37.3401C156.198 37.1895 155.864 37.0691 155.52 36.9801C154.045 36.5648 152.485 36.5648 151.01 36.9801C150.517 37.1081 150.038 37.2856 149.58 37.51C146.97 38.7 144.58 41.18 142.46 44.9C142.17 45.39 141.89 45.83 141.6 46.25C141.31 46.67 141.05 47.04 140.75 47.43L140.19 48.13C139.89 48.49 139.59 48.84 139.27 49.19C138.75 49.75 138.22 50.29 137.68 50.82C137.29 51.2 136.94 51.54 136.57 51.82C136.2 52.1 135.98 52.38 135.7 52.62L134.87 53.3501C134.771 53.4453 134.668 53.5353 134.56 53.62L134.44 53.7401C134.28 53.8601 134.14 53.99 133.99 54.12L133.3 54.7101L133.01 54.94C132.01 55.77 131.01 56.57 130.01 57.32C129.26 57.88 128.27 58.61 127.23 59.32C126.4 59.88 125.49 60.46 124.46 61.07C123.92 61.38 123.38 61.6901 122.84 61.9801C122.13 62.3701 121.38 62.7401 120.63 63.1001C120.546 63.1494 120.459 63.1928 120.37 63.2301L118.37 64.28C115.08 65.96 111.69 67.7001 108.5 69.7101C108.25 69.8601 108.01 70.02 107.78 70.18L107.54 70.3401L105.94 71.44C104.59 72.44 103.39 73.29 102.28 74.16L100.5 75.6001C99.93 76.0701 99.36 76.6 98.8 77.05C98.24 77.5 97.62 78.0501 97.06 78.6001C96.5 79.1501 96.06 79.54 95.54 80.03L95.29 80.26C94.78 80.75 94.29 81.26 93.78 81.77C93.27 82.28 92.8499 82.7701 92.3999 83.2201C92.2599 83.3501 92.15 83.4701 92.05 83.5801C91.61 84.0501 91.2 84.5001 90.81 84.9601C90.66 85.1101 90.5399 85.25 90.4299 85.38C90.0799 85.77 89.7499 86.14 89.4299 86.52C88.9199 87.11 88.4299 87.7 87.9599 88.3C87.4899 88.9 86.85 89.7 86.31 90.4C75.31 104.81 69.1599 123.57 68.9699 143.21C68.9699 147.29 69.0999 151.44 69.4499 155.56C69.4539 155.607 69.4539 155.653 69.4499 155.7C69.4499 156.01 69.52 156.36 69.56 156.7C69.56 156.86 69.56 157.01 69.56 157.18V157.41C69.56 157.82 69.6399 158.22 69.6899 158.61C69.7399 159 69.7998 159.49 69.8498 159.95L69.9699 160.95C69.9765 161.01 69.9765 161.07 69.9699 161.13V161.28C70.0399 161.8 70.1099 162.28 70.1799 162.78C70.1743 162.843 70.1743 162.907 70.1799 162.97C70.1799 163.36 70.28 163.69 70.33 164.04V164.2C70.3503 164.391 70.3802 164.582 70.4199 164.77C71.1436 169.11 72.1456 173.399 73.4199 177.61C73.4563 177.766 73.5032 177.92 73.56 178.07L73.7099 178.56C81.3699 202.15 95.7099 215.22 106.41 222.05V222.08Z" fill="black"/>
<path d="M118.71 156.1C118.561 156.101 118.415 156.059 118.29 155.977C118.165 155.895 118.068 155.777 118.01 155.64C116.947 153.228 115.204 151.179 112.995 149.742C110.786 148.305 108.206 147.544 105.57 147.55C102.972 147.451 100.4 148.096 98.1553 149.409C95.911 150.721 94.0877 152.647 92.8999 154.96C92.8116 155.137 92.6577 155.272 92.471 155.338C92.2843 155.403 92.0794 155.393 91.8999 155.31C91.7211 155.223 91.5837 155.07 91.5181 154.882C91.4525 154.695 91.4641 154.489 91.5501 154.31C92.8669 151.74 94.8887 149.598 97.3787 148.135C99.8687 146.672 102.724 145.949 105.61 146.05C108.535 146.049 111.398 146.899 113.849 148.497C116.299 150.095 118.232 152.372 119.41 155.05C119.452 155.142 119.475 155.242 119.477 155.343C119.479 155.444 119.46 155.545 119.422 155.639C119.383 155.733 119.326 155.817 119.254 155.888C119.181 155.959 119.095 156.014 119 156.05C118.908 156.087 118.809 156.104 118.71 156.1Z" fill="black"/>
<path d="M105.62 147.55C105.422 147.542 105.235 147.457 105.098 147.314C104.962 147.17 104.887 146.978 104.89 146.78L105.03 142.04C105.043 141.844 105.129 141.659 105.272 141.524C105.415 141.389 105.603 141.312 105.8 141.31C105.899 141.313 105.996 141.335 106.086 141.375C106.176 141.415 106.257 141.472 106.325 141.544C106.392 141.615 106.446 141.699 106.481 141.792C106.516 141.884 106.533 141.982 106.53 142.08L106.39 146.82C106.389 146.919 106.368 147.017 106.328 147.107C106.288 147.198 106.231 147.28 106.159 147.348C106.087 147.416 106.003 147.469 105.91 147.503C105.818 147.538 105.719 147.554 105.62 147.55Z" fill="black"/>
<path d="M113.96 150.23C113.806 150.228 113.656 150.179 113.53 150.09C113.377 149.979 113.271 149.814 113.236 149.628C113.2 149.442 113.238 149.249 113.34 149.09L113.46 148.95C113.72 148.55 114.58 146.84 115.31 145.32C115.397 145.141 115.55 145.003 115.737 144.936C115.924 144.869 116.129 144.877 116.31 144.96C116.489 145.046 116.626 145.2 116.692 145.388C116.757 145.575 116.746 145.781 116.66 145.96C114.66 150.11 114.55 150.14 114.16 150.24C114.093 150.246 114.026 150.243 113.96 150.23Z" fill="black"/>
<path d="M97.1899 149.9C97.0601 149.9 96.9328 149.866 96.8205 149.801C96.7082 149.736 96.6149 149.642 96.55 149.53L94.4999 146.15C94.4059 145.983 94.3795 145.786 94.426 145.6C94.4725 145.414 94.5884 145.253 94.7499 145.15C94.917 145.056 95.1138 145.03 95.2997 145.076C95.4857 145.123 95.6468 145.239 95.7499 145.4L97.7499 148.79C97.8416 148.958 97.8666 149.154 97.8203 149.339C97.7739 149.524 97.6597 149.685 97.4999 149.79C97.4055 149.848 97.2998 149.886 97.1899 149.9Z" fill="black"/>
<path d="M216.71 154.16C216.562 154.163 216.416 154.12 216.293 154.038C216.17 153.955 216.075 153.838 216.02 153.7C214.953 151.291 213.207 149.244 210.997 147.809C208.786 146.374 206.205 145.614 203.57 145.62C200.973 145.522 198.402 146.166 196.158 147.476C193.914 148.787 192.09 150.71 190.9 153.02C190.858 153.11 190.799 153.19 190.726 153.256C190.653 153.322 190.567 153.373 190.474 153.406C190.38 153.439 190.282 153.452 190.183 153.446C190.085 153.44 189.988 153.414 189.9 153.37C189.81 153.328 189.73 153.269 189.664 153.196C189.598 153.123 189.547 153.037 189.514 152.944C189.482 152.851 189.468 152.752 189.474 152.653C189.48 152.555 189.506 152.459 189.55 152.37C190.865 149.801 192.885 147.66 195.373 146.199C197.862 144.738 200.716 144.016 203.6 144.12C206.525 144.119 209.388 144.969 211.839 146.567C214.289 148.166 216.221 150.442 217.4 153.12C217.441 153.212 217.463 153.311 217.465 153.411C217.467 153.512 217.449 153.612 217.412 153.705C217.374 153.798 217.319 153.883 217.248 153.954C217.177 154.026 217.093 154.082 217 154.12C216.907 154.152 216.808 154.165 216.71 154.16Z" fill="black"/>
<path d="M203.6 145.62C203.501 145.616 203.405 145.593 203.315 145.551C203.226 145.51 203.145 145.452 203.078 145.379C203.011 145.307 202.959 145.222 202.925 145.129C202.891 145.037 202.876 144.938 202.88 144.84L203.01 140.1C203.023 139.904 203.109 139.721 203.252 139.587C203.395 139.454 203.584 139.379 203.78 139.38C203.879 139.381 203.976 139.402 204.067 139.442C204.158 139.481 204.239 139.539 204.308 139.611C204.376 139.682 204.429 139.767 204.463 139.86C204.498 139.952 204.514 140.051 204.51 140.15L204.38 144.89C204.369 145.089 204.283 145.276 204.137 145.412C203.992 145.548 203.799 145.623 203.6 145.62Z" fill="black"/>
<path d="M211.94 148.29C211.783 148.293 211.63 148.248 211.5 148.16C211.337 148.045 211.225 147.87 211.19 147.674C211.154 147.477 211.197 147.275 211.31 147.11C211.348 147.062 211.392 147.018 211.44 146.98C211.7 146.57 212.55 144.86 213.28 143.34C213.366 143.161 213.52 143.024 213.707 142.958C213.895 142.892 214.101 142.904 214.28 142.99C214.369 143.032 214.45 143.091 214.516 143.164C214.582 143.237 214.633 143.323 214.666 143.416C214.698 143.509 214.712 143.608 214.706 143.707C214.7 143.805 214.674 143.901 214.63 143.99C212.63 148.13 212.52 148.17 212.13 148.27L211.94 148.29Z" fill="black"/>
<path d="M195.16 147.96C195.031 147.96 194.905 147.927 194.793 147.864C194.681 147.801 194.587 147.71 194.52 147.6L192.52 144.22C192.426 144.053 192.399 143.856 192.446 143.67C192.492 143.484 192.608 143.323 192.77 143.22C192.936 143.123 193.134 143.096 193.32 143.142C193.507 143.189 193.669 143.306 193.77 143.47L195.82 146.85C195.914 147.017 195.94 147.214 195.894 147.4C195.847 147.586 195.732 147.747 195.57 147.85C195.446 147.923 195.304 147.961 195.16 147.96Z" fill="black"/>
<path d="M124.64 163.55C124.75 161.302 125.621 159.157 127.11 157.47C129.99 154.18 134.4 154.13 138.3 155.4C150.41 159.34 158.07 161.81 166.3 156.4C170.56 153.6 176.7 152.73 181.41 154.92C186.97 157.51 187.94 164.11 185.56 169.32C182.37 176.32 174.22 179.84 167.16 181.45C156.73 183.81 144.49 183.28 134.9 178.19C130.798 176.162 127.505 172.802 125.56 168.66C124.856 167.052 124.541 165.302 124.64 163.55Z" fill="#864AE5"/>
<path d="M132.51 154.7C132.51 154.7 131.61 158.7 135.08 159.07C138.14 159.38 138.3 155.4 138.3 155.4C138.3 155.4 134.71 154.28 132.51 154.7Z" fill="white"/>
<path d="M135.42 159.59H135.03C134.555 159.564 134.091 159.434 133.671 159.209C133.251 158.985 132.885 158.671 132.6 158.29C131.949 157.18 131.742 155.866 132.02 154.61C132.044 154.515 132.095 154.43 132.165 154.362C132.236 154.295 132.324 154.249 132.42 154.23C134.75 153.79 138.3 154.9 138.42 154.94C138.525 154.973 138.617 155.04 138.68 155.13C138.743 155.221 138.775 155.33 138.77 155.44C138.717 156.733 138.203 157.964 137.32 158.91C136.79 159.36 136.115 159.602 135.42 159.59ZM132.95 155.14C132.801 156.018 132.964 156.919 133.41 157.69C133.615 157.954 133.875 158.169 134.172 158.321C134.469 158.473 134.796 158.558 135.13 158.57C135.406 158.61 135.688 158.591 135.956 158.515C136.225 158.439 136.475 158.308 136.69 158.13C137.306 157.485 137.684 156.649 137.76 155.76C136.2 155.298 134.576 155.088 132.95 155.14Z" fill="black"/>
<path d="M144.1 157.24C144.1 157.24 143.41 162.1 147.38 162.44C150.63 162.72 150.63 158.93 150.63 158.93C150.63 158.93 146.2 157.96 144.1 157.24Z" fill="white"/>
<path d="M147.71 162.96H147.33C146.802 162.937 146.284 162.802 145.812 162.564C145.34 162.326 144.923 161.991 144.59 161.58C143.737 160.286 143.381 158.726 143.59 157.19C143.602 157.119 143.629 157.051 143.668 156.991C143.708 156.931 143.759 156.879 143.82 156.84C143.887 156.808 143.96 156.792 144.035 156.792C144.109 156.792 144.183 156.808 144.25 156.84C146.25 157.54 150.68 158.5 150.73 158.51C150.84 158.537 150.938 158.599 151.009 158.688C151.08 158.777 151.119 158.887 151.12 159C151.11 160.202 150.654 161.356 149.84 162.24C149.25 162.747 148.486 163.005 147.71 162.96ZM144.55 157.96C144.497 159.022 144.784 160.073 145.37 160.96C145.622 161.262 145.935 161.507 146.288 161.679C146.641 161.852 147.027 161.947 147.42 161.96C147.731 162.005 148.048 161.983 148.35 161.895C148.652 161.807 148.932 161.655 149.17 161.45C149.709 160.872 150.037 160.128 150.1 159.34C149.06 159.09 146.36 158.43 144.55 157.91V157.96Z" fill="black"/>
<path d="M157.79 159.43C157.79 159.43 158.12 162.88 161.43 162.79C164.74 162.7 164.53 157.41 164.53 157.41C162.447 158.542 160.152 159.229 157.79 159.43Z" fill="white"/>
<path d="M161.3 163.33C160.271 163.331 159.282 162.936 158.537 162.227C157.792 161.517 157.349 160.548 157.3 159.52C157.289 159.389 157.328 159.259 157.41 159.157C157.492 159.055 157.61 158.988 157.74 158.97C160.024 158.775 162.244 158.111 164.26 157.02C164.337 156.978 164.423 156.956 164.51 156.956C164.597 156.956 164.683 156.978 164.76 157.02C164.838 157.062 164.903 157.124 164.949 157.199C164.995 157.275 165.02 157.362 165.02 157.45C165.02 157.58 165.13 160.76 163.6 162.39C163.329 162.698 162.998 162.946 162.626 163.118C162.254 163.291 161.85 163.383 161.44 163.39L161.3 163.33ZM158.38 159.9C158.514 160.593 158.889 161.217 159.437 161.662C159.986 162.106 160.674 162.343 161.38 162.33C161.652 162.331 161.92 162.275 162.169 162.165C162.417 162.054 162.639 161.893 162.82 161.69C163.545 160.703 163.943 159.514 163.96 158.29C162.193 159.11 160.311 159.653 158.38 159.9Z" fill="black"/>
<path d="M171.91 154.06C171.91 154.06 171.15 157.85 174.64 158.06C178.13 158.27 177.64 153.83 177.64 153.83C175.729 153.621 173.798 153.699 171.91 154.06Z" fill="white"/>
<path d="M174.85 158.54H174.61C174.125 158.544 173.646 158.441 173.207 158.237C172.767 158.033 172.379 157.733 172.07 157.36C171.431 156.354 171.195 155.143 171.41 153.97C171.43 153.88 171.474 153.797 171.538 153.73C171.601 153.663 171.681 153.615 171.77 153.59C173.744 153.193 175.767 153.098 177.77 153.31C177.882 153.325 177.985 153.376 178.065 153.455C178.145 153.535 178.195 153.638 178.21 153.75C178.21 153.85 178.48 156.25 177.21 157.63C176.907 157.944 176.538 158.189 176.131 158.346C175.723 158.503 175.286 158.569 174.85 158.54ZM172.36 154.46C172.249 155.255 172.426 156.064 172.86 156.74C173.085 156.994 173.363 157.196 173.673 157.332C173.984 157.469 174.321 157.536 174.66 157.53C174.98 157.569 175.305 157.536 175.611 157.434C175.917 157.332 176.197 157.163 176.43 156.94C176.996 156.166 177.272 155.217 177.21 154.26C175.593 154.104 173.962 154.161 172.36 154.43V154.46Z" fill="black"/>
<path d="M175.57 153.66C177.6 153.635 179.61 154.054 181.46 154.89C187.02 157.48 187.99 164.08 185.61 169.29C182.42 176.29 174.27 179.81 167.21 181.42C163.249 182.313 159.201 182.766 155.14 182.77C148.136 182.889 141.208 181.307 134.95 178.16C130.848 176.132 127.555 172.772 125.61 168.63C124.883 167.038 124.541 165.298 124.61 163.55C124.719 161.302 125.591 159.158 127.08 157.47C127.914 156.535 128.944 155.795 130.097 155.304C131.25 154.813 132.498 154.583 133.75 154.63C135.287 154.649 136.813 154.909 138.27 155.4C145.37 157.71 150.95 159.51 156.01 159.51C159.687 159.541 163.285 158.445 166.32 156.37C169.072 154.605 172.271 153.665 175.54 153.66M175.54 150.43C171.638 150.426 167.817 151.551 164.54 153.67C162.032 155.404 159.049 156.32 156 156.29C151.43 156.29 146.06 154.54 139.26 152.29C137.479 151.699 135.616 151.388 133.74 151.37C132.027 151.32 130.324 151.647 128.752 152.328C127.179 153.009 125.776 154.027 124.64 155.31C122.681 157.532 121.532 160.352 121.38 163.31C121.281 165.555 121.702 167.793 122.61 169.85C124.835 174.669 128.643 178.583 133.4 180.94C140.121 184.341 147.568 186.057 155.1 185.94C159.4 185.94 163.686 185.461 167.88 184.51C175.14 182.87 184.61 179.11 188.5 170.58C191.42 164.18 190.41 155.47 182.78 151.92C180.506 150.88 178.03 150.354 175.53 150.38L175.54 150.43Z" fill="#F69538"/>
<path d="M155.14 186.49C147.53 186.624 140.001 184.908 133.2 181.49C128.347 179.076 124.465 175.074 122.2 170.15C121.264 168.027 120.829 165.717 120.93 163.4C121.083 160.316 122.278 157.376 124.32 155.06C125.5 153.722 126.961 152.66 128.597 151.95C130.234 151.24 132.007 150.898 133.79 150.95C135.718 150.968 137.631 151.288 139.46 151.9C146.22 154.09 151.56 155.83 156.05 155.83C158.999 155.861 161.885 154.977 164.31 153.3C167.667 151.125 171.581 149.969 175.58 149.97C178.153 149.943 180.699 150.482 183.04 151.55C190.96 155.24 192.04 164.26 189.04 170.88C185.04 179.6 175.44 183.42 168.04 185.09C163.806 186.035 159.479 186.505 155.14 186.49ZM133.78 151.91C132.139 151.861 130.507 152.173 129 152.824C127.494 153.476 126.148 154.451 125.06 155.68C123.166 157.825 122.058 160.551 121.92 163.41C121.822 165.577 122.23 167.737 123.11 169.72C125.303 174.439 129.043 178.268 133.71 180.57C140.363 183.924 147.73 185.613 155.18 185.49C159.443 185.493 163.693 185.017 167.85 184.07C175 182.45 184.32 178.77 188.13 170.42C190.95 164.24 189.99 155.83 182.65 152.42C180.454 151.417 178.064 150.909 175.65 150.93C171.847 150.928 168.124 152.025 164.93 154.09C162.344 155.88 159.265 156.824 156.12 156.79C151.47 156.79 146.12 155.03 139.23 152.79C137.471 152.209 135.632 151.912 133.78 151.91ZM155.14 183.27C148.052 183.394 141.04 181.791 134.71 178.6C130.502 176.529 127.129 173.081 125.15 168.83C124.408 167.162 124.066 165.343 124.15 163.52C124.267 161.16 125.184 158.91 126.75 157.14C127.627 156.158 128.708 155.381 129.917 154.863C131.126 154.345 132.435 154.098 133.75 154.14C135.342 154.159 136.922 154.429 138.43 154.94C145.43 157.22 151.01 159.02 156.01 159.02C159.577 159.041 163.066 157.973 166.01 155.96C168.847 154.145 172.143 153.178 175.51 153.17C177.645 153.124 179.763 153.554 181.71 154.43C187.71 157.24 188.48 164.28 186.1 169.49C182.49 177.4 172.81 180.66 167.36 181.89C163.351 182.806 159.252 183.269 155.14 183.27ZM133.78 155.13C132.599 155.083 131.423 155.298 130.335 155.759C129.248 156.221 128.276 156.918 127.49 157.8C126.076 159.401 125.247 161.436 125.14 163.57C125.067 165.24 125.386 166.904 126.07 168.43C127.977 172.462 131.186 175.734 135.18 177.72C141.378 180.839 148.243 182.401 155.18 182.27C159.217 182.273 163.243 181.823 167.18 180.93C172.45 179.73 181.8 176.6 185.23 169.08C187.41 164.32 186.78 157.88 181.33 155.34C179.543 154.545 177.606 154.142 175.65 154.16C172.461 154.161 169.338 155.073 166.65 156.79C163.534 158.917 159.843 160.041 156.07 160.01C150.91 160.01 145.29 158.19 138.18 155.88C136.763 155.396 135.277 155.143 133.78 155.13Z" fill="black"/>
<path d="M140.55 179.35C140.55 179.35 144.55 171.82 152.04 173.67C152.04 173.67 158.71 171.08 162.54 175.67C166.37 180.26 170.54 201.12 155.54 200.38C140.54 199.64 142.22 187.88 143.54 181.38L139.95 180.27L140.55 179.35Z" fill="#F64057"/>
<path d="M156.25 200.88H155.48C150.36 200.63 146.67 199.08 144.48 196.29C141.39 192.29 141.91 186.71 142.91 181.69L139.76 180.69C139.683 180.667 139.613 180.626 139.556 180.57C139.498 180.514 139.455 180.446 139.43 180.37C139.404 180.295 139.397 180.215 139.409 180.136C139.422 180.058 139.453 179.984 139.5 179.92L140.1 179.08C140.41 178.52 144.52 171.41 151.98 173.14C152.98 172.78 159.21 170.92 162.9 175.32C165.57 178.51 168.37 189.32 165.18 195.75C163.54 199.12 160.45 200.88 156.25 200.88ZM140.71 179.95L143.64 180.85C143.757 180.889 143.856 180.969 143.919 181.076C143.981 181.183 144.003 181.308 143.98 181.43C142.98 186.34 142.33 191.87 145.27 195.66C147.27 198.21 150.69 199.66 155.5 199.86C159.73 200.06 162.68 198.54 164.28 195.31C167.28 189.23 164.66 178.99 162.13 175.97C158.58 171.73 152.26 174.11 152.19 174.14C152.091 174.165 151.988 174.165 151.89 174.14C144.84 172.4 141.12 179.27 140.96 179.57V179.62L140.71 179.95Z" fill="black"/>
<path d="M95.7099 105.61C94.8382 105.529 93.9984 105.24 93.2599 104.77C92.6319 104.377 92.0876 103.863 91.6581 103.259C91.2287 102.655 90.9226 101.972 90.7572 101.249C90.5919 100.527 90.5707 99.7785 90.6947 99.0477C90.8188 98.317 91.0855 97.6178 91.4799 96.9902C91.9999 96.1402 103.03 81.4202 110.11 76.6002C110.722 76.1809 111.411 75.8864 112.137 75.7338C112.864 75.5812 113.613 75.5735 114.342 75.711C115.071 75.8484 115.766 76.1285 116.387 76.5351C117.008 76.9416 117.542 77.4667 117.96 78.0802C118.379 78.6931 118.673 79.3825 118.824 80.1091C118.976 80.8358 118.983 81.5853 118.845 82.3146C118.706 83.0439 118.425 83.7387 118.018 84.3591C117.61 84.9796 117.084 85.5135 116.47 85.9302C111.88 89.0602 102.47 100.93 100.99 103.08C100.425 103.944 99.6339 104.636 98.703 105.082C97.7722 105.528 96.7371 105.711 95.7099 105.61Z" fill="white"/>
<path d="M96.2899 106.14H95.6898C94.7402 106.053 93.825 105.741 93.0199 105.23C92.3315 104.805 91.7354 104.246 91.2665 103.586C90.7976 102.927 90.4656 102.18 90.2899 101.39C90.1063 100.604 90.0806 99.7885 90.2145 98.9919C90.3484 98.1954 90.6392 97.4334 91.07 96.7501C91.6 95.9001 102.69 81.0902 109.85 76.2102C110.515 75.7483 111.264 75.4222 112.055 75.2506C112.846 75.079 113.663 75.0653 114.46 75.2102C115.253 75.3589 116.009 75.6634 116.684 76.1063C117.358 76.5492 117.938 77.1215 118.39 77.7902C118.856 78.4529 119.184 79.2023 119.356 79.994C119.528 80.7858 119.539 81.6039 119.39 82.4001C119.242 83.1937 118.939 83.9503 118.498 84.6265C118.057 85.3026 117.487 85.885 116.82 86.3402C112.32 89.4002 102.91 101.26 101.47 103.34C100.911 104.204 100.143 104.913 99.2382 105.403C98.3329 105.892 97.319 106.146 96.2899 106.14ZM95.7799 105.14C96.7178 105.233 97.6632 105.067 98.5131 104.659C99.363 104.252 100.085 103.619 100.6 102.83C102.26 100.42 111.6 88.7002 116.21 85.5502C116.772 85.1719 117.252 84.6851 117.623 84.1184C117.994 83.5517 118.248 82.9164 118.37 82.2501C118.498 81.5858 118.494 80.9026 118.356 80.2401C118.219 79.5776 117.952 78.9488 117.57 78.3901C116.798 77.2631 115.612 76.4869 114.27 76.2302C113.605 76.1039 112.921 76.1104 112.259 76.2494C111.596 76.3884 110.968 76.6571 110.41 77.0402C103.41 81.8302 92.4098 96.4501 91.9198 97.2801C91.558 97.8527 91.3134 98.4913 91.2001 99.159C91.0868 99.8268 91.1072 100.51 91.2599 101.17C91.41 101.83 91.6896 102.454 92.0827 103.005C92.4758 103.556 92.9747 104.023 93.55 104.38C94.2221 104.807 94.9867 105.068 95.7799 105.14Z" fill="black"/>
<path d="M88.33 118.57C91.6769 118.57 94.39 115.857 94.39 112.51C94.39 109.163 91.6769 106.45 88.33 106.45C84.9832 106.45 82.27 109.163 82.27 112.51C82.27 115.857 84.9832 118.57 88.33 118.57Z" fill="white"/>
<path d="M88.3398 119.07C88.1298 119.07 87.9099 119.07 87.6999 119.07C86.8423 118.988 86.0095 118.738 85.2492 118.333C84.4889 117.928 83.8162 117.376 83.2699 116.71C82.7185 116.048 82.3043 115.282 82.0519 114.458C81.7995 113.634 81.714 112.768 81.8 111.91C81.8817 111.052 82.1322 110.22 82.5373 109.459C82.9423 108.699 83.4937 108.026 84.1598 107.48C85.5022 106.374 87.2284 105.845 88.9599 106.01C90.6907 106.18 92.2836 107.029 93.3896 108.371C94.4955 109.713 95.0243 111.439 94.8598 113.17C94.6942 114.785 93.9363 116.282 92.7324 117.372C91.5284 118.461 89.9635 119.066 88.3398 119.07ZM88.3398 106.95C87.0539 106.948 85.8084 107.398 84.82 108.22C84.2538 108.683 83.7852 109.254 83.4418 109.899C83.0985 110.545 82.8872 111.252 82.82 111.98C82.6785 113.447 83.1244 114.911 84.06 116.05C84.523 116.616 85.0937 117.084 85.7392 117.427C86.3847 117.771 87.0921 117.982 87.82 118.05C89.2875 118.189 90.7503 117.741 91.8881 116.804C93.0259 115.867 93.7456 114.517 93.8898 113.05C94.0292 111.583 93.5812 110.12 92.644 108.982C91.7068 107.844 90.3568 107.124 88.8898 106.98L88.3398 106.95Z" fill="black"/>
<path d="M149.45 37.22C149.45 37.22 150.19 30.05 144.13 21.4C138.07 12.75 134.95 4.10995 142.39 1.01995C149.83 -2.07005 153.28 9.41999 153.65 18.44C153.65 18.44 165.14 19.18 168.6 27.33C168.6 27.33 196.4 18.07 210.73 38.7L202.82 41.54C202.82 41.54 221.72 42.4099 228.64 55.8699C228.64 55.8699 218.02 56.12 217.64 56.99C217.26 57.86 232.54 63.45 234.85 72.99C234.85 72.99 232.22 75.99 222.33 73.99C222.33 73.99 234.69 80.25 238.8 88.16C238.8 88.16 230.57 86.5099 228.92 87.4999C228.92 87.4999 235.35 94.26 235.02 99.2C233.118 98.8066 231.284 98.1326 229.58 97.2C229.58 97.2 230.58 104.78 229.41 109.72C225.002 107.216 221.093 103.921 217.88 99.9999C217.295 102.523 216.526 104.999 215.58 107.41C215.58 107.41 210.47 101.48 208.33 96.71C208.194 99.8232 207.517 102.889 206.33 105.77C206.33 105.77 197.6 95.77 193.65 88.77C193.65 88.77 193.98 95.85 191.34 99.15C191.34 99.15 178.82 90.7499 179.34 76.2499C179.34 76.2499 178.02 84.4899 173.57 88.2499C173.57 88.2499 164.84 77.6999 166.49 65.5099C166.49 65.5099 162.2 72.43 159.24 73.58C159.24 73.58 149.03 51.02 163.69 31.41C163.69 31.41 163.23 26.6399 154.56 27.1299C154.56 27.1299 156.69 33.72 155.56 37.34C155.54 37.43 153.23 39.43 149.45 37.22Z" fill="#FF4A7C"/>
<path d="M229.42 110.24C229.347 110.254 229.273 110.254 229.2 110.24C225.008 107.879 221.264 104.798 218.14 101.14C217.608 103.381 216.902 105.578 216.03 107.71C215.994 107.783 215.94 107.846 215.874 107.893C215.808 107.94 215.731 107.97 215.65 107.98C215.568 107.993 215.484 107.984 215.407 107.954C215.33 107.924 215.262 107.874 215.21 107.81C212.766 104.95 210.587 101.874 208.7 98.6197C208.473 101.182 207.835 103.691 206.81 106.05C206.778 106.126 206.726 106.193 206.659 106.242C206.592 106.292 206.513 106.322 206.43 106.33C206.348 106.339 206.264 106.33 206.186 106.302C206.108 106.274 206.038 106.229 205.98 106.17C201.73 101.252 197.789 96.0757 194.18 90.6698C194.09 93.0498 193.66 97.1898 191.76 99.5598C191.681 99.6575 191.569 99.722 191.445 99.7406C191.32 99.7591 191.194 99.7302 191.09 99.6598C190.98 99.5898 180.41 92.3498 178.99 79.9498C178.15 82.7198 176.58 86.4797 173.91 88.7597C173.803 88.8391 173.672 88.8781 173.54 88.8697C173.475 88.8666 173.411 88.8499 173.352 88.8206C173.293 88.7914 173.242 88.7503 173.2 88.6998C173.11 88.5898 165.28 78.9898 165.82 67.5798C164.32 69.7498 161.6 73.3398 159.43 74.1798C159.31 74.2271 159.177 74.2265 159.058 74.1781C158.939 74.1296 158.843 74.0371 158.79 73.9198C158.69 73.6898 148.69 50.9898 163.17 31.4198C162.99 30.6298 161.85 27.5698 155.24 27.7298C155.74 29.4898 157.01 34.5197 156.02 37.6297C155.989 37.7144 155.937 37.7902 155.87 37.8498C155.76 37.9398 153.24 40.0298 149.2 37.6998C149.116 37.6506 149.047 37.5783 149.003 37.4914C148.959 37.4046 148.94 37.3068 148.95 37.2098C148.95 37.1398 149.59 30.1198 143.73 21.7398C138.73 14.5598 136.73 8.96972 137.85 5.11972C138.174 4.08276 138.735 3.1354 139.488 2.35263C140.241 1.56985 141.166 0.973253 142.19 0.609831C143.067 0.189251 144.037 -0.00124716 145.008 0.0564861C145.979 0.114219 146.919 0.418239 147.74 0.939787C151.95 3.62979 153.8 11.7198 154.13 18.0298C156.3 18.2498 165.52 19.6198 168.87 26.7798C172.49 25.7198 197.74 19.1798 211.14 38.4698C211.184 38.5314 211.212 38.6026 211.223 38.6775C211.233 38.7523 211.225 38.8285 211.2 38.8997C211.179 38.9731 211.141 39.0404 211.089 39.096C211.036 39.1517 210.972 39.1941 210.9 39.2198L205.05 41.3198C210.31 42.0398 223.54 44.8898 229.05 55.6998C229.092 55.7728 229.114 55.8555 229.114 55.9398C229.114 56.024 229.092 56.1068 229.05 56.1798C229.008 56.2534 228.946 56.3144 228.872 56.3565C228.799 56.3987 228.715 56.4205 228.63 56.4198C225.226 56.4376 221.828 56.6916 218.46 57.1798C218.9 57.4598 219.63 57.8697 220.34 58.2697C224.64 60.6797 233.58 65.6998 235.34 72.9398C235.359 73.0189 235.358 73.1013 235.337 73.1799C235.316 73.2585 235.276 73.3306 235.22 73.3897C235.12 73.4997 232.83 75.9597 225.08 74.9997C228.95 77.2897 236.21 82.1497 239.25 87.9997C239.294 88.0835 239.312 88.1782 239.303 88.2722C239.294 88.3662 239.258 88.4556 239.2 88.5298C239.146 88.6066 239.071 88.6658 238.984 88.6997C238.897 88.7335 238.801 88.7406 238.71 88.7198C236.01 88.1798 231.63 87.5498 229.82 87.8098C231.38 89.5898 235.82 95.0098 235.51 99.2998C235.509 99.3705 235.491 99.44 235.458 99.5025C235.425 99.5651 235.378 99.6189 235.32 99.6598C235.266 99.7025 235.203 99.7336 235.135 99.7508C235.068 99.768 234.998 99.771 234.93 99.7597C233.285 99.4348 231.689 98.9004 230.18 98.1698C230.41 100.37 230.83 105.93 229.9 109.92C229.882 109.995 229.848 110.066 229.8 110.127C229.751 110.187 229.69 110.236 229.62 110.27C229.552 110.275 229.484 110.265 229.42 110.24ZM217.89 99.5197C217.964 99.5209 218.037 99.5375 218.104 99.5685C218.171 99.5994 218.231 99.6442 218.28 99.6998C221.326 103.382 224.979 106.517 229.08 108.97C229.98 104.18 229.08 97.3598 229.08 97.2898C229.068 97.1972 229.082 97.1032 229.121 97.0184C229.16 96.9336 229.222 96.8613 229.3 96.8098C229.377 96.7586 229.468 96.7313 229.56 96.7313C229.653 96.7313 229.743 96.7586 229.82 96.8098C231.301 97.6109 232.881 98.2128 234.52 98.5998C234.33 93.9898 228.62 87.9297 228.52 87.8697C228.467 87.8147 228.426 87.7485 228.402 87.6758C228.378 87.603 228.37 87.5258 228.38 87.4498C228.392 87.3763 228.42 87.3063 228.462 87.2442C228.503 87.1822 228.557 87.1296 228.62 87.0898C230.07 86.2198 235.32 87.0398 237.8 87.4898C233.36 80.2498 222.18 74.4898 222.07 74.4898C221.96 74.4375 221.873 74.3459 221.827 74.2331C221.781 74.1203 221.778 73.9943 221.82 73.8797C221.857 73.7637 221.936 73.6657 222.041 73.6047C222.147 73.5437 222.271 73.5241 222.39 73.5498C230.39 75.1598 233.5 73.4297 234.25 72.8797C232.43 66.2197 223.93 61.4497 219.82 59.1397C217.49 57.8297 216.82 57.4798 217.14 56.8398C217.27 56.5298 217.62 55.7198 227.77 55.4398C220.77 43.0598 202.93 42.0998 202.77 42.0898C202.655 42.0863 202.544 42.0422 202.458 41.9654C202.373 41.8886 202.316 41.7839 202.3 41.6698C202.281 41.5552 202.303 41.4376 202.361 41.3372C202.419 41.2369 202.511 41.16 202.62 41.1197L209.91 38.4997C195.85 19.1097 169 27.7698 168.73 27.8598C168.61 27.9 168.48 27.8934 168.365 27.8415C168.25 27.7896 168.159 27.6961 168.11 27.5798C164.81 19.8098 153.7 18.9898 153.59 18.9898C153.467 18.9803 153.351 18.9264 153.265 18.8381C153.178 18.7498 153.127 18.6331 153.12 18.5097C152.85 11.8997 150.9 4.16976 147.12 1.78976C146.436 1.35525 145.653 1.10322 144.844 1.05771C144.035 1.01219 143.228 1.17469 142.5 1.52975C141.613 1.83511 140.81 2.34433 140.155 3.01645C139.5 3.68856 139.012 4.50482 138.73 5.39975C137.73 8.88975 139.73 14.3498 144.46 21.1698C149.89 28.9198 149.96 35.4398 149.89 36.9798C152.74 38.4998 154.57 37.4798 155.03 37.1698C156.03 33.7098 154.03 27.4798 154.03 27.4098C154.005 27.3385 153.997 27.2623 154.007 27.1875C154.018 27.1126 154.046 27.0414 154.09 26.9798C154.132 26.9167 154.189 26.8639 154.255 26.8258C154.32 26.7876 154.394 26.7651 154.47 26.7597C163.52 26.2397 164.1 31.2797 164.12 31.4997C164.136 31.6205 164.104 31.7429 164.03 31.8398C150.87 49.4298 158.11 69.7098 159.44 73.0398C162.2 71.4898 165.96 65.4397 166 65.3797C166.061 65.282 166.154 65.208 166.263 65.1699C166.372 65.1317 166.491 65.1317 166.6 65.1698C166.706 65.2112 166.795 65.2869 166.853 65.3847C166.911 65.4826 166.934 65.597 166.92 65.7098C165.5 76.2098 172.03 85.5997 173.58 87.6397C177.52 83.8797 178.77 76.3497 178.78 76.2697C178.8 76.1442 178.866 76.031 178.967 75.953C179.067 75.875 179.194 75.8381 179.32 75.8498C179.449 75.8601 179.569 75.9199 179.655 76.0169C179.741 76.1139 179.786 76.2403 179.78 76.3697C179.35 88.9697 189.1 96.9898 191.19 98.5498C193.38 95.2998 193.11 88.9597 193.11 88.8897C193.105 88.7782 193.139 88.6683 193.204 88.5777C193.269 88.4871 193.363 88.4209 193.47 88.3897C193.577 88.3591 193.691 88.3652 193.794 88.4068C193.898 88.4485 193.984 88.5234 194.04 88.6197C197.38 94.4597 204.23 102.62 206.16 104.91C207.103 102.289 207.646 99.5419 207.77 96.7597C207.773 96.6474 207.814 96.5395 207.887 96.4539C207.96 96.3684 208.059 96.3104 208.17 96.2898C208.281 96.2657 208.397 96.2804 208.499 96.3313C208.601 96.3822 208.682 96.4663 208.73 96.5698C210.42 100.34 214.04 104.92 215.38 106.57C216.16 104.406 216.827 102.203 217.38 99.9698C217.402 99.8805 217.449 99.7989 217.514 99.7337C217.579 99.6686 217.661 99.6223 217.75 99.5998L217.89 99.5197Z" fill="black"/>
<path d="M229.42 110.24C229.347 110.254 229.273 110.254 229.2 110.24C225.008 107.879 221.264 104.798 218.14 101.14C217.608 103.381 216.902 105.578 216.03 107.71C215.994 107.783 215.94 107.846 215.874 107.893C215.808 107.94 215.731 107.97 215.65 107.98C215.568 107.993 215.484 107.984 215.407 107.954C215.33 107.924 215.262 107.874 215.21 107.81C212.766 104.95 210.587 101.874 208.7 98.6197C208.473 101.182 207.835 103.691 206.81 106.05C206.778 106.126 206.726 106.193 206.659 106.242C206.592 106.292 206.513 106.322 206.43 106.33C206.348 106.339 206.264 106.33 206.186 106.302C206.108 106.274 206.038 106.229 205.98 106.17C201.73 101.252 197.789 96.0757 194.18 90.6698C194.09 93.0498 193.66 97.1898 191.76 99.5598C191.681 99.6575 191.569 99.722 191.445 99.7406C191.32 99.7591 191.194 99.7302 191.09 99.6598C190.98 99.5898 180.41 92.3498 178.99 79.9498C178.15 82.7198 176.58 86.4797 173.91 88.7597C173.803 88.8391 173.672 88.8781 173.54 88.8697C173.475 88.8666 173.411 88.8499 173.352 88.8206C173.293 88.7914 173.242 88.7503 173.2 88.6998C173.11 88.5898 165.28 78.9898 165.82 67.5798C164.32 69.7498 161.6 73.3398 159.43 74.1798C159.31 74.2271 159.177 74.2265 159.058 74.1781C158.939 74.1296 158.843 74.0371 158.79 73.9198C158.69 73.6898 148.69 50.9898 163.17 31.4198C162.99 30.6298 161.85 27.5698 155.24 27.7298C155.74 29.4898 157.01 34.5197 156.02 37.6297C155.989 37.7144 155.937 37.7902 155.87 37.8498C155.76 37.9398 153.24 40.0298 149.2 37.6998C149.116 37.6506 149.047 37.5783 149.003 37.4914C148.959 37.4046 148.94 37.3068 148.95 37.2098C148.95 37.1398 149.59 30.1198 143.73 21.7398C138.73 14.5598 136.73 8.96972 137.85 5.11972C138.174 4.08276 138.735 3.1354 139.488 2.35263C140.241 1.56985 141.166 0.973253 142.19 0.609831C143.067 0.189251 144.037 -0.00124716 145.008 0.0564861C145.979 0.114219 146.919 0.418239 147.74 0.939787C151.95 3.62979 153.8 11.7198 154.13 18.0298C156.3 18.2498 165.52 19.6198 168.87 26.7798C172.49 25.7198 197.74 19.1798 211.14 38.4698C211.184 38.5314 211.212 38.6026 211.223 38.6775C211.233 38.7523 211.225 38.8285 211.2 38.8997C211.179 38.9731 211.141 39.0404 211.089 39.096C211.036 39.1517 210.972 39.1941 210.9 39.2198L205.05 41.3198C210.31 42.0398 223.54 44.8898 229.05 55.6998C229.092 55.7728 229.114 55.8555 229.114 55.9398C229.114 56.024 229.092 56.1068 229.05 56.1798C229.008 56.2534 228.946 56.3144 228.872 56.3565C228.799 56.3987 228.715 56.4205 228.63 56.4198C225.226 56.4376 221.828 56.6916 218.46 57.1798C218.9 57.4598 219.63 57.8697 220.34 58.2697C224.64 60.6797 233.58 65.6998 235.34 72.9398C235.359 73.0189 235.358 73.1013 235.337 73.1799C235.316 73.2585 235.276 73.3306 235.22 73.3897C235.12 73.4997 232.83 75.9597 225.08 74.9997C228.95 77.2897 236.21 82.1497 239.25 87.9997C239.294 88.0835 239.312 88.1782 239.303 88.2722C239.294 88.3662 239.258 88.4556 239.2 88.5298C239.146 88.6066 239.071 88.6658 238.984 88.6997C238.897 88.7335 238.801 88.7406 238.71 88.7198C236.01 88.1798 231.63 87.5498 229.82 87.8098C231.38 89.5898 235.82 95.0098 235.51 99.2998C235.509 99.3705 235.491 99.44 235.458 99.5025C235.425 99.5651 235.378 99.6189 235.32 99.6598C235.266 99.7025 235.203 99.7336 235.135 99.7508C235.068 99.768 234.998 99.771 234.93 99.7597C233.285 99.4348 231.689 98.9004 230.18 98.1698C230.41 100.37 230.83 105.93 229.9 109.92C229.882 109.995 229.848 110.066 229.8 110.127C229.751 110.187 229.69 110.236 229.62 110.27C229.552 110.275 229.484 110.265 229.42 110.24ZM217.89 99.5197C217.964 99.5209 218.037 99.5375 218.104 99.5685C218.171 99.5994 218.231 99.6442 218.28 99.6998C221.326 103.382 224.979 106.517 229.08 108.97C229.98 104.18 229.08 97.3598 229.08 97.2898C229.068 97.1972 229.082 97.1032 229.121 97.0184C229.16 96.9336 229.222 96.8613 229.3 96.8098C229.377 96.7586 229.468 96.7313 229.56 96.7313C229.653 96.7313 229.743 96.7586 229.82 96.8098C231.301 97.6109 232.881 98.2128 234.52 98.5998C234.33 93.9898 228.62 87.9297 228.52 87.8697C228.467 87.8147 228.426 87.7485 228.402 87.6758C228.378 87.603 228.37 87.5258 228.38 87.4498C228.392 87.3763 228.42 87.3063 228.462 87.2442C228.503 87.1822 228.557 87.1296 228.62 87.0898C230.07 86.2198 235.32 87.0398 237.8 87.4898C233.36 80.2498 222.18 74.4898 222.07 74.4898C221.96 74.4375 221.873 74.3459 221.827 74.2331C221.781 74.1203 221.778 73.9943 221.82 73.8797C221.857 73.7637 221.936 73.6657 222.041 73.6047C222.147 73.5437 222.271 73.5241 222.39 73.5498C230.39 75.1598 233.5 73.4297 234.25 72.8797C232.43 66.2197 223.93 61.4497 219.82 59.1397C217.49 57.8297 216.82 57.4798 217.14 56.8398C217.27 56.5298 217.62 55.7198 227.77 55.4398C220.77 43.0598 202.93 42.0998 202.77 42.0898C202.655 42.0863 202.544 42.0422 202.458 41.9654C202.373 41.8886 202.316 41.7839 202.3 41.6698C202.281 41.5552 202.303 41.4376 202.361 41.3372C202.419 41.2369 202.511 41.16 202.62 41.1197L209.91 38.4997C195.85 19.1097 169 27.7698 168.73 27.8598C168.61 27.9 168.48 27.8934 168.365 27.8415C168.25 27.7896 168.159 27.6961 168.11 27.5798C164.81 19.8098 153.7 18.9898 153.59 18.9898C153.467 18.9803 153.351 18.9264 153.265 18.8381C153.178 18.7498 153.127 18.6331 153.12 18.5097C152.85 11.8997 150.9 4.16976 147.12 1.78976C146.436 1.35525 145.653 1.10322 144.844 1.05771C144.035 1.01219 143.228 1.17469 142.5 1.52975C141.613 1.83511 140.81 2.34433 140.155 3.01645C139.5 3.68856 139.012 4.50482 138.73 5.39975C137.73 8.88975 139.73 14.3498 144.46 21.1698C149.89 28.9198 149.96 35.4398 149.89 36.9798C152.74 38.4998 154.57 37.4798 155.03 37.1698C156.03 33.7098 154.03 27.4798 154.03 27.4098C154.005 27.3385 153.997 27.2623 154.007 27.1875C154.018 27.1126 154.046 27.0414 154.09 26.9798C154.132 26.9167 154.189 26.8639 154.255 26.8258C154.32 26.7876 154.394 26.7651 154.47 26.7597C163.52 26.2397 164.1 31.2797 164.12 31.4997C164.136 31.6205 164.104 31.7429 164.03 31.8398C150.87 49.4298 158.11 69.7098 159.44 73.0398C162.2 71.4898 165.96 65.4397 166 65.3797C166.061 65.282 166.154 65.208 166.263 65.1699C166.372 65.1317 166.491 65.1317 166.6 65.1698C166.706 65.2112 166.795 65.2869 166.853 65.3847C166.911 65.4826 166.934 65.597 166.92 65.7098C165.5 76.2098 172.03 85.5997 173.58 87.6397C177.52 83.8797 178.77 76.3497 178.78 76.2697C178.8 76.1442 178.866 76.031 178.967 75.953C179.067 75.875 179.194 75.8381 179.32 75.8498C179.449 75.8601 179.569 75.9199 179.655 76.0169C179.741 76.1139 179.786 76.2403 179.78 76.3697C179.35 88.9697 189.1 96.9898 191.19 98.5498C193.38 95.2998 193.11 88.9597 193.11 88.8897C193.105 88.7782 193.139 88.6683 193.204 88.5777C193.269 88.4871 193.363 88.4209 193.47 88.3897C193.577 88.3591 193.691 88.3652 193.794 88.4068C193.898 88.4485 193.984 88.5234 194.04 88.6197C197.38 94.4597 204.23 102.62 206.16 104.91C207.103 102.289 207.646 99.5419 207.77 96.7597C207.773 96.6474 207.814 96.5395 207.887 96.4539C207.96 96.3684 208.059 96.3104 208.17 96.2898C208.281 96.2657 208.397 96.2804 208.499 96.3313C208.601 96.3822 208.682 96.4663 208.73 96.5698C210.42 100.34 214.04 104.92 215.38 106.57C216.16 104.406 216.827 102.203 217.38 99.9698C217.402 99.8805 217.449 99.7989 217.514 99.7337C217.579 99.6686 217.661 99.6223 217.75 99.5998L217.89 99.5197Z" fill="black"/>
<path d="M229.42 110.24C229.324 110.24 229.23 110.211 229.15 110.158C229.07 110.104 229.007 110.029 228.97 109.94C228.72 109.37 204.16 52.6801 169.14 32.7401C169.025 32.6749 168.94 32.5667 168.904 32.4393C168.869 32.3118 168.885 32.1754 168.95 32.06C168.981 32.002 169.024 31.9508 169.075 31.9096C169.127 31.8684 169.186 31.8381 169.249 31.8204C169.313 31.8026 169.379 31.7978 169.445 31.8063C169.51 31.8149 169.573 31.8365 169.63 31.8699C204.95 51.9799 229.63 108.97 229.88 109.54C229.908 109.6 229.923 109.665 229.925 109.732C229.927 109.798 229.916 109.864 229.891 109.926C229.867 109.987 229.83 110.043 229.784 110.091C229.737 110.138 229.681 110.175 229.62 110.2C229.557 110.228 229.489 110.242 229.42 110.24Z" fill="black"/>
<path d="M183.82 43.4301C183.706 43.4306 183.595 43.3923 183.506 43.3214C183.417 43.2504 183.355 43.1512 183.33 43.0401C183.303 42.9116 183.328 42.7777 183.399 42.6673C183.47 42.5569 183.582 42.4789 183.71 42.4501C189.459 41.0153 195.406 40.5422 201.31 41.0501C201.754 41.1073 202.202 41.1274 202.65 41.1102C202.711 41.0862 202.776 41.0747 202.842 41.0764C202.907 41.078 202.972 41.0929 203.031 41.1199C203.091 41.147 203.145 41.1857 203.189 41.2338C203.233 41.282 203.268 41.3385 203.29 41.4001C203.314 41.4618 203.326 41.5276 203.324 41.5938C203.322 41.66 203.308 41.7252 203.281 41.7857C203.254 41.8462 203.215 41.9007 203.167 41.9461C203.119 41.9915 203.062 42.0268 203 42.0501C202.415 42.1632 201.815 42.1632 201.23 42.0501C195.427 41.544 189.58 42.0104 183.93 43.4301H183.82Z" fill="black"/>
<path d="M216.05 57.29C206.34 57.29 191.93 51.6501 191.38 51.0601C191.333 51.0136 191.296 50.9583 191.271 50.8973C191.245 50.8364 191.232 50.7711 191.232 50.7051C191.232 50.6391 191.245 50.5737 191.271 50.5128C191.296 50.4519 191.333 50.3966 191.38 50.3501C191.47 50.2726 191.586 50.23 191.705 50.23C191.824 50.23 191.939 50.2726 192.03 50.3501C193.17 51.0501 209.3 57.2001 218.18 56.2001C218.312 56.1859 218.445 56.2239 218.55 56.3062C218.654 56.3884 218.722 56.5081 218.74 56.64C218.754 56.7723 218.716 56.9049 218.634 57.0095C218.552 57.1141 218.432 57.1826 218.3 57.2001C217.552 57.2708 216.801 57.3008 216.05 57.29Z" fill="black"/>
<path d="M217.89 100.52C217.759 100.505 217.639 100.439 217.557 100.336C217.474 100.233 217.436 100.101 217.45 99.9699C217.45 99.7399 218.07 94.2199 220.59 92.1099C220.639 92.0671 220.697 92.0345 220.759 92.0142C220.821 91.994 220.887 91.9864 220.953 91.992C221.018 91.9976 221.081 92.0163 221.139 92.0468C221.197 92.0774 221.248 92.1192 221.29 92.1699C221.375 92.2726 221.416 92.4044 221.404 92.5371C221.393 92.6697 221.331 92.7927 221.23 92.8798C219.03 94.7198 218.45 100.02 218.44 100.07C218.434 100.136 218.414 100.2 218.383 100.258C218.352 100.316 218.31 100.368 218.259 100.41C218.208 100.451 218.149 100.483 218.085 100.502C218.022 100.521 217.956 100.527 217.89 100.52Z" fill="black"/>
<path d="M208.34 97.2301H208.29C208.158 97.215 208.037 97.1491 207.953 97.0464C207.869 96.9437 207.828 96.8122 207.84 96.68C207.84 96.21 208.96 85.2101 214.84 81.9701C214.897 81.9366 214.96 81.915 215.025 81.9065C215.09 81.8979 215.157 81.9027 215.22 81.9204C215.284 81.9381 215.343 81.9684 215.394 82.0096C215.446 82.0508 215.489 82.102 215.52 82.16C215.553 82.2168 215.575 82.2798 215.583 82.3452C215.592 82.4106 215.587 82.477 215.569 82.5405C215.552 82.604 215.521 82.6632 215.48 82.7147C215.439 82.7662 215.388 82.8088 215.33 82.8401C209.92 85.8401 208.86 96.66 208.85 96.77C208.837 96.8964 208.778 97.0137 208.684 97.0987C208.59 97.1838 208.467 97.2307 208.34 97.2301Z" fill="black"/>
<path d="M144.01 13.7002C146.302 13.7002 148.16 11.5646 148.16 8.93016C148.16 6.29576 146.302 4.16016 144.01 4.16016C141.718 4.16016 139.86 6.29576 139.86 8.93016C139.86 11.5646 141.718 13.7002 144.01 13.7002Z" fill="white"/>
<path d="M144.01 14.2C141.44 14.2 139.35 11.8399 139.35 8.93994C139.35 6.03994 141.44 3.66992 144.01 3.66992C146.58 3.66992 148.66 6.02994 148.66 8.93994C148.66 11.8499 146.57 14.2 144.01 14.2ZM144.01 4.66992C142.01 4.66992 140.35 6.57994 140.35 8.93994C140.35 11.2999 141.99 13.2 144.01 13.2C146.03 13.2 147.66 11.2899 147.66 8.93994C147.66 6.58994 146.02 4.66992 144.01 4.66992Z" fill="black"/>
<path d="M143.11 15.84C143.02 15.61 145.72 14.36 148.11 14.61C148.252 17.078 148.252 19.552 148.11 22.0199C148.11 22.0199 145.16 21.36 143.11 15.84Z" fill="white"/>
<path d="M148.16 22.5198H148.05C147.92 22.5198 144.77 21.7399 142.64 16.0299C142.612 15.939 142.606 15.8431 142.622 15.7495C142.638 15.6558 142.675 15.5671 142.73 15.4899C143.14 14.9599 145.84 13.8898 148.21 14.1198C148.33 14.1318 148.442 14.1872 148.525 14.2755C148.608 14.3637 148.656 14.479 148.66 14.5999C148.815 17.1075 148.815 19.6222 148.66 22.1298C148.631 22.2609 148.552 22.3756 148.44 22.4499C148.355 22.5002 148.258 22.5245 148.16 22.5198ZM143.69 15.9799C145.09 19.5299 146.87 20.8499 147.74 21.3099C147.84 19.8299 147.74 16.7199 147.68 15.0799C146.305 15.0728 144.947 15.3807 143.71 15.9799H143.69Z" fill="black"/>
<path d="M247.54 192.02C247.54 192.02 244.21 201.54 243.59 204.63C244.119 206.596 244.183 208.658 243.775 210.653C243.367 212.648 242.499 214.52 241.24 216.12C236.92 221.92 228.76 232.55 215.3 226.74C212.394 225.553 209.594 224.121 206.93 222.46C206.265 222.029 205.624 221.561 205.01 221.06C200.28 217.2 199.5 212.68 201.72 204.88C205.05 193.15 211.48 198.58 211.48 198.58C212.835 195.668 214.402 192.861 216.17 190.18C218.47 186.99 221.73 168.75 228.28 171.18C228.943 171.426 229.517 171.865 229.93 172.44C233.32 177.1 227.35 190.72 225.93 193.61L228.93 194.07H229.19C231.441 189.457 233.366 184.692 234.95 179.81C235.49 178.16 236.04 176.41 236.54 174.57C236.73 173.91 236.91 173.25 237.08 172.57C237.25 171.89 237.42 171.22 237.59 170.52C237.71 170.02 237.82 169.52 237.94 169C238.06 168.48 238.18 167.86 238.3 167.28C238.52 166.18 238.72 165.06 238.91 163.94C238.91 163.81 238.91 163.69 238.96 163.57C239.09 162.78 239.2 161.99 239.3 161.19L239.42 160.19L239.57 158.76H239.72L239.9 158.83L240.09 158.9C241.75 159.51 246.76 161.97 248.86 169.54C248.866 169.566 248.866 169.593 248.86 169.62C249.02 170.22 249.17 170.84 249.3 171.51C249.3 171.7 249.37 171.9 249.4 172.09C249.43 172.28 249.48 172.56 249.51 172.8C249.62 173.61 249.7 174.46 249.74 175.37C249.745 175.443 249.745 175.516 249.74 175.59C249.882 181.148 249.139 186.694 247.54 192.02Z" fill="#FFE961"/>
<path d="M211.82 198.22C212.628 199.066 213.497 199.851 214.42 200.57C215.37 201.33 216.57 201.71 217.42 202.71C219.97 205.92 217.61 210.52 214.28 212.05C210.6 213.94 207.23 210.34 205.83 207.22C208.26 212.04 212.92 214.52 216.69 209.44C218.01 207.64 218.38 204.94 216.85 203.19C216.17 202.39 214.96 202.03 213.95 201.28C212.96 200.57 212.027 199.785 211.16 198.93C211.113 198.883 211.076 198.828 211.051 198.767C211.025 198.706 211.012 198.641 211.012 198.575C211.012 198.509 211.025 198.444 211.051 198.383C211.076 198.322 211.113 198.266 211.16 198.22C211.207 198.172 211.263 198.133 211.324 198.107C211.386 198.08 211.453 198.067 211.52 198.067C211.587 198.067 211.654 198.08 211.716 198.107C211.777 198.133 211.833 198.172 211.88 198.22H211.82Z" fill="black"/>
<path d="M222.01 193.26C222.01 193.26 224.52 193.42 225.92 193.64L222.01 193.26Z" fill="#FFEC79"/>
<path d="M222.01 193.26L226.01 193.14C226.126 193.163 226.229 193.226 226.304 193.317C226.379 193.408 226.419 193.522 226.419 193.64C226.419 193.758 226.379 193.872 226.304 193.963C226.229 194.054 226.126 194.117 226.01 194.14H225.83L221.99 193.27L222.01 193.26Z" fill="black"/>
<path d="M229.18 194.15L229.92 194.5C229.92 194.5 237.83 175.63 243.92 178.68C250.01 181.73 239.47 197.21 239.47 197.21C239.47 197.21 243.83 197.13 243.59 204.63" fill="#FFEC79"/>
<path d="M243.59 205.13C243.523 205.129 243.458 205.114 243.397 205.087C243.336 205.06 243.281 205.021 243.236 204.973C243.19 204.924 243.154 204.867 243.131 204.805C243.108 204.743 243.097 204.676 243.1 204.61C243.19 201.89 242.65 199.85 241.53 198.7C241.021 198.116 240.302 197.757 239.53 197.7C239.439 197.701 239.349 197.677 239.269 197.632C239.19 197.586 239.125 197.52 239.08 197.44C239.036 197.36 239.013 197.271 239.013 197.18C239.013 197.089 239.036 197 239.08 196.92C239.15 196.81 246.48 185.92 245.19 180.99C245.102 180.588 244.924 180.21 244.669 179.886C244.415 179.563 244.09 179.301 243.72 179.12C243.363 178.946 242.973 178.851 242.576 178.841C242.18 178.83 241.785 178.905 241.42 179.06C236.19 181 230.42 194.54 230.42 194.68C230.394 194.741 230.356 194.797 230.307 194.843C230.259 194.89 230.202 194.926 230.14 194.95C230.079 194.977 230.012 194.991 229.945 194.991C229.878 194.991 229.811 194.977 229.75 194.95L229 194.6C228.882 194.54 228.793 194.436 228.75 194.311C228.707 194.186 228.714 194.05 228.77 193.93C228.826 193.811 228.927 193.719 229.051 193.675C229.174 193.63 229.311 193.635 229.43 193.69L229.7 193.82C230.81 191.3 235.98 180.02 241.09 178.13C241.583 177.927 242.113 177.831 242.646 177.849C243.178 177.866 243.701 177.996 244.18 178.23C244.68 178.472 245.119 178.824 245.465 179.258C245.811 179.693 246.055 180.199 246.18 180.74C247.41 185.47 241.97 194.35 240.36 196.85C241.082 197.052 241.738 197.442 242.26 197.98C243.6 199.34 244.26 201.58 244.13 204.64C244.127 204.708 244.111 204.774 244.083 204.836C244.054 204.898 244.013 204.953 243.963 204.999C243.913 205.044 243.854 205.079 243.79 205.102C243.726 205.124 243.658 205.134 243.59 205.13Z" fill="black"/>
<path d="M239.62 197.69C236.62 198.69 230.12 200.69 229.76 204.33C230.16 207.98 234.85 207.45 237.54 207.19C238.54 207.19 239.77 206.8 240.71 207.34C240.224 207.11 239.679 207.037 239.15 207.13C237.55 207.27 235.97 207.59 234.35 207.62C230.35 208 227.35 204.54 230.73 201.34C233.16 199.1 236.26 197.84 239.33 196.74C239.396 196.721 239.464 196.715 239.532 196.722C239.6 196.73 239.666 196.751 239.726 196.784C239.786 196.817 239.839 196.861 239.881 196.915C239.924 196.968 239.956 197.029 239.975 197.095C239.994 197.161 240 197.229 239.992 197.297C239.985 197.365 239.964 197.431 239.931 197.491C239.898 197.551 239.854 197.604 239.8 197.646C239.747 197.689 239.686 197.721 239.62 197.74V197.69Z" fill="black"/>
<path d="M249.55 172.84C247.83 161.01 239.55 158.84 239.55 158.84C238.905 164.951 237.646 170.982 235.79 176.84L234.91 179.84C234.91 179.84 242.22 171.74 249.78 175.69L249.55 172.84Z" fill="#0139F2"/>
<path d="M221.71 193.26C221.71 193.26 224.21 193.42 225.62 193.64L221.71 193.26Z" fill="#0139F2"/>
<path d="M222.87 228.92C220.189 228.885 217.545 228.3 215.1 227.2C212.168 226.005 209.344 224.56 206.66 222.88L206.57 222.81C205.925 222.384 205.304 221.924 204.71 221.43C199.92 217.52 198.95 212.83 201.26 204.72C202.51 200.33 204.35 197.72 206.73 197.01C207.506 196.809 208.317 196.776 209.107 196.914C209.897 197.052 210.648 197.357 211.31 197.81C212.601 195.054 214.099 192.4 215.79 189.87C216.706 188.11 217.447 186.265 218 184.36C219.82 179.05 222.08 172.45 225.5 170.84C225.965 170.614 226.472 170.488 226.988 170.469C227.505 170.45 228.02 170.539 228.5 170.73C229.255 171.014 229.909 171.515 230.38 172.17C233.89 176.99 228.1 190.23 226.71 193.24L228.95 193.58C231.108 189.083 232.969 184.45 234.52 179.71C234.97 178.33 235.52 176.5 236.09 174.53C236.28 173.87 236.46 173.21 236.63 172.53C236.8 171.85 236.97 171.18 237.14 170.48C237.21 170.17 237.28 169.85 237.36 169.53L237.48 168.97C237.6 168.42 237.72 167.84 237.84 167.26C238.06 166.17 238.26 165.05 238.45 163.94C238.456 163.83 238.456 163.72 238.45 163.61C238.59 162.78 238.7 162 238.8 161.21L239.06 158.83C239.076 158.75 239.109 158.675 239.158 158.61C239.206 158.545 239.269 158.491 239.341 158.454C239.413 158.416 239.493 158.396 239.574 158.393C239.655 158.391 239.736 158.407 239.81 158.44H239.88L240.12 158.53L240.31 158.6C241.86 159.17 247.17 161.68 249.31 169.6C249.316 169.626 249.316 169.654 249.31 169.68C249.49 170.39 249.64 171 249.75 171.61C249.791 171.778 249.82 171.948 249.84 172.12C249.9 172.43 249.94 172.68 249.97 172.93C250.09 173.8 250.16 174.65 250.2 175.54C250.206 175.586 250.206 175.633 250.2 175.68C250.206 175.706 250.206 175.734 250.2 175.76C250.299 181.329 249.526 186.879 247.91 192.21C247.91 192.3 244.68 201.47 244.01 204.62C244.537 206.647 244.588 208.769 244.16 210.819C243.731 212.87 242.835 214.793 241.54 216.44C238.39 220.79 232.33 228.92 222.87 228.92ZM208.06 197.82C207.694 197.816 207.329 197.87 206.98 197.98C204.98 198.6 203.34 200.98 202.19 204.98C199.99 212.73 200.83 216.98 205.32 220.63C205.919 221.124 206.546 221.582 207.2 222L207.28 222.07C209.899 223.689 212.649 225.087 215.5 226.25C228.78 231.98 236.93 221.05 240.84 215.79C242.041 214.256 242.873 212.465 243.268 210.557C243.664 208.649 243.613 206.675 243.12 204.79C243.095 204.702 243.095 204.608 243.12 204.52C243.73 201.47 246.89 192.43 247.12 191.86C248.694 186.675 249.457 181.278 249.38 175.86C249.375 175.82 249.375 175.78 249.38 175.74V175.59C249.33 174.69 249.26 173.86 249.15 173.02C249.15 172.78 249.08 172.55 249.04 172.33C249 172.11 248.98 171.92 248.94 171.76C248.81 171.1 248.67 170.49 248.51 169.9C248.505 169.867 248.505 169.833 248.51 169.8C246.42 162.46 241.62 160.11 240.1 159.54L239.9 161.31C239.8 162.12 239.69 162.92 239.55 163.71C239.557 163.816 239.557 163.923 239.55 164.03C239.35 165.21 239.15 166.33 238.93 167.44L238.57 169.17L238.44 169.73C238.37 170.05 238.3 170.38 238.22 170.73C238.05 171.43 237.88 172.11 237.71 172.73C237.54 173.35 237.35 174.08 237.16 174.73C236.62 176.73 236.02 178.59 235.57 179.99C233.975 184.887 232.044 189.669 229.79 194.3C229.744 194.394 229.668 194.471 229.574 194.518C229.48 194.565 229.373 194.579 229.27 194.56L226.01 194.06C225.932 194.05 225.857 194.022 225.793 193.976C225.728 193.931 225.675 193.87 225.64 193.8C225.603 193.731 225.584 193.653 225.584 193.575C225.584 193.496 225.603 193.419 225.64 193.35C227.78 189 232.64 176.8 229.64 172.69C229.28 172.197 228.782 171.822 228.21 171.61C227.86 171.467 227.484 171.4 227.106 171.414C226.729 171.428 226.358 171.522 226.02 171.69C222.97 173.12 220.7 179.77 219.02 184.62C218.457 186.624 217.672 188.56 216.68 190.39C214.93 193.045 213.38 195.826 212.04 198.71C212.005 198.779 211.955 198.839 211.895 198.887C211.835 198.935 211.765 198.97 211.69 198.99C211.615 199.004 211.537 199.002 211.463 198.983C211.388 198.964 211.319 198.929 211.26 198.88C210.332 198.198 209.212 197.827 208.06 197.82Z" fill="black"/>
<path d="M243.59 205.13C243.523 205.129 243.458 205.114 243.397 205.087C243.336 205.06 243.281 205.021 243.236 204.973C243.19 204.924 243.154 204.867 243.131 204.805C243.108 204.743 243.097 204.676 243.1 204.61C243.19 201.89 242.65 199.85 241.53 198.7C241.021 198.116 240.302 197.757 239.53 197.7C239.439 197.701 239.349 197.677 239.269 197.632C239.19 197.586 239.125 197.52 239.08 197.44C239.036 197.36 239.013 197.271 239.013 197.18C239.013 197.089 239.036 197 239.08 196.92C239.15 196.81 246.48 185.92 245.19 180.99C245.102 180.588 244.924 180.21 244.669 179.886C244.415 179.563 244.09 179.301 243.72 179.12C243.363 178.946 242.973 178.851 242.576 178.841C242.18 178.83 241.785 178.905 241.42 179.06C236.19 181 230.42 194.54 230.42 194.68C230.394 194.741 230.356 194.797 230.307 194.843C230.259 194.89 230.202 194.926 230.14 194.95C230.079 194.977 230.012 194.991 229.945 194.991C229.878 194.991 229.811 194.977 229.75 194.95L229 194.6C228.882 194.54 228.793 194.436 228.75 194.311C228.707 194.186 228.714 194.05 228.77 193.93C228.826 193.811 228.927 193.719 229.051 193.675C229.174 193.63 229.311 193.635 229.43 193.69L229.7 193.82C230.81 191.3 235.98 180.02 241.09 178.13C241.583 177.927 242.113 177.831 242.646 177.849C243.178 177.866 243.701 177.996 244.18 178.23C244.68 178.472 245.119 178.824 245.465 179.258C245.811 179.693 246.055 180.199 246.18 180.74C247.41 185.47 241.97 194.35 240.36 196.85C241.082 197.052 241.738 197.442 242.26 197.98C243.6 199.34 244.26 201.58 244.13 204.64C244.127 204.708 244.111 204.774 244.083 204.836C244.054 204.898 244.013 204.953 243.963 204.999C243.913 205.044 243.854 205.079 243.79 205.102C243.726 205.124 243.658 205.134 243.59 205.13Z" fill="black"/>
<path d="M218.71 202.3C222.71 205.83 222.4 212.07 220.85 216.75C220.57 217.42 220.32 218.11 220.03 218.75C220.16 218.03 220.34 217.33 220.5 216.63C221.44 211.88 221.87 206.31 218.71 202.28V202.3Z" fill="black"/>
<path d="M152.13 173.8C152.13 173.8 155.38 175.16 154.89 183.06L152.13 173.8Z" fill="#F64057"/>
<path d="M152.32 173.34C155.39 175.53 155.14 179.73 154.89 183.06C154.89 180.61 154.7 177.99 153.46 175.83C153.1 175.152 152.546 174.595 151.87 174.23C151.806 174.204 151.749 174.164 151.701 174.115C151.654 174.065 151.617 174.006 151.593 173.942C151.57 173.877 151.559 173.809 151.563 173.74C151.567 173.671 151.585 173.604 151.616 173.543C151.647 173.482 151.691 173.427 151.743 173.383C151.796 173.34 151.858 173.307 151.924 173.288C151.99 173.269 152.059 173.264 152.127 173.273C152.195 173.282 152.261 173.305 152.32 173.34Z" fill="black"/>
</g>
<defs>
<clipPath id="clip0_124_4078">
<rect width="236.35" height="264.8" fill="white" transform="translate(14)"/>
</clipPath>
</defs>
</svg>
