<svg width="88" height="34" viewBox="0 0 88 34" fill="none" xmlns="http://www.w3.org/2000/svg">
<g clip-path="url(#clip0_5322_26096)">
<path d="M86.7961 6.1102C86.1723 4.99435 85.2812 4.14631 84.2118 3.4768C83.6326 2.76266 82.9197 2.13779 82.1177 1.69145L81.6275 2.49486C81.6275 2.49486 81.6275 2.49486 81.583 2.49486L82.0731 1.64682C80.8701 0.97731 79.4888 0.620239 78.1075 0.620239V1.51292V2.31632V0.620239C76.7263 0.620239 75.345 0.97731 74.142 1.64682C72.9389 2.31632 71.9141 3.29827 71.2012 4.50338H71.2458C70.5328 5.75313 70.1764 7.13677 70.1764 8.56506H70.1318C70.1318 9.99334 70.4883 11.377 71.2012 12.6267L72.7607 11.7341L72.9835 11.6002V11.6448L72.7607 11.7787C72.7607 11.7787 72.7607 11.7787 72.7607 11.7341L71.2458 12.6714C71.9587 13.8765 72.9835 14.8584 74.1865 15.5279L74.5875 14.7692L74.1865 15.4833C74.8994 15.885 75.6569 16.1528 76.4589 16.3313C76.5035 16.376 76.548 16.376 76.5926 16.4206C76.6372 16.4652 76.7263 16.4652 76.7708 16.5099V16.5545H76.8599C77.7511 17.0008 78.6868 17.2686 79.667 17.3579L79.6225 17.4472H80.2908C81.583 17.4472 82.8751 17.1347 84.0336 16.4652C85.1921 15.8404 86.1278 14.9031 86.7961 13.7426C87.4645 12.5821 87.821 11.2431 87.821 9.90407C87.8655 8.60969 87.5091 7.31531 86.7961 6.1102ZM76.7263 6.5119L76.9936 7.22604L76.9491 7.27068L76.7263 6.5119C76.6817 6.5119 76.6817 6.5119 76.7263 6.5119ZM76.2361 7.09214L76.5035 6.86897L76.2361 7.09214ZM76.147 7.22604L76.5926 7.13677V7.18141L76.147 7.22604C76.147 7.27068 76.147 7.27068 76.147 7.22604ZM76.1025 7.40458L76.1916 7.62775L76.1025 7.40458C76.0579 7.40458 76.0579 7.40458 76.1025 7.40458ZM75.5232 9.45773V9.50237V9.547V9.45773ZM75.4787 9.36846V9.4131V9.36846C75.4787 9.4131 75.4787 9.4131 75.4787 9.36846ZM75.5232 9.6809L75.4341 9.90407V9.85944V9.8148V9.85944C75.4341 9.85944 75.4341 9.85944 75.4341 9.8148V9.77017L75.4787 9.6809L75.4341 9.77017L75.5232 9.6809V9.63627V9.6809ZM75.5678 9.63627L75.6123 9.59163L75.5678 9.63627ZM75.6123 9.59163L75.7015 9.50237L75.6123 9.59163ZM75.8351 11.7787C75.8797 11.7787 75.9242 11.7787 75.9688 11.8233C75.9242 11.7787 75.8797 11.7787 75.8351 11.7787ZM76.0134 12.2697H76.147H76.0134ZM76.9491 12.0911C76.6817 12.0465 76.4144 12.0019 76.1916 11.9126V10.7967C76.4589 10.886 76.6817 10.9753 76.9491 11.0645V12.0911ZM77.7065 9.32383H77.662H77.6174C77.3946 9.32383 77.1273 9.2792 76.9045 9.18993C76.7263 9.10066 76.548 8.96676 76.4144 8.83286H76.3698C76.2807 8.69896 76.147 8.60969 76.0134 8.56506L75.5678 9.59163V9.547L76.0134 8.56506C75.9242 8.52042 75.8351 8.47579 75.746 8.47579C75.7015 8.47579 75.7015 8.47579 75.6569 8.47579C75.6569 8.43115 75.6569 8.43115 75.7015 8.38652C75.746 8.38652 75.746 8.38652 75.7906 8.38652L75.9242 7.94018L75.746 8.43115L75.8797 8.47579H75.9688H76.0134H76.0579C76.1916 8.47579 76.3253 8.43115 76.4589 8.38652L76.2807 7.94018L76.3253 7.98482L76.5035 8.43115C76.5926 8.38652 76.6372 8.38652 76.7263 8.29725L77.662 9.05603C77.7065 9.10066 77.7065 9.1453 77.7511 9.1453C77.8402 9.23456 77.9739 9.32383 78.063 9.32383H78.1075H78.1521C78.0184 9.32383 77.8402 9.36846 77.7065 9.32383ZM81.1374 9.85944C81.1374 9.99334 81.1374 10.1719 81.0483 10.3058C81.0037 10.4397 80.9146 10.5736 80.781 10.6628C80.5136 10.886 80.1572 11.0199 79.7561 11.0199C79.4442 11.0199 79.1769 10.9753 78.9096 10.8414C79.1323 10.7521 79.3551 10.6182 79.5779 10.4397C79.8453 10.2165 80.0235 9.90407 80.1572 9.59163C80.2908 9.32383 80.3354 9.01139 80.3354 8.65432C80.4245 8.69896 80.5136 8.69896 80.6027 8.78823C80.7809 8.87749 80.9146 9.01139 81.0037 9.18993C81.0929 9.4131 81.182 9.63627 81.1374 9.85944ZM81.4939 14.6799L81.4493 14.5906H81.4939V14.6799C81.5384 14.6799 81.5384 14.6799 81.4939 14.6799Z" fill="#0A0A0A"/>
<path d="M69.6434 12.3141L68.0393 11.4661C67.8165 11.2429 67.5046 11.109 67.1927 11.109V11.1537H61.2221V12.3588L61.1776 12.3141L61.2221 11.1537C60.9102 11.1537 60.5983 11.2876 60.4201 11.5107L60.3755 11.4661C60.1527 11.6893 60.0191 12.0017 60.0191 12.3141V12.5373L58.1922 11.6446C58.1477 11.5554 58.1031 11.5107 58.0586 11.4661L57.9695 11.5554L58.0586 11.4661C57.8358 11.2429 57.5239 11.109 57.212 11.109V11.1537H51.1968V12.3588L51.1522 12.3141L51.1968 11.1537C50.8849 11.1537 50.573 11.2876 50.3948 11.5107L50.3502 11.4661C50.172 11.6446 50.0383 11.9124 49.9938 12.2249C49.1917 11.6893 48.3006 11.2876 47.3649 11.0644V11.109C46.3847 10.8858 45.449 10.7519 44.4687 10.7519L44.4241 12.5373C44.736 12.5373 45.0479 12.5373 45.3153 12.5819C44.2905 12.7158 43.3102 13.0283 42.3745 13.5192C41.0824 14.1441 39.9684 15.1261 39.1664 16.3312C38.8545 16.8221 38.5872 17.3578 38.409 17.8934V14.9029C38.9882 14.278 39.6565 13.7424 40.414 13.3853C41.6616 12.8051 43.0429 12.4927 44.4241 12.4927L44.4687 10.7073C42.8201 10.6627 41.1715 11.0198 39.6565 11.7785C39.0328 12.091 38.409 12.4927 37.8743 12.939C37.8297 12.8944 37.7406 12.8944 37.6515 12.8944H37.295C37.5624 12.6266 37.8297 12.3588 38.0079 12.0463C38.409 11.3322 38.5872 10.4841 38.4535 9.68074C38.3198 8.87733 37.9634 8.11855 37.3396 7.53831C36.9831 7.18124 36.5376 6.91344 36.0474 6.73491C36.0029 6.69027 35.9138 6.69027 35.8692 6.69027C35.691 6.42247 35.4682 6.15467 35.2009 5.88686L34.6216 6.4671L35.2009 5.84223C34.7998 5.44053 34.3543 5.12809 33.8196 4.94955C33.2849 4.72639 32.7057 4.63712 32.171 4.68175L32.2155 6.4671C32.5274 6.4671 32.8839 6.51174 33.1958 6.64564C33.2403 6.64564 33.2849 6.69027 33.2849 6.69027C33.0621 6.77954 32.8393 6.86881 32.6165 6.95808C32.0373 7.27051 31.5472 7.76148 31.2353 8.34172C30.8788 8.92196 30.7452 9.54684 30.7452 10.2163C30.7452 10.4395 30.7452 10.618 30.7897 10.8412C30.656 10.7519 30.5224 10.6627 30.3887 10.5288L29.7203 11.1537L30.3441 10.4841C30.1214 10.261 29.9431 10.0378 29.8095 9.72537C29.6758 9.45757 29.6312 9.18976 29.6312 8.87733L27.849 8.83269C27.849 9.41293 27.9381 9.94854 28.1609 10.4841C28.2945 10.7519 28.4282 11.0198 28.6064 11.2429C28.5173 11.2876 28.4728 11.3322 28.3836 11.3768C28.2054 11.2429 27.9826 11.1537 27.7153 11.109H21.7001V12.3141L22.1011 12.7158C22.1011 12.7158 22.1011 12.7158 22.0565 12.7158L21.7001 12.3588V12.8944H21.6555V12.3141L20.8535 11.5107C20.6307 11.6893 20.4971 12.0017 20.4971 12.3141V12.4034L18.6702 11.5554C18.6257 11.5107 18.5811 11.4661 18.5365 11.4215L18.492 11.4661C18.2692 11.2876 18.0019 11.1537 17.7345 11.1537H13.2788C13.3679 10.8412 13.4125 10.5288 13.4125 10.2163C13.4125 9.72537 13.3234 9.2344 13.1452 8.78806C12.9669 8.34172 12.655 7.89539 12.2986 7.58295C11.9421 7.22588 11.4965 6.95808 11.0955 6.77954C10.9173 6.4671 10.6945 6.15467 10.3826 5.88686C9.98161 5.48516 9.49149 5.17272 8.9568 4.99419V5.03882C8.42212 4.81565 7.88743 4.72639 7.35275 4.77102V6.51174C7.66465 6.51174 8.02111 6.55637 8.333 6.69027V6.64564C8.37756 6.64564 8.37756 6.69027 8.42212 6.69027C8.15478 6.77954 7.88744 6.86881 7.62009 7.00271C7.04085 7.31515 6.55073 7.80612 6.19427 8.38636C5.88237 8.9666 5.70414 9.59147 5.70414 10.261C5.70414 10.4395 5.70414 10.5734 5.7487 10.7519C5.65959 10.7073 5.61503 10.618 5.52592 10.5734L4.94668 11.109H4.90212L5.48136 10.4841C5.25857 10.261 5.08035 10.0378 4.94668 9.72537C4.813 9.45757 4.76845 9.18976 4.76845 8.87733L2.98617 8.83269C2.98617 9.41293 3.07528 9.94854 3.29807 10.4841C3.43174 10.7519 3.56541 11.0198 3.74364 11.2429C3.65452 11.2876 3.52085 11.3768 3.43174 11.4661L4.32288 12.3141L3.52085 11.5107C3.29807 11.7339 3.1644 12.0017 3.1644 12.3141V25.0348V25.0794H3.20895C2.98617 25.1687 2.76338 25.2133 2.5406 25.2133L2.45149 26.5077L2.40693 25.1687C2.18414 25.1687 1.9168 25.124 1.69402 25.0348L1.64946 24.9901H1.56035V25.0348C1.47123 24.9901 1.33756 24.9901 1.24845 24.9901C1.02566 24.9901 0.802878 25.0794 0.624651 25.1687C0.446423 25.2579 0.312752 25.4365 0.223638 25.5704L1.20389 26.1506H1.11478L0.179081 25.615C0.0899671 25.7935 0.0454102 25.9274 0.0454102 26.1506V31.1942C0.0454102 31.462 0.134524 31.6852 0.312752 31.9084L0.624651 31.6852L0.268195 31.953C0.446423 32.1762 0.669208 32.3101 0.847435 32.3547L2.94161 33.2027H3.11984C3.1644 33.2474 3.20895 33.2474 3.29807 33.292C3.96642 33.4706 4.63478 33.5152 5.30313 33.5152C6.72895 33.5598 8.19933 33.3366 9.53604 32.8457C10.7391 32.3993 11.7193 31.5959 12.3877 30.5247C13.056 29.3642 13.3679 28.0699 13.3234 26.7308V26.1952C13.3679 26.2399 13.4571 26.2845 13.5016 26.3291C14.17 26.6862 14.8829 26.954 15.6403 27.0433C15.7295 27.1326 15.8631 27.1772 15.9522 27.2665C16.8879 27.8021 17.9573 28.0699 19.0267 28.0252C20.2743 28.0699 21.5219 27.7128 22.5021 26.954C22.5021 26.954 22.5021 26.954 22.5467 26.9094L23.3933 27.5789H23.616C23.7052 27.6235 23.7943 27.6682 23.9279 27.6682H29.9877C30.1659 27.6682 30.3441 27.5789 30.5224 27.445C30.6115 27.3557 30.656 27.2665 30.7006 27.1772C30.7452 27.2665 30.7897 27.3557 30.8788 27.445C31.0125 27.5789 31.1907 27.6682 31.369 27.6682H37.4733C37.6515 27.6682 37.8297 27.5789 38.0079 27.445C38.1416 27.3111 38.2307 27.1326 38.2307 26.9094V25.1687C38.7209 25.5704 39.3001 25.8828 39.8793 26.1506V26.106C40.5031 26.3738 41.1269 26.5969 41.7953 26.7755C41.9735 26.8647 42.1517 26.954 42.3745 27.0433C43.8449 27.7128 45.4044 28.0252 47.0084 28.0252C47.9441 28.0252 48.8798 27.8913 49.771 27.7128C49.8601 27.7128 49.9492 27.6682 50.0383 27.6682L49.5036 29.8998C49.4591 30.1677 49.5036 30.4355 49.5928 30.6586L49.9492 30.4801L49.5928 30.6586C49.7264 30.8818 49.9046 31.105 50.172 31.1942H50.2165L50.2611 31.3728L53.291 32.5332C53.3355 32.5332 53.3801 32.5779 53.4246 32.5779L54.093 32.801C56.4545 33.6491 59.7072 33.6045 59.7072 33.6045C61.6231 33.6491 63.4945 33.2474 65.2322 32.444L65.054 32.0423L65.0986 32.1315L65.2322 32.444C66.7026 31.7745 67.9502 30.7033 68.8414 29.3642C69.6434 28.2038 70.089 26.7755 70.089 25.3472V14.9922L70.0444 12.9836C70.0444 12.7158 69.8662 12.448 69.6434 12.3141ZM1.20389 26.0613L1.11478 25.9274L1.24845 26.1506L1.20389 26.0613ZM0.981106 32.2208L1.20389 31.2389L0.981106 32.2208ZM1.24845 31.1942L1.38212 30.614L1.24845 31.1942ZM1.73857 26.5077L1.33756 26.2845L1.42668 26.4184L1.33756 26.2845H1.29301V26.2399V26.2845V26.2399L1.73857 26.5077C1.73857 26.5077 1.73857 26.463 1.73857 26.5077ZM3.03073 26.954C2.94161 26.9987 2.8525 27.0879 2.80794 27.1772C2.76338 27.2665 2.71883 27.4004 2.71883 27.5343V30.8372C2.40693 30.8372 2.13959 30.7925 1.82769 30.7479V26.954C2.00592 26.9987 2.2287 26.9987 2.40693 26.954C2.62971 26.954 2.8525 26.954 3.11984 26.9094C3.07528 26.9094 3.03073 26.954 3.03073 26.954ZM3.1644 25.1687H3.25351H3.1644ZM4.41199 12.3588L4.76845 12.7158C4.76845 12.7158 4.76845 12.7158 4.72389 12.7158L4.41199 12.3588ZM3.60997 25.0794H4.05554L3.34263 25.1687V25.124L3.60997 25.0794ZM6.55073 12.939C6.3725 12.939 6.19427 13.0283 6.01604 13.1622C5.88237 13.2961 5.79326 13.4746 5.79326 13.6978V26.463C5.79326 26.5077 5.79326 26.5969 5.7487 26.6416C5.70414 26.6862 5.65959 26.7308 5.61503 26.7755C5.30313 26.954 4.94668 26.9987 4.59022 26.9987C4.27832 26.9987 3.96642 26.954 3.69908 26.8647H3.65452H3.60997C3.52085 26.8647 3.4763 26.8647 3.38718 26.8647H3.34263C3.60997 26.8201 3.87731 26.7308 4.10009 26.5969H4.14465L3.87731 26.1506L3.74364 25.9274L4.14465 26.5969C4.41199 26.4184 4.63478 26.1952 4.76845 25.9274C4.90212 25.7043 4.94668 25.3918 4.94668 25.124V25.0794V12.8944H6.19427C6.23883 12.8944 6.28338 12.939 6.32794 12.939V12.8944H6.50617L6.55073 12.5373C6.63984 12.6266 6.72895 12.7605 6.81807 12.8497C6.86263 12.8944 6.90718 12.8944 6.90718 12.939H6.55073ZM13.3234 23.9189V23.5172C13.3679 23.6957 13.4125 23.8743 13.4571 24.0975C13.4125 24.0082 13.3679 23.9636 13.3234 23.9189ZM13.3679 13.1175C13.3234 13.1622 13.2788 13.2514 13.2343 13.3407C13.1897 13.2514 13.1452 13.2068 13.1006 13.1175C12.9669 12.9836 12.7887 12.8944 12.5659 12.8944H13.9026C13.7244 12.8944 13.5462 12.9836 13.3679 13.1175ZM17.69 12.3141H17.1107V12.2695L17.69 12.3141ZM18.1355 12.3141H17.7345V12.2695L18.1355 12.3141ZM27.0915 12.939H23.9279C23.7497 12.939 23.5715 13.0283 23.3933 13.1622C23.2596 13.2961 23.1705 13.4746 23.1705 13.6978V20.9285C23.1705 21.2855 23.1259 21.6426 22.9922 21.9997C22.9031 22.2228 22.7695 22.4014 22.5912 22.5353C22.413 22.6692 22.1902 22.7138 22.012 22.7138C21.7892 22.7138 21.5664 22.6692 21.3436 22.5353C21.2545 22.4906 21.1654 22.4014 21.0763 22.3121C21.0763 22.3121 21.0763 22.3121 21.1209 22.3121L20.809 21.8658C20.809 21.8211 20.809 21.8211 20.7644 21.7765L21.1209 22.2675C21.5219 21.955 21.7892 21.598 21.9674 21.1516C22.1902 20.6607 22.2793 20.125 22.2348 19.5448V12.8944H27.0469V12.939H27.0915ZM27.6707 12.3141H27.0915V12.2695L27.6707 12.3141ZM27.8935 12.3141H27.7598V12.2695L27.8935 12.3141C27.8935 12.3141 27.8935 12.2695 27.8935 12.3141ZM29.0965 12.939C29.052 12.939 29.0965 12.939 29.0965 12.939L29.052 12.3141L29.0965 12.3588V12.939ZM29.0965 12.3588V11.7339V12.3588ZM31.5026 12.939C31.3244 12.939 31.1462 13.0283 30.9679 13.1622C30.8788 13.2514 30.8343 13.3407 30.7897 13.43C30.7452 13.3407 30.7006 13.2514 30.6115 13.1622C30.4778 13.0283 30.2996 12.939 30.0768 12.939H31.3244L31.369 12.3141C31.5026 12.4927 31.6809 12.6712 31.8591 12.8497C31.9036 12.8944 31.9482 12.8944 31.9482 12.939H31.5026ZM38.2307 22.7138V22.5799C38.2753 22.6692 38.2753 22.7584 38.3198 22.8031C38.2753 22.8031 38.2753 22.7584 38.2307 22.7138ZM40.1021 25.615L40.1467 25.5257L40.1021 25.615ZM47.1867 12.0463L47.0976 12.4927C47.0976 12.4927 47.0976 12.4927 47.053 12.4927L47.1867 12.0463ZM45.8054 19.5002C45.9836 19.277 46.2064 19.0985 46.4738 18.9646C46.8302 18.8307 47.1867 18.7414 47.5877 18.7414C47.6768 18.7414 47.7659 18.7414 47.855 18.7414C47.9887 18.786 48.1224 18.8307 48.256 18.8307V18.786V18.8307H48.3452H48.4788H48.5234C48.7016 18.8753 48.8353 18.8753 49.0135 18.9199C49.0135 18.9199 49.0135 18.9199 49.0581 18.9199C49.0135 18.9199 48.969 18.9646 48.9244 19.0092L49.37 19.768L49.5036 19.9911L48.8798 19.0092C48.3897 19.3216 47.8996 19.5002 47.3203 19.6341L47.4095 20.0358L47.3203 19.6787C46.7857 19.8572 46.1619 19.9019 45.6272 19.9465C45.6272 19.768 45.7163 19.6341 45.8054 19.5002ZM48.9244 21.6426C48.5679 21.6872 48.2115 21.7319 47.8105 21.7319C47.454 21.7319 47.1421 21.6872 46.8302 21.598C47.1867 21.5533 47.4986 21.4641 47.8105 21.3748C48.1669 21.2855 48.5679 21.1516 48.9244 21.0177V21.6426ZM49.5036 20.0358L49.2363 20.5267L49.5036 20.0358ZM49.5482 20.0804L49.8155 20.5267L49.5482 20.0804ZM49.5482 19.9911L49.8601 19.3663C49.8601 19.3663 49.8601 19.3663 49.9046 19.3663L49.5482 19.9911ZM51.1522 12.3141L51.1968 12.939H51.1522V12.3141ZM50.4839 30.5694L50.6176 30.2569L50.4839 30.5694ZM50.9295 29.5874C50.974 29.5874 50.974 29.5874 51.0186 29.632C50.974 29.632 50.9295 29.632 50.9295 29.5874ZM50.7067 20.7946H50.9295H51.375C51.375 20.7946 51.3305 20.7946 51.3305 20.8392L50.7067 20.7946ZM52.3998 30.0784C52.0434 29.9891 51.7315 29.8552 51.375 29.7659L51.9988 27.0433C52.0434 27.0433 52.0879 26.9987 52.1325 26.9987C52.2662 26.954 52.3553 26.8647 52.4444 26.7308L52.1325 26.5523L52.1771 26.5969L52.489 26.7755C52.5781 26.6416 52.6226 26.5077 52.6226 26.3738V26.1506C52.8454 26.2399 53.0236 26.3291 53.2464 26.4184L52.3998 30.0784ZM52.89 13.1622C52.7563 13.2961 52.6672 13.4746 52.6672 13.6978V22.1782C52.6672 22.6692 52.7117 23.2048 52.8454 23.6958C52.7563 23.6065 52.7117 23.5172 52.6226 23.4279V21.3302C52.6226 21.1963 52.5781 21.0624 52.5335 20.9731C52.4444 20.8392 52.3553 20.7499 52.2662 20.7053C52.1771 20.6607 52.0434 20.616 51.9097 20.616C51.8652 20.616 51.8652 20.616 51.8206 20.616V17.3578L52.489 14.6351C52.5335 14.5012 52.5335 14.3673 52.489 14.2334C52.4444 14.0995 52.3553 14.0102 52.2662 13.9209V13.8763C52.1325 13.787 51.9543 13.6978 51.8206 13.6085V12.8944H53.4246C53.2464 12.939 53.0682 13.0283 52.89 13.1622ZM57.5684 11.9571L57.4348 12.091L57.2565 12.2695H57.5684V12.3141H57.2565V12.2695L57.212 12.3141L56.811 12.7158C56.811 12.7158 56.811 12.7158 56.811 12.6712L57.212 12.3141H56.6773V12.2695H57.2565H57.3011V12.2249L57.5684 11.9571ZM61.1776 12.3141L61.2221 12.939H61.1776V12.3141ZM62.9153 13.1622C62.7816 13.2961 62.6925 13.4746 62.6925 13.6978V20.7946C62.6925 21.1516 62.6479 21.5087 62.5143 21.8658C62.4252 22.0889 62.2915 22.2675 62.1133 22.4014C61.935 22.5353 61.7122 22.5799 61.534 22.5799C61.3112 22.5799 61.0884 22.5353 60.8657 22.4014C60.7765 22.3121 60.6874 22.2675 60.5983 22.1782C60.5983 22.1782 60.6429 22.1782 60.6429 22.1336L60.331 21.6426C60.331 21.6426 60.331 21.6426 60.331 21.598L60.6874 22.1336H60.732H60.7765L60.732 22.0889C61.133 21.7765 61.4003 21.4194 61.5786 20.9285H61.534C61.7122 20.4375 61.8459 19.9465 61.8014 19.4109H61.8459V12.939H63.4945C63.2717 12.939 63.0935 13.0283 62.9153 13.1622ZM67.2373 12.3141H67.1927L66.7917 12.7158C66.7917 12.7158 66.7917 12.7158 66.7917 12.6712L67.1927 12.3141H66.6581V12.2695H67.2373V12.3141V12.2249L67.5938 11.8678L67.2373 12.3141L67.6383 12.2695V12.3141H67.2373Z" fill="#0A0A0A"/>
<path d="M4.76751 8.83277C4.76751 8.43106 4.85662 7.98473 5.07941 7.62765L4.54472 7.31522L5.12396 7.62765C5.34675 7.27058 5.65865 6.95815 6.0151 6.77961C6.41612 6.55644 6.86169 6.46718 7.30725 6.46718L7.35181 4.68182C6.59434 4.68182 5.83688 4.86036 5.16852 5.21743C4.50017 5.5745 3.96548 6.11011 3.56447 6.73498C3.20801 7.35985 2.98523 8.11863 2.98523 8.83277H3.87637H4.76751Z" fill="#0A0A0A"/>
<path d="M2.45032 25.1686H2.40564H2.36096L2.40564 26.0621L2.45032 25.1686Z" fill="#0A0A0A"/>
<path d="M30.8779 6.77961C31.2789 6.55644 31.6799 6.46718 32.17 6.46718V5.5745V4.68182C31.4126 4.68182 30.6551 4.86036 29.9867 5.21743C29.3184 5.5745 28.7837 6.11011 28.4272 6.73498L29.9867 7.62766C30.2095 7.27058 30.5214 6.95815 30.8779 6.77961Z" fill="#0A0A0A"/>
<path d="M20.8082 11.466L21.6551 12.2694V11.1089C21.3431 11.1089 21.0311 11.2428 20.8082 11.466Z" fill="#0A0A0A"/>
<path d="M67.1466 12.3141H67.1913V12.2694L67.1466 12.3141Z" fill="#0A0A0A"/>
<path d="M57.1665 12.3141H57.2112V12.2694L57.1665 12.3141Z" fill="#0A0A0A"/>
<path d="M1.29138 26.1954L1.33606 26.2401L1.29138 26.1954Z" fill="#0A0A0A"/>
<path d="M75.4803 9.68048V9.72516L75.525 9.68048V9.6358L75.4803 9.68048Z" fill="#0A0A0A"/>
<path d="M21.6986 12.3141L21.6539 12.2694V12.3141L21.6986 12.3588V12.3141Z" fill="#0A0A0A"/>
<path d="M29.6311 8.83277C29.6311 8.43107 29.7203 7.98473 29.9431 7.62766L29.1854 7.18132L28.4277 6.73499C28.0711 7.35986 27.8483 8.11863 27.8483 8.83277H28.7397H29.6311Z" fill="#0A0A0A"/>
<mask id="path-13-outside-1_5322_26096" maskUnits="userSpaceOnUse" x="-0.020874" y="0.46759" width="86" height="32" fill="black">
<rect fill="white" x="-0.020874" y="0.46759" width="86" height="32"/>
<path fill-rule="evenodd" clip-rule="evenodd" d="M74.5872 14.7238C75.6566 15.3487 76.8596 15.6611 78.1072 15.6611V15.7058C79.3548 15.7058 80.5579 15.3933 81.6272 14.7685C82.6966 14.1436 83.5877 13.2955 84.2115 12.2243C84.8353 11.1085 85.1918 9.85874 85.1918 8.609C85.1918 7.35925 84.8353 6.10951 84.2115 4.99366C83.5877 3.92245 82.6966 3.02977 81.6272 2.4049C80.5579 1.78003 79.3548 1.46759 78.1072 1.46759C76.8596 1.46759 75.6566 1.78003 74.5872 2.4049C73.5179 3.02977 72.6267 3.87782 72.0029 4.94903C71.3791 6.06487 71.0227 7.31462 71.0227 8.56436C71.0227 9.81411 71.3346 11.0639 72.0029 12.1797C72.5822 13.2509 73.5179 14.1436 74.5872 14.7238ZM75.4338 3.92245C76.2358 3.47611 77.1715 3.20831 78.1072 3.20831V3.25294C79.0429 3.25294 79.9786 3.47611 80.7806 3.92245C81.5827 4.36879 82.251 5.03829 82.7411 5.8417C83.2313 6.68974 83.4541 7.62705 83.4541 8.56436C83.4541 9.50167 83.1867 10.4836 82.7411 11.287C82.2956 12.0904 81.6272 12.7599 80.7806 13.2063C79.9786 13.6526 79.0429 13.9204 78.1072 13.9204C77.1715 13.9204 76.2358 13.6973 75.4338 13.2063C74.6318 12.7599 73.9634 12.0904 73.4733 11.287C72.9832 10.439 72.7604 9.50167 72.7604 8.56436C72.7604 7.62705 73.0277 6.64511 73.4733 5.8417C73.9634 5.03829 74.6318 4.36879 75.4338 3.92245ZM75.3893 12.4921C76.1467 12.8938 76.9933 13.0724 77.8399 12.9831V13.0277C78.6865 13.0277 79.5331 12.8492 80.2905 12.4475C81.0034 12.0904 81.5827 11.5548 81.9837 10.8853C82.3847 10.1712 82.6075 9.41241 82.5629 8.609C82.5629 7.80559 82.3847 7.00218 81.9837 6.28804C81.6272 5.61853 81.048 5.03829 80.3796 4.68122C79.6667 4.27952 78.8647 4.10098 78.0181 4.10098C77.528 4.10098 77.0824 4.14562 76.5923 4.23489C76.1467 4.27952 75.7457 4.41342 75.3893 4.63659C75.3447 4.68122 75.3001 4.72586 75.2556 4.77049C75.211 4.81513 75.211 4.90439 75.2556 4.94903L75.8348 7.35925C75.8348 7.40389 75.8794 7.44852 75.9239 7.49315C75.9685 7.53779 76.0131 7.53779 76.0576 7.58242H76.1467C76.1913 7.58242 76.2358 7.58242 76.2804 7.53779C76.325 7.53779 76.3695 7.49315 76.3695 7.49315C76.5477 7.31462 76.7705 7.18072 76.9933 7.09145C77.2606 7.00218 77.5725 6.91291 77.8844 6.91291C78.1963 6.91291 78.5082 7.00218 78.7756 7.13608C78.9984 7.26998 79.2212 7.49315 79.3548 7.71632C79.4885 7.98413 79.5776 8.29656 79.5776 8.609C79.5776 8.83217 79.5331 9.05534 79.4885 9.23387C79.4439 9.41241 79.2657 9.63558 79.132 9.76948C78.7756 10.0819 78.2855 10.2604 77.7953 10.2158C77.3943 10.2158 77.0379 10.1712 76.6814 9.99265C76.4141 9.85875 76.1467 9.68021 75.9239 9.41241C75.8794 9.36777 75.8794 9.36777 75.8348 9.32314C75.7903 9.32314 75.7457 9.27851 75.7011 9.27851C75.6566 9.27851 75.612 9.27851 75.612 9.27851C75.5675 9.27851 75.5229 9.32314 75.4784 9.36777C75.4338 9.41241 75.4338 9.45704 75.4338 9.54631L75.3893 12.2243C75.3893 12.269 75.3893 12.3136 75.4338 12.3582C75.3001 12.4475 75.3447 12.4921 75.3893 12.4921ZM1.15735 31.5061C1.78115 31.64 2.44951 31.7293 3.0733 31.7293C4.45457 31.7739 5.88039 31.5508 7.17254 31.0598C8.24191 30.6581 9.13305 29.944 9.75685 28.962C10.3806 27.8908 10.6925 26.6411 10.648 25.3913V12.3136C10.648 12.2243 10.6034 12.1797 10.5589 12.1351C10.5143 12.0904 10.4252 12.0458 10.3806 12.0458H8.19735C8.50925 11.9565 8.82115 11.8673 9.08849 11.6887C9.57862 11.4209 10.0242 11.0192 10.2915 10.4836C10.6034 9.99265 10.7371 9.41241 10.7371 8.83217C10.7371 8.38583 10.648 7.98413 10.5143 7.53779C10.3361 7.13608 10.1133 6.77901 9.75685 6.46658C9.44495 6.15414 9.04393 5.93097 8.64292 5.75244C8.24191 5.5739 7.79634 5.52927 7.35077 5.52927C6.72697 5.52927 6.14773 5.66317 5.61305 5.9756C5.07837 6.24341 4.67735 6.68974 4.36546 7.18072C4.05356 7.67169 3.91989 8.25193 3.91989 8.83217C3.91989 9.27851 4.009 9.68021 4.18723 10.0819C4.36545 10.4836 4.6328 10.8407 4.9447 11.1531C5.39027 11.5995 5.92495 11.8673 6.54875 12.0012H4.3209C4.23178 12.0012 4.18723 12.0458 4.14267 12.0904C4.09811 12.1351 4.05356 12.2243 4.05356 12.269V25.0342C4.05356 25.1681 4.05356 25.3467 3.96444 25.4806C3.91989 25.6145 3.78621 25.7037 3.6971 25.793C3.29609 26.0162 2.85052 26.1054 2.44951 26.0608C2.09305 26.0608 1.73659 26.0162 1.38014 25.8823C1.33558 25.8823 1.29102 25.8823 1.24647 25.8823C1.20191 25.8823 1.15735 25.8823 1.1128 25.9269C1.06824 25.9715 1.02368 25.9715 1.02368 26.0162C0.979126 26.0608 0.979126 26.1054 0.979126 26.1501V31.1937C0.979126 31.2383 0.979126 31.3276 1.02368 31.3722C1.06824 31.4615 1.1128 31.4615 1.15735 31.5061ZM13.9452 25.5252C14.8363 26.0162 15.8166 26.2394 16.8414 26.2394C17.9999 26.284 19.1584 25.9269 20.0941 25.2574C20.6733 24.8111 21.1189 24.2755 21.4308 23.606V25.5698C21.4308 25.6591 21.4753 25.7037 21.5199 25.7484C21.5644 25.793 21.6536 25.8376 21.6981 25.8376H27.7579C27.847 25.8376 27.8915 25.793 27.9361 25.7484C27.9806 25.7037 28.0252 25.6145 28.0252 25.5698V12.3136C28.0252 12.2243 27.9806 12.1797 27.9361 12.1351C27.8915 12.0904 27.8024 12.0458 27.7579 12.0458H21.6981C21.609 12.0458 21.5644 12.0904 21.5199 12.1351C21.4753 12.1797 21.4308 12.269 21.4308 12.3136V19.5889C21.4308 19.9906 21.3862 20.437 21.208 20.8387C21.0743 21.1511 20.8961 21.3743 20.6287 21.5974C20.3614 21.776 20.0495 21.8652 19.7376 21.8652C19.4257 21.8652 19.1138 21.776 18.8465 21.6421C18.5791 21.4635 18.3563 21.2404 18.2227 20.9726C18.0444 20.6155 17.9999 20.2584 17.9999 19.8567V12.3136C17.9999 12.2243 17.9553 12.1797 17.9108 12.1351C17.8662 12.0458 17.8217 12.0012 17.7325 12.0012H11.6728C11.5837 12.0012 11.5391 12.0458 11.4946 12.0904C11.45 12.1351 11.4055 12.2243 11.4055 12.269V20.8387C11.4055 21.776 11.6282 22.7133 12.0738 23.5613C12.4748 24.4094 13.1432 25.0789 13.9452 25.5252ZM29.0946 25.8823C29.0055 25.8823 28.9609 25.8376 28.9163 25.793C28.8718 25.7484 28.8272 25.6591 28.8272 25.6145V12.3136C28.8272 12.2243 28.8718 12.1797 28.9163 12.1351C28.9609 12.0904 29.05 12.0458 29.0946 12.0458H31.3224C30.6986 11.9119 30.1639 11.5995 29.7184 11.1978C29.4065 10.8853 29.1391 10.5283 28.9609 10.1265C28.7827 9.72484 28.6936 9.27851 28.6936 8.8768C28.6936 8.29656 28.8272 7.71632 29.1391 7.22535C29.451 6.73438 29.852 6.28804 30.3867 6.02024C30.9214 5.7078 31.5452 5.5739 32.1244 5.5739C32.57 5.5739 33.0156 5.66317 33.4612 5.79707C33.8622 5.97561 34.2632 6.19877 34.5751 6.51121C35.1098 7.00218 35.4662 7.67169 35.5553 8.43046C35.6444 9.1446 35.5108 9.90338 35.1543 10.5283C34.8424 11.0192 34.4414 11.4209 33.9067 11.7334C33.6394 11.9119 33.3275 12.0012 32.971 12.0904H35.1989C35.288 12.0904 35.3325 12.1351 35.3771 12.1797C35.4217 12.2243 35.4662 12.3136 35.4662 12.3582V25.6591C35.4662 25.7484 35.4217 25.793 35.3771 25.8376C35.3325 25.8823 35.2434 25.9269 35.1989 25.9269L29.0946 25.8823ZM40.2338 25.302C41.6151 25.9269 43.13 26.2394 44.6895 26.2394C45.5806 26.2394 46.4718 26.1054 47.3629 25.9269C48.1649 25.793 48.9224 25.5698 49.6353 25.2574C49.6799 25.2128 49.7244 25.2128 49.769 25.1681C49.8136 25.1235 49.8136 25.0789 49.8136 25.0342V19.9906C49.8136 19.946 49.8136 19.9013 49.769 19.8567C49.7244 19.8121 49.7244 19.7674 49.6799 19.7674C49.6353 19.7674 49.5908 19.7228 49.5462 19.7228C49.5017 19.7228 49.4571 19.7228 49.368 19.7674C48.8333 20.1245 48.2095 20.3477 47.5857 20.5262C46.8728 20.7494 46.1599 20.8387 45.4024 20.8387C44.9123 20.8387 44.4222 20.7494 43.932 20.5709C43.5756 20.437 43.2191 20.2138 42.9963 19.8567C42.7736 19.5443 42.6844 19.1872 42.6844 18.7855C42.6844 18.4731 42.7736 18.116 42.9963 17.8482C43.2191 17.5358 43.4865 17.3126 43.8429 17.1787C44.2439 17.0002 44.6895 16.9109 45.1351 16.9109C45.6698 16.9109 46.2044 16.9555 46.7391 17.1341C47.2293 17.3126 47.6748 17.5358 48.0758 17.8482C48.1204 17.8928 48.165 17.8928 48.2541 17.8928H48.3432C48.3877 17.8928 48.4323 17.8482 48.4323 17.8036C48.4768 17.7589 48.4768 17.7143 48.4768 17.6697L49.5908 13.1616C49.5908 13.117 49.5908 13.0724 49.5908 12.9831C49.5908 12.9385 49.5462 12.8938 49.5017 12.8492C48.7887 12.3582 47.9867 12.0012 47.1401 11.8226C46.249 11.5995 45.3133 11.4656 44.4222 11.4656C42.9072 11.4209 41.3923 11.778 40.011 12.4475C38.808 13.0277 37.7386 13.9651 36.9812 15.0809C36.2682 16.1967 35.9118 17.4911 35.9118 18.8301C35.9118 20.1692 36.3128 21.4635 37.0703 22.5347C37.8723 23.8291 38.9862 24.7664 40.2338 25.302ZM57.5665 31.7293C56.3189 31.7293 55.1158 31.5954 53.9128 31.3722C52.7543 31.1937 51.6404 30.8813 50.571 30.4349C50.5265 30.3903 50.4819 30.3457 50.4374 30.301C50.3928 30.2564 50.3928 30.1671 50.3928 30.1225L51.5958 24.9896C51.5958 24.945 51.6404 24.9003 51.6404 24.8557C51.6849 24.8111 51.6849 24.8111 51.7295 24.7664C51.7741 24.7664 51.8186 24.7664 51.8632 24.7664C51.9077 24.7664 51.9523 24.7664 51.9968 24.8111C52.7098 25.2574 53.4672 25.5698 54.2693 25.793C55.0713 25.9715 55.9179 26.0608 56.7644 26.0608C57.5219 26.0608 58.2794 25.8823 58.9477 25.4806C59.527 25.1681 59.9725 24.7218 60.329 24.1862C60.1062 24.454 59.8834 24.6772 59.6161 24.9003C58.6804 25.5698 57.5219 25.9269 56.3634 25.8823C55.3832 25.9269 54.3584 25.7037 53.4672 25.2574C52.6652 24.8557 51.9968 24.2308 51.5513 23.4721C51.1057 22.6686 50.8829 21.7313 50.8829 20.8387V12.3582C50.8829 12.269 50.9275 12.2243 50.972 12.1797C51.0166 12.1351 51.1057 12.0904 51.1503 12.0904H57.21C57.2991 12.0904 57.3437 12.1351 57.3882 12.1797C57.4328 12.2243 57.4774 12.3136 57.4774 12.3582V19.5889C57.4774 19.9906 57.5219 20.3477 57.7001 20.7048C57.8338 20.9726 58.0566 21.2404 58.3239 21.3743C58.5913 21.5528 58.9032 21.5974 59.2151 21.5974C59.527 21.5974 59.8389 21.5082 60.0617 21.3296C60.329 21.1511 60.5072 20.8833 60.6409 20.5709C60.8191 20.1692 60.8637 19.7675 60.8637 19.3211V12.3136C60.8637 12.2243 60.9082 12.1797 60.9528 12.1351C60.9974 12.0904 61.0865 12.0458 61.131 12.0458H67.1462C67.2353 12.0458 67.2799 12.0904 67.3244 12.1351C67.369 12.1797 67.4136 12.269 67.4136 12.3136V23.963C67.4136 25.302 67.0125 26.5964 66.2551 27.7123C65.4085 28.962 64.2055 29.9886 62.8242 30.6135C61.2201 31.3722 59.3933 31.7739 57.5665 31.7293Z"/>
</mask>
<path fill-rule="evenodd" clip-rule="evenodd" d="M74.5872 14.7238C75.6566 15.3487 76.8596 15.6611 78.1072 15.6611V15.7058C79.3548 15.7058 80.5579 15.3933 81.6272 14.7685C82.6966 14.1436 83.5877 13.2955 84.2115 12.2243C84.8353 11.1085 85.1918 9.85874 85.1918 8.609C85.1918 7.35925 84.8353 6.10951 84.2115 4.99366C83.5877 3.92245 82.6966 3.02977 81.6272 2.4049C80.5579 1.78003 79.3548 1.46759 78.1072 1.46759C76.8596 1.46759 75.6566 1.78003 74.5872 2.4049C73.5179 3.02977 72.6267 3.87782 72.0029 4.94903C71.3791 6.06487 71.0227 7.31462 71.0227 8.56436C71.0227 9.81411 71.3346 11.0639 72.0029 12.1797C72.5822 13.2509 73.5179 14.1436 74.5872 14.7238ZM75.4338 3.92245C76.2358 3.47611 77.1715 3.20831 78.1072 3.20831V3.25294C79.0429 3.25294 79.9786 3.47611 80.7806 3.92245C81.5827 4.36879 82.251 5.03829 82.7411 5.8417C83.2313 6.68974 83.4541 7.62705 83.4541 8.56436C83.4541 9.50167 83.1867 10.4836 82.7411 11.287C82.2956 12.0904 81.6272 12.7599 80.7806 13.2063C79.9786 13.6526 79.0429 13.9204 78.1072 13.9204C77.1715 13.9204 76.2358 13.6973 75.4338 13.2063C74.6318 12.7599 73.9634 12.0904 73.4733 11.287C72.9832 10.439 72.7604 9.50167 72.7604 8.56436C72.7604 7.62705 73.0277 6.64511 73.4733 5.8417C73.9634 5.03829 74.6318 4.36879 75.4338 3.92245ZM75.3893 12.4921C76.1467 12.8938 76.9933 13.0724 77.8399 12.9831V13.0277C78.6865 13.0277 79.5331 12.8492 80.2905 12.4475C81.0034 12.0904 81.5827 11.5548 81.9837 10.8853C82.3847 10.1712 82.6075 9.41241 82.5629 8.609C82.5629 7.80559 82.3847 7.00218 81.9837 6.28804C81.6272 5.61853 81.048 5.03829 80.3796 4.68122C79.6667 4.27952 78.8647 4.10098 78.0181 4.10098C77.528 4.10098 77.0824 4.14562 76.5923 4.23489C76.1467 4.27952 75.7457 4.41342 75.3893 4.63659C75.3447 4.68122 75.3001 4.72586 75.2556 4.77049C75.211 4.81513 75.211 4.90439 75.2556 4.94903L75.8348 7.35925C75.8348 7.40389 75.8794 7.44852 75.9239 7.49315C75.9685 7.53779 76.0131 7.53779 76.0576 7.58242H76.1467C76.1913 7.58242 76.2358 7.58242 76.2804 7.53779C76.325 7.53779 76.3695 7.49315 76.3695 7.49315C76.5477 7.31462 76.7705 7.18072 76.9933 7.09145C77.2606 7.00218 77.5725 6.91291 77.8844 6.91291C78.1963 6.91291 78.5082 7.00218 78.7756 7.13608C78.9984 7.26998 79.2212 7.49315 79.3548 7.71632C79.4885 7.98413 79.5776 8.29656 79.5776 8.609C79.5776 8.83217 79.5331 9.05534 79.4885 9.23387C79.4439 9.41241 79.2657 9.63558 79.132 9.76948C78.7756 10.0819 78.2855 10.2604 77.7953 10.2158C77.3943 10.2158 77.0379 10.1712 76.6814 9.99265C76.4141 9.85875 76.1467 9.68021 75.9239 9.41241C75.8794 9.36777 75.8794 9.36777 75.8348 9.32314C75.7903 9.32314 75.7457 9.27851 75.7011 9.27851C75.6566 9.27851 75.612 9.27851 75.612 9.27851C75.5675 9.27851 75.5229 9.32314 75.4784 9.36777C75.4338 9.41241 75.4338 9.45704 75.4338 9.54631L75.3893 12.2243C75.3893 12.269 75.3893 12.3136 75.4338 12.3582C75.3001 12.4475 75.3447 12.4921 75.3893 12.4921ZM1.15735 31.5061C1.78115 31.64 2.44951 31.7293 3.0733 31.7293C4.45457 31.7739 5.88039 31.5508 7.17254 31.0598C8.24191 30.6581 9.13305 29.944 9.75685 28.962C10.3806 27.8908 10.6925 26.6411 10.648 25.3913V12.3136C10.648 12.2243 10.6034 12.1797 10.5589 12.1351C10.5143 12.0904 10.4252 12.0458 10.3806 12.0458H8.19735C8.50925 11.9565 8.82115 11.8673 9.08849 11.6887C9.57862 11.4209 10.0242 11.0192 10.2915 10.4836C10.6034 9.99265 10.7371 9.41241 10.7371 8.83217C10.7371 8.38583 10.648 7.98413 10.5143 7.53779C10.3361 7.13608 10.1133 6.77901 9.75685 6.46658C9.44495 6.15414 9.04393 5.93097 8.64292 5.75244C8.24191 5.5739 7.79634 5.52927 7.35077 5.52927C6.72697 5.52927 6.14773 5.66317 5.61305 5.9756C5.07837 6.24341 4.67735 6.68974 4.36546 7.18072C4.05356 7.67169 3.91989 8.25193 3.91989 8.83217C3.91989 9.27851 4.009 9.68021 4.18723 10.0819C4.36545 10.4836 4.6328 10.8407 4.9447 11.1531C5.39027 11.5995 5.92495 11.8673 6.54875 12.0012H4.3209C4.23178 12.0012 4.18723 12.0458 4.14267 12.0904C4.09811 12.1351 4.05356 12.2243 4.05356 12.269V25.0342C4.05356 25.1681 4.05356 25.3467 3.96444 25.4806C3.91989 25.6145 3.78621 25.7037 3.6971 25.793C3.29609 26.0162 2.85052 26.1054 2.44951 26.0608C2.09305 26.0608 1.73659 26.0162 1.38014 25.8823C1.33558 25.8823 1.29102 25.8823 1.24647 25.8823C1.20191 25.8823 1.15735 25.8823 1.1128 25.9269C1.06824 25.9715 1.02368 25.9715 1.02368 26.0162C0.979126 26.0608 0.979126 26.1054 0.979126 26.1501V31.1937C0.979126 31.2383 0.979126 31.3276 1.02368 31.3722C1.06824 31.4615 1.1128 31.4615 1.15735 31.5061ZM13.9452 25.5252C14.8363 26.0162 15.8166 26.2394 16.8414 26.2394C17.9999 26.284 19.1584 25.9269 20.0941 25.2574C20.6733 24.8111 21.1189 24.2755 21.4308 23.606V25.5698C21.4308 25.6591 21.4753 25.7037 21.5199 25.7484C21.5644 25.793 21.6536 25.8376 21.6981 25.8376H27.7579C27.847 25.8376 27.8915 25.793 27.9361 25.7484C27.9806 25.7037 28.0252 25.6145 28.0252 25.5698V12.3136C28.0252 12.2243 27.9806 12.1797 27.9361 12.1351C27.8915 12.0904 27.8024 12.0458 27.7579 12.0458H21.6981C21.609 12.0458 21.5644 12.0904 21.5199 12.1351C21.4753 12.1797 21.4308 12.269 21.4308 12.3136V19.5889C21.4308 19.9906 21.3862 20.437 21.208 20.8387C21.0743 21.1511 20.8961 21.3743 20.6287 21.5974C20.3614 21.776 20.0495 21.8652 19.7376 21.8652C19.4257 21.8652 19.1138 21.776 18.8465 21.6421C18.5791 21.4635 18.3563 21.2404 18.2227 20.9726C18.0444 20.6155 17.9999 20.2584 17.9999 19.8567V12.3136C17.9999 12.2243 17.9553 12.1797 17.9108 12.1351C17.8662 12.0458 17.8217 12.0012 17.7325 12.0012H11.6728C11.5837 12.0012 11.5391 12.0458 11.4946 12.0904C11.45 12.1351 11.4055 12.2243 11.4055 12.269V20.8387C11.4055 21.776 11.6282 22.7133 12.0738 23.5613C12.4748 24.4094 13.1432 25.0789 13.9452 25.5252ZM29.0946 25.8823C29.0055 25.8823 28.9609 25.8376 28.9163 25.793C28.8718 25.7484 28.8272 25.6591 28.8272 25.6145V12.3136C28.8272 12.2243 28.8718 12.1797 28.9163 12.1351C28.9609 12.0904 29.05 12.0458 29.0946 12.0458H31.3224C30.6986 11.9119 30.1639 11.5995 29.7184 11.1978C29.4065 10.8853 29.1391 10.5283 28.9609 10.1265C28.7827 9.72484 28.6936 9.27851 28.6936 8.8768C28.6936 8.29656 28.8272 7.71632 29.1391 7.22535C29.451 6.73438 29.852 6.28804 30.3867 6.02024C30.9214 5.7078 31.5452 5.5739 32.1244 5.5739C32.57 5.5739 33.0156 5.66317 33.4612 5.79707C33.8622 5.97561 34.2632 6.19877 34.5751 6.51121C35.1098 7.00218 35.4662 7.67169 35.5553 8.43046C35.6444 9.1446 35.5108 9.90338 35.1543 10.5283C34.8424 11.0192 34.4414 11.4209 33.9067 11.7334C33.6394 11.9119 33.3275 12.0012 32.971 12.0904H35.1989C35.288 12.0904 35.3325 12.1351 35.3771 12.1797C35.4217 12.2243 35.4662 12.3136 35.4662 12.3582V25.6591C35.4662 25.7484 35.4217 25.793 35.3771 25.8376C35.3325 25.8823 35.2434 25.9269 35.1989 25.9269L29.0946 25.8823ZM40.2338 25.302C41.6151 25.9269 43.13 26.2394 44.6895 26.2394C45.5806 26.2394 46.4718 26.1054 47.3629 25.9269C48.1649 25.793 48.9224 25.5698 49.6353 25.2574C49.6799 25.2128 49.7244 25.2128 49.769 25.1681C49.8136 25.1235 49.8136 25.0789 49.8136 25.0342V19.9906C49.8136 19.946 49.8136 19.9013 49.769 19.8567C49.7244 19.8121 49.7244 19.7674 49.6799 19.7674C49.6353 19.7674 49.5908 19.7228 49.5462 19.7228C49.5017 19.7228 49.4571 19.7228 49.368 19.7674C48.8333 20.1245 48.2095 20.3477 47.5857 20.5262C46.8728 20.7494 46.1599 20.8387 45.4024 20.8387C44.9123 20.8387 44.4222 20.7494 43.932 20.5709C43.5756 20.437 43.2191 20.2138 42.9963 19.8567C42.7736 19.5443 42.6844 19.1872 42.6844 18.7855C42.6844 18.4731 42.7736 18.116 42.9963 17.8482C43.2191 17.5358 43.4865 17.3126 43.8429 17.1787C44.2439 17.0002 44.6895 16.9109 45.1351 16.9109C45.6698 16.9109 46.2044 16.9555 46.7391 17.1341C47.2293 17.3126 47.6748 17.5358 48.0758 17.8482C48.1204 17.8928 48.165 17.8928 48.2541 17.8928H48.3432C48.3877 17.8928 48.4323 17.8482 48.4323 17.8036C48.4768 17.7589 48.4768 17.7143 48.4768 17.6697L49.5908 13.1616C49.5908 13.117 49.5908 13.0724 49.5908 12.9831C49.5908 12.9385 49.5462 12.8938 49.5017 12.8492C48.7887 12.3582 47.9867 12.0012 47.1401 11.8226C46.249 11.5995 45.3133 11.4656 44.4222 11.4656C42.9072 11.4209 41.3923 11.778 40.011 12.4475C38.808 13.0277 37.7386 13.9651 36.9812 15.0809C36.2682 16.1967 35.9118 17.4911 35.9118 18.8301C35.9118 20.1692 36.3128 21.4635 37.0703 22.5347C37.8723 23.8291 38.9862 24.7664 40.2338 25.302ZM57.5665 31.7293C56.3189 31.7293 55.1158 31.5954 53.9128 31.3722C52.7543 31.1937 51.6404 30.8813 50.571 30.4349C50.5265 30.3903 50.4819 30.3457 50.4374 30.301C50.3928 30.2564 50.3928 30.1671 50.3928 30.1225L51.5958 24.9896C51.5958 24.945 51.6404 24.9003 51.6404 24.8557C51.6849 24.8111 51.6849 24.8111 51.7295 24.7664C51.7741 24.7664 51.8186 24.7664 51.8632 24.7664C51.9077 24.7664 51.9523 24.7664 51.9968 24.8111C52.7098 25.2574 53.4672 25.5698 54.2693 25.793C55.0713 25.9715 55.9179 26.0608 56.7644 26.0608C57.5219 26.0608 58.2794 25.8823 58.9477 25.4806C59.527 25.1681 59.9725 24.7218 60.329 24.1862C60.1062 24.454 59.8834 24.6772 59.6161 24.9003C58.6804 25.5698 57.5219 25.9269 56.3634 25.8823C55.3832 25.9269 54.3584 25.7037 53.4672 25.2574C52.6652 24.8557 51.9968 24.2308 51.5513 23.4721C51.1057 22.6686 50.8829 21.7313 50.8829 20.8387V12.3582C50.8829 12.269 50.9275 12.2243 50.972 12.1797C51.0166 12.1351 51.1057 12.0904 51.1503 12.0904H57.21C57.2991 12.0904 57.3437 12.1351 57.3882 12.1797C57.4328 12.2243 57.4774 12.3136 57.4774 12.3582V19.5889C57.4774 19.9906 57.5219 20.3477 57.7001 20.7048C57.8338 20.9726 58.0566 21.2404 58.3239 21.3743C58.5913 21.5528 58.9032 21.5974 59.2151 21.5974C59.527 21.5974 59.8389 21.5082 60.0617 21.3296C60.329 21.1511 60.5072 20.8833 60.6409 20.5709C60.8191 20.1692 60.8637 19.7675 60.8637 19.3211V12.3136C60.8637 12.2243 60.9082 12.1797 60.9528 12.1351C60.9974 12.0904 61.0865 12.0458 61.131 12.0458H67.1462C67.2353 12.0458 67.2799 12.0904 67.3244 12.1351C67.369 12.1797 67.4136 12.269 67.4136 12.3136V23.963C67.4136 25.302 67.0125 26.5964 66.2551 27.7123C65.4085 28.962 64.2055 29.9886 62.8242 30.6135C61.2201 31.3722 59.3933 31.7739 57.5665 31.7293Z" fill="white"/>
<path fill-rule="evenodd" clip-rule="evenodd" d="M74.5872 14.7238C75.6566 15.3487 76.8596 15.6611 78.1072 15.6611V15.7058C79.3548 15.7058 80.5579 15.3933 81.6272 14.7685C82.6966 14.1436 83.5877 13.2955 84.2115 12.2243C84.8353 11.1085 85.1918 9.85874 85.1918 8.609C85.1918 7.35925 84.8353 6.10951 84.2115 4.99366C83.5877 3.92245 82.6966 3.02977 81.6272 2.4049C80.5579 1.78003 79.3548 1.46759 78.1072 1.46759C76.8596 1.46759 75.6566 1.78003 74.5872 2.4049C73.5179 3.02977 72.6267 3.87782 72.0029 4.94903C71.3791 6.06487 71.0227 7.31462 71.0227 8.56436C71.0227 9.81411 71.3346 11.0639 72.0029 12.1797C72.5822 13.2509 73.5179 14.1436 74.5872 14.7238ZM75.4338 3.92245C76.2358 3.47611 77.1715 3.20831 78.1072 3.20831V3.25294C79.0429 3.25294 79.9786 3.47611 80.7806 3.92245C81.5827 4.36879 82.251 5.03829 82.7411 5.8417C83.2313 6.68974 83.4541 7.62705 83.4541 8.56436C83.4541 9.50167 83.1867 10.4836 82.7411 11.287C82.2956 12.0904 81.6272 12.7599 80.7806 13.2063C79.9786 13.6526 79.0429 13.9204 78.1072 13.9204C77.1715 13.9204 76.2358 13.6973 75.4338 13.2063C74.6318 12.7599 73.9634 12.0904 73.4733 11.287C72.9832 10.439 72.7604 9.50167 72.7604 8.56436C72.7604 7.62705 73.0277 6.64511 73.4733 5.8417C73.9634 5.03829 74.6318 4.36879 75.4338 3.92245ZM75.3893 12.4921C76.1467 12.8938 76.9933 13.0724 77.8399 12.9831V13.0277C78.6865 13.0277 79.5331 12.8492 80.2905 12.4475C81.0034 12.0904 81.5827 11.5548 81.9837 10.8853C82.3847 10.1712 82.6075 9.41241 82.5629 8.609C82.5629 7.80559 82.3847 7.00218 81.9837 6.28804C81.6272 5.61853 81.048 5.03829 80.3796 4.68122C79.6667 4.27952 78.8647 4.10098 78.0181 4.10098C77.528 4.10098 77.0824 4.14562 76.5923 4.23489C76.1467 4.27952 75.7457 4.41342 75.3893 4.63659C75.3447 4.68122 75.3001 4.72586 75.2556 4.77049C75.211 4.81513 75.211 4.90439 75.2556 4.94903L75.8348 7.35925C75.8348 7.40389 75.8794 7.44852 75.9239 7.49315C75.9685 7.53779 76.0131 7.53779 76.0576 7.58242H76.1467C76.1913 7.58242 76.2358 7.58242 76.2804 7.53779C76.325 7.53779 76.3695 7.49315 76.3695 7.49315C76.5477 7.31462 76.7705 7.18072 76.9933 7.09145C77.2606 7.00218 77.5725 6.91291 77.8844 6.91291C78.1963 6.91291 78.5082 7.00218 78.7756 7.13608C78.9984 7.26998 79.2212 7.49315 79.3548 7.71632C79.4885 7.98413 79.5776 8.29656 79.5776 8.609C79.5776 8.83217 79.5331 9.05534 79.4885 9.23387C79.4439 9.41241 79.2657 9.63558 79.132 9.76948C78.7756 10.0819 78.2855 10.2604 77.7953 10.2158C77.3943 10.2158 77.0379 10.1712 76.6814 9.99265C76.4141 9.85875 76.1467 9.68021 75.9239 9.41241C75.8794 9.36777 75.8794 9.36777 75.8348 9.32314C75.7903 9.32314 75.7457 9.27851 75.7011 9.27851C75.6566 9.27851 75.612 9.27851 75.612 9.27851C75.5675 9.27851 75.5229 9.32314 75.4784 9.36777C75.4338 9.41241 75.4338 9.45704 75.4338 9.54631L75.3893 12.2243C75.3893 12.269 75.3893 12.3136 75.4338 12.3582C75.3001 12.4475 75.3447 12.4921 75.3893 12.4921ZM1.15735 31.5061C1.78115 31.64 2.44951 31.7293 3.0733 31.7293C4.45457 31.7739 5.88039 31.5508 7.17254 31.0598C8.24191 30.6581 9.13305 29.944 9.75685 28.962C10.3806 27.8908 10.6925 26.6411 10.648 25.3913V12.3136C10.648 12.2243 10.6034 12.1797 10.5589 12.1351C10.5143 12.0904 10.4252 12.0458 10.3806 12.0458H8.19735C8.50925 11.9565 8.82115 11.8673 9.08849 11.6887C9.57862 11.4209 10.0242 11.0192 10.2915 10.4836C10.6034 9.99265 10.7371 9.41241 10.7371 8.83217C10.7371 8.38583 10.648 7.98413 10.5143 7.53779C10.3361 7.13608 10.1133 6.77901 9.75685 6.46658C9.44495 6.15414 9.04393 5.93097 8.64292 5.75244C8.24191 5.5739 7.79634 5.52927 7.35077 5.52927C6.72697 5.52927 6.14773 5.66317 5.61305 5.9756C5.07837 6.24341 4.67735 6.68974 4.36546 7.18072C4.05356 7.67169 3.91989 8.25193 3.91989 8.83217C3.91989 9.27851 4.009 9.68021 4.18723 10.0819C4.36545 10.4836 4.6328 10.8407 4.9447 11.1531C5.39027 11.5995 5.92495 11.8673 6.54875 12.0012H4.3209C4.23178 12.0012 4.18723 12.0458 4.14267 12.0904C4.09811 12.1351 4.05356 12.2243 4.05356 12.269V25.0342C4.05356 25.1681 4.05356 25.3467 3.96444 25.4806C3.91989 25.6145 3.78621 25.7037 3.6971 25.793C3.29609 26.0162 2.85052 26.1054 2.44951 26.0608C2.09305 26.0608 1.73659 26.0162 1.38014 25.8823C1.33558 25.8823 1.29102 25.8823 1.24647 25.8823C1.20191 25.8823 1.15735 25.8823 1.1128 25.9269C1.06824 25.9715 1.02368 25.9715 1.02368 26.0162C0.979126 26.0608 0.979126 26.1054 0.979126 26.1501V31.1937C0.979126 31.2383 0.979126 31.3276 1.02368 31.3722C1.06824 31.4615 1.1128 31.4615 1.15735 31.5061ZM13.9452 25.5252C14.8363 26.0162 15.8166 26.2394 16.8414 26.2394C17.9999 26.284 19.1584 25.9269 20.0941 25.2574C20.6733 24.8111 21.1189 24.2755 21.4308 23.606V25.5698C21.4308 25.6591 21.4753 25.7037 21.5199 25.7484C21.5644 25.793 21.6536 25.8376 21.6981 25.8376H27.7579C27.847 25.8376 27.8915 25.793 27.9361 25.7484C27.9806 25.7037 28.0252 25.6145 28.0252 25.5698V12.3136C28.0252 12.2243 27.9806 12.1797 27.9361 12.1351C27.8915 12.0904 27.8024 12.0458 27.7579 12.0458H21.6981C21.609 12.0458 21.5644 12.0904 21.5199 12.1351C21.4753 12.1797 21.4308 12.269 21.4308 12.3136V19.5889C21.4308 19.9906 21.3862 20.437 21.208 20.8387C21.0743 21.1511 20.8961 21.3743 20.6287 21.5974C20.3614 21.776 20.0495 21.8652 19.7376 21.8652C19.4257 21.8652 19.1138 21.776 18.8465 21.6421C18.5791 21.4635 18.3563 21.2404 18.2227 20.9726C18.0444 20.6155 17.9999 20.2584 17.9999 19.8567V12.3136C17.9999 12.2243 17.9553 12.1797 17.9108 12.1351C17.8662 12.0458 17.8217 12.0012 17.7325 12.0012H11.6728C11.5837 12.0012 11.5391 12.0458 11.4946 12.0904C11.45 12.1351 11.4055 12.2243 11.4055 12.269V20.8387C11.4055 21.776 11.6282 22.7133 12.0738 23.5613C12.4748 24.4094 13.1432 25.0789 13.9452 25.5252ZM29.0946 25.8823C29.0055 25.8823 28.9609 25.8376 28.9163 25.793C28.8718 25.7484 28.8272 25.6591 28.8272 25.6145V12.3136C28.8272 12.2243 28.8718 12.1797 28.9163 12.1351C28.9609 12.0904 29.05 12.0458 29.0946 12.0458H31.3224C30.6986 11.9119 30.1639 11.5995 29.7184 11.1978C29.4065 10.8853 29.1391 10.5283 28.9609 10.1265C28.7827 9.72484 28.6936 9.27851 28.6936 8.8768C28.6936 8.29656 28.8272 7.71632 29.1391 7.22535C29.451 6.73438 29.852 6.28804 30.3867 6.02024C30.9214 5.7078 31.5452 5.5739 32.1244 5.5739C32.57 5.5739 33.0156 5.66317 33.4612 5.79707C33.8622 5.97561 34.2632 6.19877 34.5751 6.51121C35.1098 7.00218 35.4662 7.67169 35.5553 8.43046C35.6444 9.1446 35.5108 9.90338 35.1543 10.5283C34.8424 11.0192 34.4414 11.4209 33.9067 11.7334C33.6394 11.9119 33.3275 12.0012 32.971 12.0904H35.1989C35.288 12.0904 35.3325 12.1351 35.3771 12.1797C35.4217 12.2243 35.4662 12.3136 35.4662 12.3582V25.6591C35.4662 25.7484 35.4217 25.793 35.3771 25.8376C35.3325 25.8823 35.2434 25.9269 35.1989 25.9269L29.0946 25.8823ZM40.2338 25.302C41.6151 25.9269 43.13 26.2394 44.6895 26.2394C45.5806 26.2394 46.4718 26.1054 47.3629 25.9269C48.1649 25.793 48.9224 25.5698 49.6353 25.2574C49.6799 25.2128 49.7244 25.2128 49.769 25.1681C49.8136 25.1235 49.8136 25.0789 49.8136 25.0342V19.9906C49.8136 19.946 49.8136 19.9013 49.769 19.8567C49.7244 19.8121 49.7244 19.7674 49.6799 19.7674C49.6353 19.7674 49.5908 19.7228 49.5462 19.7228C49.5017 19.7228 49.4571 19.7228 49.368 19.7674C48.8333 20.1245 48.2095 20.3477 47.5857 20.5262C46.8728 20.7494 46.1599 20.8387 45.4024 20.8387C44.9123 20.8387 44.4222 20.7494 43.932 20.5709C43.5756 20.437 43.2191 20.2138 42.9963 19.8567C42.7736 19.5443 42.6844 19.1872 42.6844 18.7855C42.6844 18.4731 42.7736 18.116 42.9963 17.8482C43.2191 17.5358 43.4865 17.3126 43.8429 17.1787C44.2439 17.0002 44.6895 16.9109 45.1351 16.9109C45.6698 16.9109 46.2044 16.9555 46.7391 17.1341C47.2293 17.3126 47.6748 17.5358 48.0758 17.8482C48.1204 17.8928 48.165 17.8928 48.2541 17.8928H48.3432C48.3877 17.8928 48.4323 17.8482 48.4323 17.8036C48.4768 17.7589 48.4768 17.7143 48.4768 17.6697L49.5908 13.1616C49.5908 13.117 49.5908 13.0724 49.5908 12.9831C49.5908 12.9385 49.5462 12.8938 49.5017 12.8492C48.7887 12.3582 47.9867 12.0012 47.1401 11.8226C46.249 11.5995 45.3133 11.4656 44.4222 11.4656C42.9072 11.4209 41.3923 11.778 40.011 12.4475C38.808 13.0277 37.7386 13.9651 36.9812 15.0809C36.2682 16.1967 35.9118 17.4911 35.9118 18.8301C35.9118 20.1692 36.3128 21.4635 37.0703 22.5347C37.8723 23.8291 38.9862 24.7664 40.2338 25.302ZM57.5665 31.7293C56.3189 31.7293 55.1158 31.5954 53.9128 31.3722C52.7543 31.1937 51.6404 30.8813 50.571 30.4349C50.5265 30.3903 50.4819 30.3457 50.4374 30.301C50.3928 30.2564 50.3928 30.1671 50.3928 30.1225L51.5958 24.9896C51.5958 24.945 51.6404 24.9003 51.6404 24.8557C51.6849 24.8111 51.6849 24.8111 51.7295 24.7664C51.7741 24.7664 51.8186 24.7664 51.8632 24.7664C51.9077 24.7664 51.9523 24.7664 51.9968 24.8111C52.7098 25.2574 53.4672 25.5698 54.2693 25.793C55.0713 25.9715 55.9179 26.0608 56.7644 26.0608C57.5219 26.0608 58.2794 25.8823 58.9477 25.4806C59.527 25.1681 59.9725 24.7218 60.329 24.1862C60.1062 24.454 59.8834 24.6772 59.6161 24.9003C58.6804 25.5698 57.5219 25.9269 56.3634 25.8823C55.3832 25.9269 54.3584 25.7037 53.4672 25.2574C52.6652 24.8557 51.9968 24.2308 51.5513 23.4721C51.1057 22.6686 50.8829 21.7313 50.8829 20.8387V12.3582C50.8829 12.269 50.9275 12.2243 50.972 12.1797C51.0166 12.1351 51.1057 12.0904 51.1503 12.0904H57.21C57.2991 12.0904 57.3437 12.1351 57.3882 12.1797C57.4328 12.2243 57.4774 12.3136 57.4774 12.3582V19.5889C57.4774 19.9906 57.5219 20.3477 57.7001 20.7048C57.8338 20.9726 58.0566 21.2404 58.3239 21.3743C58.5913 21.5528 58.9032 21.5974 59.2151 21.5974C59.527 21.5974 59.8389 21.5082 60.0617 21.3296C60.329 21.1511 60.5072 20.8833 60.6409 20.5709C60.8191 20.1692 60.8637 19.7675 60.8637 19.3211V12.3136C60.8637 12.2243 60.9082 12.1797 60.9528 12.1351C60.9974 12.0904 61.0865 12.0458 61.131 12.0458H67.1462C67.2353 12.0458 67.2799 12.0904 67.3244 12.1351C67.369 12.1797 67.4136 12.269 67.4136 12.3136V23.963C67.4136 25.302 67.0125 26.5964 66.2551 27.7123C65.4085 28.962 64.2055 29.9886 62.8242 30.6135C61.2201 31.3722 59.3933 31.7739 57.5665 31.7293Z" stroke="#0A0A0A" stroke-width="1.01589" mask="url(#path-13-outside-1_5322_26096)"/>
<path d="M56.4536 26.3737C54.9387 26.3737 53.1118 25.8827 51.0622 24.4098C50.884 24.2759 50.8394 24.0081 50.9731 23.7849C51.1068 23.6064 51.3741 23.5171 51.5969 23.651C53.201 24.6776 57.0328 26.1059 60.0182 24.0974C60.1964 23.9635 60.4637 24.0081 60.5974 24.1866C60.7311 24.3652 60.7311 24.633 60.5974 24.7669C59.8399 25.5256 58.4141 26.3737 56.4536 26.3737Z" fill="#0A0A0A"/>
</g>
<defs>
<clipPath id="clip0_5322_26096">
<rect width="88" height="33.2075" fill="white" transform="translate(0 0.39624)"/>
</clipPath>
</defs>
</svg>
