<svg width="40" height="40" viewBox="0 0 40 40" fill="none" xmlns="http://www.w3.org/2000/svg">
<rect x="0.5" y="0.5" width="39" height="39" rx="7.5" fill="#FE871B"/>
<g clip-path="url(#clip0_1203_26041)">
<path d="M23.125 16.0037V16.1421L23.1962 16.2609L30.9075 29.1171L30.959 29.203C31.0649 29.409 31.1219 29.6373 31.1248 29.8699C31.1281 30.1353 31.0609 30.3968 30.9302 30.6278C30.7994 30.8587 30.6097 31.0509 30.3804 31.1845C30.1511 31.3182 29.8904 31.3886 29.625 31.3887C29.625 31.3887 29.625 31.3887 29.625 31.3887H9.626C9.36082 31.3882 9.10051 31.3174 8.87161 31.1835C8.64271 31.0496 8.45339 30.8574 8.32294 30.6265C8.1925 30.3957 8.12559 30.1343 8.12903 29.8692C8.13248 29.604 8.20616 29.3445 8.34256 29.1171L16.0538 16.2609L16.125 16.1421V16.0037V8.88867V8.38867H15.625H14.625C14.4924 8.38867 14.3652 8.33599 14.2715 8.24223C14.1777 8.14846 14.125 8.02128 14.125 7.88867C14.125 7.75606 14.1777 7.62889 14.2715 7.53512C14.3652 7.44135 14.4924 7.38867 14.625 7.38867H24.625C24.7576 7.38867 24.8848 7.44135 24.9786 7.53512C25.0723 7.62889 25.125 7.75606 25.125 7.88867C25.125 8.02128 25.0723 8.14846 24.9786 8.24223C24.8848 8.33599 24.7576 8.38867 24.625 8.38867H23.625H23.125V8.88867V16.0037Z" fill="white" stroke="black"/>
</g>
<rect x="0.5" y="0.5" width="39" height="39" rx="7.5" stroke="black"/>
<defs>
<clipPath id="clip0_1203_26041">
<rect width="32" height="32" fill="white" transform="translate(4 4)"/>
</clipPath>
</defs>
</svg>
